SplineFontDB: 3.0
FontName: HeadlandOne-Regular
FullName: Headland One
FamilyName: Headland One
Weight: Regular
Copyright: Copyright (c) 2011-2012, Sorkin Type Co (www.sorkintype.com), with Reserved Font Name "Headland"
Version: 001.001
ItalicAngle: 0
UnderlinePosition: -28
UnderlineWidth: 142
Ascent: 1638
Descent: 410
sfntRevision: 0x00010042
LayerCount: 2
Layer: 0 0 "Back"  1
Layer: 1 0 "Fore"  0
XUID: [1021 723 548469661 2640785]
FSType: 0
OS2Version: 2
OS2_WeightWidthSlopeOnly: 0
OS2_UseTypoMetrics: 1
CreationTime: 1333070639
ModificationTime: 1333373143
PfmFamily: 17
TTFWeight: 400
TTFWidth: 5
LineGap: 0
VLineGap: 0
Panose: 2 2 6 2 6 3 0 6 7 4
OS2TypoAscent: 402
OS2TypoAOffset: 1
OS2TypoDescent: -110
OS2TypoDOffset: 1
OS2TypoLinegap: 0
OS2WinAscent: 0
OS2WinAOffset: 1
OS2WinDescent: 0
OS2WinDOffset: 1
HheadAscent: 0
HheadAOffset: 1
HheadDescent: 0
HheadDOffset: 1
OS2SubXSize: 1434
OS2SubYSize: 1331
OS2SubXOff: 0
OS2SubYOff: 287
OS2SupXSize: 1434
OS2SupYSize: 1331
OS2SupXOff: 0
OS2SupYOff: 977
OS2StrikeYSize: 142
OS2StrikeYPos: 460
OS2Vendor: 'STC '
OS2CodePages: 20000093.00000000
OS2UnicodeRanges: a00000af.4000204a.00000000.00000000
MarkAttachClasses: 1
DEI: 91125
LangName: 1033 "" "" "" "" "" "Version 1.001" "" "Headland is a trademark of Sorkin Type Co." "Sorkin Type Co." "Gary Lonergan" "Headland is a text typeface designed to be highly legible and comfortable when reading screens.+AMoA-Headland is useful from very small sizes to headlines. Headland's personality recalls the geniality+AMoA-of the UK private press movement types made at the turn of the 20th century. Headland's eccentric details contribute to the distinctive feeling of the type at smaller sizes but do not become obvious+AMoA-until the type becomes much larger." "www.sorkintype.com" "www.sorkintype.com" "This Font Software is licensed under the SIL Open Font License, Version 1.1. This license is available with a FAQ at: http://scripts.sil.org/OFL" "http://scripts.sil.org/OFL" 

StartChar: A
Encoding: 65 65 4
Width: 1533
Flags: MW
HStem: 0 106<942 957 957 957 1466 1477.5> 558 120<506 968 506 1013 464 968> 1547 20G<850 850>
VStem: 2 1543<0 117>
LayerCount: 2
Fore
SplineSet
2 0 m 1
 15 105 l 1
 116 105 146 132 186 230 c 1
 688 1530 l 1
 716 1530 820 1546 850 1567 c 1
 1310 333 l 2
 1358 202 1421 105 1466 106 c 0
 1489 106 1523 103 1545 117 c 1
 1525 0 l 1
 942 0 l 1
 957 106 l 1
 1126 104 1155 150 1141 218 c 1
 1013 558 l 1
 464 558 l 1
 335 190 l 2
 320 148 348 109 387 106 c 1
 418 105 497 105 530 117 c 1
 515 0 l 1
 2 0 l 1
506 678 m 1
 968 678 l 1
 729 1312 l 1
 506 678 l 1
EndSplineSet
EndChar

StartChar: B
Encoding: 66 66 5
Width: 1536
Flags: MW
HStem: -16 112<750.5 971.5 693.5 996> -1 107<109 170.5 117 170.5 117 409> 742 111<764 803 803 905.5 504 937> 1418 112<181.5 222> 1433 112<717.5 862.5>
VStem: 301 205<176.5 1223> 1087 225<1087.5 1245> 1206 230<343 551.5 328.5 557.5>
LayerCount: 2
Fore
SplineSet
109 -1 m 1x6d
 117 106 l 1
 224 106 301 130 301 281 c 2
 301 1223 l 2
 301 1387 252 1418 192 1418 c 0
 171 1418 131 1417 111 1410 c 1
 120 1530 l 1
 409 1530 l 1x75
 531 1533 637 1545 798 1545 c 0
 1138 1545 1312 1406 1312 1185 c 0xae
 1312 990 1187 873 1060 825 c 1
 1321 803 1436 641 1436 462 c 0xad
 1436 195 1206 -16 786 -16 c 0
 715 -16 489 -1 409 -1 c 2
 109 -1 l 1x6d
504 853 m 1
 803 853 l 2
 1008 853 1087 958 1087 1165 c 0
 1087 1325 994 1433 731 1433 c 0
 600 1433 558 1422 504 1411 c 1xae
 504 853 l 1
506 235 m 2
 506 118 573 96 814 96 c 0
 1129 96 1206 241 1206 445 c 0xad
 1206 670 1110 742 764 742 c 1
 504 741 l 1
 506 235 l 2
EndSplineSet
EndChar

StartChar: C
Encoding: 67 67 6
Width: 1709
Flags: MW
HStem: -15 105<837.5 1099.5> 1438 107<778 1058>
VStem: 143 234<552.5 975 552.5 1000.5>
LayerCount: 2
Fore
SplineSet
143 759 m 0
 143 1242 495 1545 987 1545 c 0
 1142 1545 1403 1495 1536 1503 c 1
 1543 1408 1528 1244 1506 1095 c 1
 1392 1095 l 1
 1384 1160 1366 1256 1342 1303 c 1
 1281 1408 1144 1438 972 1438 c 0
 584 1438 377 1163 377 787 c 0
 377 318 682 90 993 90 c 0
 1235 90 1348 166 1425 406 c 1
 1536 406 l 1
 1544 310 1521 149 1500 90 c 1
 1411 46 1250 -15 949 -15 c 0
 578 -15 143 176 143 759 c 0
EndSplineSet
EndChar

StartChar: D
Encoding: 68 68 7
Width: 1539
Flags: MW
HStem: -15 126<670.5 896 611 944> -1 107 1419 111<151 200.5> 1433 112<643.5 837>
VStem: 279 203<285 1230 1230 1303.5> 1264 226<560.5 1025>
LayerCount: 2
Fore
SplineSet
98 0 m 1x5c
 105 106 l 1
 217 106 279 135 279 285 c 2
 279 1230 l 2
 279 1377 239 1419 162 1419 c 0
 140 1419 119 1417 97 1410 c 1
 107 1530 l 1
 353 1530 l 2x6c
 483 1530 568 1545 719 1545 c 0
 1229 1545 1490 1299 1490 809 c 0
 1490 312 1180 -15 708 -15 c 0x9c
 633 -15 446 -1 373 -1 c 2
 98 0 l 1x5c
482 207 m 2x9c
 482 116 477 111 745 111 c 0
 1047 111 1264 302 1264 763 c 0
 1264 1287 1016 1433 658 1433 c 0
 601 1433 537 1425 482 1412 c 1
 482 207 l 2x9c
EndSplineSet
EndChar

StartChar: E
Encoding: 69 69 8
Width: 1368
Flags: MW
HStem: 0 106<93 179.5 110 179.5 110 1237> 0 111<673 864 864 956 673 1237> 763 109<473 682 473 688> 1413 117<473 849 473 473> 1413 132
VStem: 270 203<306 763 872 1222 1222 1293.5> 838 110<569 569>
LayerCount: 2
Fore
SplineSet
93 0 m 1x76
 110 106 l 1
 249 106 270 157 270 306 c 2
 270 1222 l 2
 270 1365 237 1418 176 1418 c 0
 166 1418 134 1417 106 1411 c 1
 118 1530 l 1
 889 1530 l 2xb6
 1160 1530 1244 1545 1244 1545 c 1x6e
 1245 1382 1214 1225 1199 1171 c 1
 1111 1171 l 1
 1097 1397 1042 1413 849 1413 c 2
 473 1413 l 1
 473 872 l 1
 688 872 l 2
 841 872 846 930 858 1042 c 1
 967 1043 l 1
 970 886 957 706 948 569 c 1
 838 569 l 1
 830 706 816 763 682 763 c 2
 473 763 l 1
 473 278 l 2
 473 144 508 116 673 111 c 0
 721 110 809 111 864 111 c 0
 1048 111 1159 226 1180 407 c 1
 1290 407 l 1
 1291 298 1259 114 1237 0 c 1
 93 0 l 1x76
EndSplineSet
EndChar

StartChar: F
Encoding: 70 70 9
Width: 1368
Flags: MW
HStem: 0 106<93 179.5 110 179.5 110 760> 0 111<563 643 563 760> 737 113<472 703> 1413 117<472 872 472 472> 1413 132
VStem: 269 203<306 737 850 1222 1222 1293.5> 898 121
LayerCount: 2
Fore
SplineSet
93 0 m 1x76
 110 106 l 1
 249 106 269 157 269 306 c 2
 269 1222 l 2
 269 1365 237 1418 176 1418 c 0
 166 1418 134 1417 106 1411 c 1
 118 1530 l 1
 941 1530 l 2xb6
 1213 1530 1293 1545 1293 1545 c 1x6e
 1294 1382 1264 1216 1248 1162 c 1
 1156 1162 l 1
 1141 1388 1065 1413 872 1413 c 2
 472 1413 l 1
 472 850 l 1
 703 850 l 2
 861 850 898 876 916 1025 c 1
 1031 1025 l 1
 1008 550 l 1
 898 550 l 1
 895 658 857 711 820 724 c 0
 802 731 559 738 472 737 c 1
 472 270 l 2
 472 148 500 111 626 111 c 0
 660 111 730 112 773 118 c 1
 760 0 l 1
 93 0 l 1x76
EndSplineSet
EndChar

StartChar: G
Encoding: 71 71 10
Width: 1709
Flags: MW
HStem: -16 117<834.5 1052 834.5 1081.5> 661 124<1092.5 1143.5> 1443 102<741.5 1069 665 1092.5>
VStem: 118 229<515.5 946.5> 1280 187<351 500 500 508.5 351 579.5>
LayerCount: 2
Fore
SplineSet
118 747 m 0
 118 1146 377 1545 953 1545 c 0
 1185 1545 1340 1499 1477 1506 c 1
 1476 1365 1468 1248 1449 1107 c 1
 1406 1107 1367 1104 1323 1104 c 1
 1307 1365 1219 1443 966 1443 c 0
 517 1443 347 1135 347 782 c 0
 347 231 705 101 964 101 c 0
 1140 101 1237 133 1280 192 c 1
 1280 500 l 2
 1280 659 1184 661 1103 661 c 0
 1082 661 1032 660 1011 656 c 1
 1022 785 l 1
 1617 785 l 1
 1603 663 l 1
 1479 661 1467 634 1467 383 c 0
 1467 319 1474 155 1497 95 c 1
 1404 42 1224 -16 939 -16 c 0
 383 -16 118 284 118 747 c 0
EndSplineSet
EndChar

StartChar: H
Encoding: 72 72 11
Width: 1706
Flags: MW
HStem: 0 106<96 182.5 113 182.5 517.5 572 1069 1137 1494.5 1534> 728 122<476 1230 476 1230> 1418 112<174.5 210 565.5 627 1115 1174.5 1533.5 1589>
VStem: 273 203<306 728 850 1209> 1230 203<326 728 728 728 850 1214>
LayerCount: 2
Fore
SplineSet
96 0 m 1
 113 106 l 1
 252 106 273 157 273 306 c 2
 273 1222 l 2
 273 1365 240 1418 180 1418 c 0
 169 1418 138 1417 109 1411 c 1
 121 1530 l 1
 642 1530 l 1
 627 1418 l 1
 504 1418 476 1407 476 1209 c 2
 476 850 l 1
 1230 850 l 1
 1230 1215 l 2
 1230 1391 1210 1418 1139 1418 c 0
 1091 1418 1066 1413 1042 1408 c 1
 1060 1530 l 1
 1603 1530 l 1
 1589 1418 l 1
 1478 1418 1433 1386 1433 1214 c 2
 1433 257 l 2
 1433 139 1465 106 1524 106 c 0
 1544 106 1578 112 1601 118 c 1
 1589 0 l 1
 1051 0 l 1
 1069 106 l 1
 1205 106 1230 175 1230 326 c 2
 1230 728 l 1
 476 728 l 1
 476 268 l 2
 476 120 488 106 547 106 c 0
 597 106 639 115 662 120 c 1
 647 0 l 1
 96 0 l 1
EndSplineSet
EndChar

StartChar: I
Encoding: 73 73 12
Width: 853
Flags: MW
HStem: 0 106<121 193 132 193 594.5 657.5> 1418 112<215 257.5 624 701>
VStem: 325 203<246.5 270 270 340>
LayerCount: 2
Fore
SplineSet
121 0 m 1
 132 106 l 1
 254 106 325 153 325 340 c 2
 324 1215 l 2
 324 1390 283 1418 232 1418 c 0
 198 1418 161 1417 129 1411 c 1
 145 1530 l 1
 717 1530 l 1
 701 1418 l 1
 547 1418 528 1383 528 1222 c 2
 528 270 l 2
 528 148 541 106 648 106 c 0
 667 106 710 114 733 119 c 1
 721 0 l 1
 121 0 l 1
EndSplineSet
EndChar

StartChar: K
Encoding: 75 75 13
Width: 1536
Flags: MW
HStem: 0 106<137 214 149 214 566 620.5> 739 111<506 582 582 598 506 611 506 582> 1418 112<201 250 600.5 657 1358.5 1388.5 1381 1432>
VStem: 303 203<330 739 850 1223 1223 1233>
LayerCount: 2
Fore
SplineSet
137 0 m 1
 149 106 l 1
 279 106 303 137 303 330 c 2
 303 1223 l 2
 303 1365 286 1418 214 1418 c 0
 188 1418 148 1415 125 1413 c 1
 143 1530 l 1
 672 1530 l 1
 657 1418 l 1
 544 1418 506 1389 506 1233 c 2
 506 850 l 1
 582 850 l 2
 614 850 637 863 643 868 c 1
 856 1114 960 1228 980 1262 c 1
 1009 1305 1051 1349 1051 1373 c 0
 1051 1406 1036 1425 990 1425 c 0
 955 1425 935 1424 906 1418 c 1
 922 1530 l 1
 1449 1530 l 1
 1432 1418 l 1
 1415 1422 1396 1418 1381 1418 c 0
 1336 1418 1259 1385 1120 1223 c 1
 758 806 l 1
 894 710 1130 425 1231 282 c 0
 1332 139 1370 108 1446 108 c 0
 1466 108 1483 109 1506 115 c 1
 1502 0 l 1
 1273 0 l 2
 1172 0 1104 57 1015 208 c 0
 926 359 738 647 611 739 c 1
 506 739 l 1
 506 299 l 2
 506 180 517 106 615 106 c 0
 626 106 680 111 710 118 c 1
 697 0 l 1
 137 0 l 1
EndSplineSet
EndChar

StartChar: L
Encoding: 76 76 14
Width: 1367
Flags: MW
HStem: 0 106<634 799 799 946.5> 1417 113<598 682>
VStem: 260 206<238 279 279 330>
LayerCount: 2
Fore
SplineSet
68 0 m 1
 80 111 l 1
 201 108 260 146 260 330 c 2
 259 1249 l 2
 259 1401 236 1418 171 1418 c 0
 139 1418 117 1413 92 1408 c 1
 108 1530 l 1
 696 1530 l 1
 682 1417 l 1
 514 1417 458 1403 466 1224 c 1
 466 279 l 2
 466 124 542 106 634 106 c 2
 799 106 l 2
 1094 106 1119 272 1138 446 c 1
 1192 446 1234 441 1268 441 c 1
 1289 256 1234 65 1229 0 c 1
 68 0 l 1
EndSplineSet
EndChar

StartChar: M
Encoding: 77 77 15
Width: 2219
Flags: MW
HStem: -16 21G<1013 1013> 0 110<85 91 91 91 447.5 528> 0 114<2057 2065.5 2057 2142> 1418 112<321 398.5 1844.5 1923>
VStem: 85 2070<0 123> 1740 408
LayerCount: 2
Fore
SplineSet
85 0 m 1x58
 91 110 l 1x58
 218 108 220 148 255 287 c 0
 329 585 377 944 426 1241 c 1
 436 1315 452 1418 345 1418 c 0
 297 1418 272 1413 249 1408 c 1
 265 1530 l 1
 704 1530 l 1
 737 1337 921 774 1101 291 c 1
 1267 772 1453 1313 1501 1530 c 1
 1938 1530 l 1
 1923 1418 l 1
 1766 1418 1745 1398 1762 1266 c 1
 1819 878 1849 638 1937 278 c 0
 1972 135 1984 115 2057 114 c 0
 2074 114 2131 117 2155 123 c 1x34
 2142 0 l 1
 1556 0 l 1
 1569 95 l 1x54
 1682 92 1762 133 1735 320 c 1
 1673 685 1611 1018 1563 1277 c 1
 1420 834 1270 443 1149 13 c 1
 1097 13 1049 -5 1013 -16 c 1x98
 566 1275 l 1
 511 887 409 434 405 282 c 1
 405 195 384 110 511 110 c 0
 545 110 589 117 622 123 c 1
 611 0 l 1
 85 0 l 1x58
EndSplineSet
EndChar

StartChar: N
Encoding: 78 78 16
Width: 1706
Flags: MW
HStem: -16 21G 0 106<91 157 104 157 481 544.5> 1419 111<1259 1309 1588 1664>
VStem: 276 131<283 300 300 1222 1222 1266> 1361 132<368 1245 1245 1270>
LayerCount: 2
Fore
SplineSet
91 0 m 1x78
 104 106 l 1x78
 210 106 276 114 276 283 c 2
 276 1222 l 2
 276 1371 261 1410 179 1410 c 0
 150 1410 117 1405 87 1400 c 1
 102 1530 l 1
 497 1530 l 1
 497 1530 515 1450 587 1359 c 0
 846 1028 1105 681 1361 368 c 1
 1361 1245 l 2
 1361 1407 1349 1419 1269 1419 c 0
 1249 1419 1198 1414 1166 1409 c 1
 1177 1530 l 1
 1678 1530 l 1
 1664 1419 l 1
 1512 1419 1493 1423 1493 1270 c 2
 1493 252 l 2
 1493 125 1508 16 1508 16 c 1
 1476 13 1424 3 1390 -16 c 1xb8
 1194 291 769 811 407 1266 c 1
 407 300 l 2
 407 157 442 106 520 106 c 0
 569 106 625 115 649 119 c 1
 637 0 l 1
 91 0 l 1x78
EndSplineSet
EndChar

StartChar: O
Encoding: 79 79 17
Width: 1709
Flags: MW
HStem: -15 123<688 994.5 688 1055> 1422 124<715 1021>
VStem: 125 227 1356 228
LayerCount: 2
Fore
SplineSet
125 736 m 0
 132 1176 408 1546 903 1546 c 0
 1305 1546 1592 1278 1584 797 c 0
 1577 357 1302 -15 808 -15 c 0
 405 -15 118 255 125 736 c 0
858 108 m 0
 1131 108 1350 313 1356 733 c 1
 1363 1139 1191 1422 851 1422 c 0
 579 1422 359 1221 352 801 c 0
 345 395 518 108 858 108 c 0
EndSplineSet
EndChar

StartChar: P
Encoding: 80 80 18
Width: 1364
Flags: MW
HStem: 0 106<599.5 684 599.5 765> 599 118 1426 104<174.5 251> 1436 109<723 814 723 817.5>
VStem: 300 205<254.5 260 260 330> 1101 216<944.5 1212.5>
LayerCount: 2
Fore
SplineSet
131 0 m 1xdc
 142 105 l 1
 265 105 300 179 300 330 c 2
 299 1241 l 2
 299 1390 302 1426 200 1426 c 0
 149 1426 126 1423 101 1417 c 1
 118 1530 l 1
 314 1530 l 2xec
 603 1530 632 1545 814 1545 c 1
 1181 1540 1317 1354 1317 1096 c 0
 1317 733 958 525 601 623 c 1
 583 735 l 1
 878 664 1101 806 1101 1083 c 0
 1101 1342 935 1436 700 1436 c 0
 647 1436 560 1429 505 1416 c 1
 505 260 l 2
 505 138 535 106 664 106 c 0
 704 106 752 118 777 124 c 1
 765 0 l 1
 131 0 l 1xdc
EndSplineSet
EndChar

StartChar: Q
Encoding: 81 81 19
Width: 1709
Flags: MW
HStem: -402 193 -16 124<845 855.5> -15 123<717 1023.5 717 1084> 1422 124<744 1050>
VStem: 154 227 1385 228
LayerCount: 2
Fore
SplineSet
154 736 m 0xbc
 161 1176 437 1546 932 1546 c 0
 1334 1546 1621 1278 1613 797 c 0
 1606 357 1331 -15 837 -15 c 0
 434 -15 147 255 154 736 c 0xbc
381 801 m 0
 374 395 547 108 887 108 c 0
 1160 108 1379 313 1385 733 c 1
 1392 1139 1220 1422 880 1422 c 0
 608 1422 388 1221 381 801 c 0
845 -16 m 1xdc
 1024 50 l 1
 1212 4 1276 -199 1457 -209 c 0
 1527 -213 1550 -205 1588 -194 c 1
 1621 -324 l 1
 1607 -339 1534 -402 1413 -402 c 0
 1142 -402 1058 -72 920 -28 c 0
 887 -18 866 -16 845 -16 c 1xdc
EndSplineSet
EndChar

StartChar: R
Encoding: 82 82 20
Width: 1535
Flags: MW
HStem: 0 106<147 159 159 159 578.5 650> 0 115 686 116<511 603 511 756> 1418 112<200.5 266.5> 1433 112<780 860.5>
VStem: 315 196<258.5 279 279 349> 1092 221<1022.5 1220.5>
LayerCount: 2
Fore
SplineSet
147 0 m 1xae
 159 106 l 1
 305 108 315 168 315 349 c 2
 314 1252 l 2
 314 1365 317 1418 216 1418 c 0
 185 1418 142 1413 118 1408 c 1
 134 1530 l 1
 416 1530 l 2xb6
 491 1530 737 1545 823 1545 c 0
 1155 1545 1313 1394 1313 1155 c 0
 1313 890 1085 730 916 712 c 1
 1143 656 1295 118 1431 115 c 0
 1462 114 1486 118 1509 125 c 1x6e
 1504 0 l 1
 1358 0 l 2
 1236 0 1169 47 1119 102 c 1
 1043 199 1017 355 939 483 c 1
 843 643 794 686 603 686 c 2
 511 686 l 1
 511 279 l 2
 511 162 526 106 631 106 c 0
 669 106 704 112 736 120 c 1
 725 0 l 1
 147 0 l 1xae
511 802 m 1
 756 802 l 1
 933 801 1092 914 1092 1123 c 0
 1092 1318 979 1433 742 1433 c 0
 707 1433 570 1434 511 1415 c 1xae
 511 802 l 1
EndSplineSet
EndChar

StartChar: S
Encoding: 83 83 21
Width: 1364
Flags: MW
HStem: -16 105<599 778.5 542 841.5> 1439 106<572 767 560.5 799>
VStem: 198 201 1016 218
LayerCount: 2
Fore
SplineSet
177 30 m 1
 172 206 183 366 199 457 c 1
 298 457 l 1
 310 211 412 89 672 89 c 0
 885 89 1022 194 1016 347 c 0
 1009 531 805 606 591 698 c 0
 390 785 203 928 198 1160 c 0
 193 1393 408 1545 713 1545 c 0
 821 1545 1009 1491 1167 1524 c 1
 1175 1348 1153 1207 1137 1116 c 1
 1041 1116 l 1
 1035 1359 899 1439 699 1439 c 0
 445 1439 394 1306 399 1197 c 0
 406 1039 566 953 759 868 c 0
 984 769 1230 650 1234 403 c 0
 1239 115 997 -16 686 -16 c 0
 512 -16 348 57 177 30 c 1
EndSplineSet
EndChar

StartChar: T
Encoding: 84 84 22
Width: 1535
Flags: MW
HStem: 0 108 1412 118<500 500 1069 1069>
VStem: 665 207<311 1411> 1302 128<1131 1248.5>
LayerCount: 2
Fore
SplineSet
384 1 m 1
 392 108 l 1
 654 108 665 127 665 311 c 2
 665 1411 l 1
 500 1412 l 1
 272 1408 218 1346 198 1131 c 1
 71 1131 l 1
 84 1236 109 1385 129 1530 c 1
 1440 1530 l 1
 1448 1459 1432 1293 1430 1131 c 1
 1302 1131 l 1
 1302 1366 1298 1408 1069 1412 c 1
 872 1411 l 1
 872 289 l 2
 872 133 890 108 1002 108 c 0
 1023 108 1129 116 1152 122 c 1
 1140 0 l 1
 384 1 l 1
EndSplineSet
EndChar

StartChar: V
Encoding: 86 86 23
Width: 1364
Flags: MW
HStem: -16 21G<648 648> 1418 112<-16 29 418.5 512 996.5 1040.5 1369 1422>
VStem: -54 1489<1411 1530>
LayerCount: 2
Fore
SplineSet
648 -16 m 1
 648 -16 323 733 153 1178 c 0
 93 1335 63 1418 -5 1418 c 0
 -27 1418 -38 1416 -54 1411 c 1
 -41 1530 l 1
 531 1530 l 1
 512 1418 l 1
 325 1418 307 1375 326 1315 c 0
 336 1281 643 474 739 236 c 1
 828 476 1112 1256 1111 1340 c 1
 1109 1409 1068 1418 1013 1418 c 0
 980 1418 948 1413 927 1408 c 1
 938 1530 l 1
 1435 1530 l 1
 1422 1418 l 1
 1316 1418 1295 1400 1257 1296 c 1
 1198 1125 784 13 784 13 c 1
 745 13 685 4 648 -16 c 1
EndSplineSet
EndChar

StartChar: W
Encoding: 87 87 24
Width: 2214
Flags: MW
HStem: -16 21G<656 656 1498 1498> 1418 112<50 94 480.5 555 935.5 983 1381.5 1478 1854.5 1898.5 2242 2295>
VStem: -3 2312<1408 1530> 3 370
LayerCount: 2
Fore
SplineSet
656 -16 m 1xe0
 656 -16 382 744 210 1178 c 1
 157 1334 125 1418 63 1418 c 0
 37 1418 15 1415 -3 1408 c 1
 10 1530 l 1
 570 1530 l 1
 555 1418 l 1xd0
 406 1418 353 1414 381 1304 c 0
 391 1266 653 516 745 254 c 1
 859 570 983 926 1088 1240 c 1
 1054 1344 1018 1418 948 1418 c 0
 923 1418 906 1413 886 1408 c 1
 898 1530 l 1
 1497 1530 l 1
 1478 1418 l 1
 1285 1418 1260 1405 1276 1315 c 0
 1283 1281 1516 504 1596 238 c 1
 1777 743 1984 1246 1982 1340 c 0
 1980 1409 1926 1418 1871 1418 c 0
 1838 1418 1805 1413 1784 1408 c 1
 1795 1530 l 1
 2309 1530 l 1
 2295 1418 l 1
 2189 1418 2162 1400 2126 1296 c 1
 2064 1126 1650 13 1650 13 c 1
 1650 13 1543 7 1498 -16 c 1
 1498 -16 1302 581 1155 1035 c 1
 1010 645 811 19 808 13 c 1
 808 13 701 7 656 -16 c 1xe0
EndSplineSet
EndChar

StartChar: grave
Encoding: 96 96 25
Width: 1287
Flags: MW
HStem: 1311 446<399 754>
VStem: 282 541<1419 1593>
LayerCount: 2
Fore
SplineSet
754 1311 m 1
 282 1593 l 1
 399 1757 l 1
 823 1419 l 1
 754 1311 l 1
EndSplineSet
EndChar

StartChar: a
Encoding: 97 97 26
Width: 1195
Flags: MW
HStem: -23 141<470 524.5> 577 102<667.5 832> 1082 127<547.5 632.5>
VStem: 114 213<261 398 261 429> 164 191 831 169
LayerCount: 2
Fore
SplineSet
114 303 m 0xf4
 114 555 421 679 814 679 c 2
 832 679 l 1
 829 845 l 2
 825 1031 679 1082 586 1082 c 0
 413 1082 327 983 363 810 c 1
 191 810 l 1
 191 810 178 862 170 935 c 0
 161 1008 163 1018 169 1025 c 1xec
 229 1064 421 1209 674 1209 c 0
 856 1209 1016 1130 1016 872 c 0
 1016 693 1000 531 1000 339 c 0
 1000 176 1113 150 1181 150 c 1
 1177 83 1088 -8 1038 -22 c 1
 958 -22 879 38 842 151 c 1
 745 49 567 -23 482 -23 c 0
 241 -23 114 107 114 303 c 0xf4
327 316 m 0
 327 206 409 118 531 118 c 0
 630 118 750 192 821 280 c 1
 821 300 l 1
 827 416 830 502 831 572 c 1
 821 575 810 577 799 577 c 0
 536 577 327 480 327 316 c 0
EndSplineSet
EndChar

StartChar: b
Encoding: 98 98 27
Width: 1362
Flags: MW
HStem: -23 21G<203 203> -15 123<627.5 800 627.5 831.5> 1043 166<718.5 797>
VStem: 215 188<413.5 547> 1059 184<466 747>
LayerCount: 2
Fore
SplineSet
203 -23 m 1xb8
 215 170 215 280 215 547 c 1
 209 1368 l 2
 209 1448 205 1481 184 1505 c 0
 153 1542 78 1537 21 1537 c 1
 33 1649 l 1
 421 1706 l 1
 407 1645 403 1470 403 1197 c 1
 394 1054 l 1
 496 1141 662 1209 775 1209 c 0
 996 1209 1243 1072 1243 642 c 0
 1243 290 1001 -15 662 -15 c 0
 496 -15 395 15 333 42 c 1x78
 203 -23 l 1xb8
403 212 m 1x78
 441 154 577 108 678 108 c 0
 922 108 1059 302 1059 617 c 0
 1059 877 907 1043 687 1043 c 0
 580 1043 428 969 403 942 c 1
 403 212 l 1x78
EndSplineSet
EndChar

StartChar: c
Encoding: 99 99 28
Width: 1191
Flags: MW
HStem: -17 176<584.5 758> 1093 116<577.5 776>
VStem: 119 202<471.5 754> 903 160<844 1071.5>
LayerCount: 2
Fore
SplineSet
119 539 m 0
 119 969 404 1209 728 1209 c 0
 902 1209 994 1167 1056 1153 c 1
 1062 1140 1063 1090 1063 1053 c 0
 1063 978 1047 876 1041 844 c 1
 1036 837 1013 837 985 837 c 0
 956 837 919 837 903 844 c 1
 903 975 881 1093 671 1093 c 0
 484 1093 321 926 321 610 c 0
 321 333 450 159 719 159 c 0
 855 159 959 199 1046 246 c 1
 1082 171 l 1
 1040 127 858 -17 658 -17 c 0
 345 -17 119 195 119 539 c 0
EndSplineSet
EndChar

StartChar: d
Encoding: 100 100 29
Width: 1362
Flags: MW
HStem: -15 179<540.5 621 540.5 629.5> 1086 123<575 733.5>
VStem: 115 199<451 722.5> 934 184<253 301 301 982 982 982 1179 1216> 1138 162
LayerCount: 2
Fore
SplineSet
115 545 m 0
 115 900 374 1209 705 1209 c 0
 805 1209 879 1195 934 1179 c 1
 934 1404 935 1475 902 1504 c 1
 869 1539 794 1537 719 1537 c 1
 734 1649 l 1
 1138 1705 l 1
 1138 1689 1118 1677 1118 1216 c 2
 1118 301 l 2
 1118 197 1141 157 1204 157 c 0xf0
 1240 157 1274 171 1309 182 c 1
 1305 150 1300 59 1300 59 c 1xf8
 993 -17 l 1
 987 -14 955 61 939 130 c 1
 852 65 690 -15 569 -15 c 0
 313 -15 115 178 115 545 c 0
621 164 m 1
 763 172 914 232 934 253 c 1
 934 982 l 1
 898 1040 779 1086 688 1086 c 0
 462 1086 314 951 314 577 c 0
 314 325 460 164 621 164 c 1
EndSplineSet
EndChar

StartChar: e
Encoding: 101 101 30
Width: 1195
Flags: MW
HStem: -17 170<556.5 675 556.5 680.5> 588 112 1092 117<533.5 707.5>
VStem: 116 196<445.5 588 688 757.5> 867 214<705 882.5>
LayerCount: 2
Fore
SplineSet
116 560 m 0
 116 955 382 1209 661 1209 c 0
 951 1209 1080 1034 1081 723 c 0
 1081 687 1084 588 1058 588 c 2
 312 588 l 1
 312 303 438 153 675 153 c 1
 797 160 918 191 1021 245 c 1
 1063 166 l 1
 937 59 743 -17 618 -17 c 0
 282 -17 116 195 116 560 c 0
312 688 m 1
 866 712 l 1
 867 741 867 752 867 780 c 0
 867 985 801 1092 614 1092 c 0
 453 1092 312 887 312 688 c 1
EndSplineSet
EndChar

StartChar: f
Encoding: 102 102 31
Width: 852
Flags: MW
HStem: 0 102<75 172 88 172 525.5 584.5> 1040 105<97 97 97 263 86 97> 1040 150<451 782 451 770> 1578 148<580 711.5>
VStem: 261 179 265 187<231 245 181 334> 815 167
LayerCount: 2
Fore
SplineSet
75 0 m 1xb6
 88 102 l 1
 256 102 265 128 265 334 c 2
 263 1040 l 1
 86 1040 l 1xb6
 97 1145 l 1xd6
 133 1147 239 1175 265 1190 c 1
 232 1409 396 1726 715 1726 c 0
 886 1726 965 1643 978 1556 c 0
 990 1478 969 1402 960 1360 c 1
 815 1360 l 1
 815 1444 l 2
 815 1522 784 1578 639 1578 c 0xba
 521 1578 401 1503 451 1190 c 1
 782 1190 l 1
 770 1040 l 1
 451 1040 l 1
 452 245 l 2
 452 117 476 102 575 102 c 0
 594 102 703 104 761 111 c 1
 748 0 l 1
 75 0 l 1xb6
EndSplineSet
EndChar

StartChar: g
Encoding: 103 103 32
Width: 1195
Flags: MW
HStem: -520 126<535 751.5 535 755.5> 385 117<553 685.5> 1083 126<524 685>
VStem: 107 198<-259 -175.5> 118 190<721.5 890.5> 219 179<170.5 314> 882 186<687.5 863 683 864.5> 974 151
LayerCount: 2
Fore
SplineSet
107 -241 m 0xf1
 107 -110 199 0 337 56 c 1
 251 93 219 145 219 196 c 0xe5
 219 279 296 384 353 414 c 1
 172 474 118 638 118 781 c 0xe9
 118 1000 335 1209 658 1209 c 0
 725 1209 797 1195 861 1165 c 1
 1171 1209 l 1
 1171 1043 l 1
 1007 1040 l 1
 1045 983 1068 909 1068 817 c 0
 1068 549 804 385 567 385 c 0
 539 385 500 385 466 388 c 1
 452 379 398 335 398 293 c 0xe6
 398 200 490 205 734 174 c 1
 969 147 1125 85 1125 -108 c 0
 1125 -356 910 -520 601 -520 c 0
 301 -520 107 -416 107 -241 c 0xf1
613 502 m 0xea
 768 502 882 599 882 776 c 0
 882 953 779 1083 591 1083 c 0
 457 1083 308 1044 308 798 c 0
 308 645 436 502 613 502 c 0xea
305 -194 m 0xf1
 305 -324 442 -394 628 -394 c 0
 875 -394 973 -310 974 -191 c 0
 975 -30 807 -25 436 28 c 1
 336 -29 305 -112 305 -194 c 0xf1
EndSplineSet
EndChar

StartChar: h
Encoding: 104 104 33
Width: 1365
Flags: MW
HStem: 0 102<64 147 80 147 465.5 502 795 826 1187 1219> 1031 178<740 863>
VStem: 222 186<356 906 1017 1197> 968 188<513.5 974.5>
LayerCount: 2
Fore
SplineSet
64 0 m 1
 80 102 l 1
 214 102 222 171 222 356 c 2
 222 1368 l 2
 222 1448 214 1481 193 1505 c 0
 161 1542 87 1537 30 1537 c 1
 42 1649 l 1
 429 1706 l 1
 415 1645 408 1470 408 1197 c 2
 408 1017 l 1
 472 1071 637 1209 843 1209 c 0
 1020 1209 1156 1095 1156 854 c 0
 1156 681 1137 506 1135 321 c 1
 1133 295 1135 272 1135 198 c 0
 1135 110 1165 102 1209 102 c 0
 1229 102 1266 106 1293 111 c 1
 1281 0 l 1
 780 0 l 1
 795 102 l 1
 857 102 918 118 938 188 c 0
 960 265 968 375 968 652 c 0
 968 791 963 1031 763 1031 c 0
 595 1031 470 945 408 906 c 1
 408 207 l 2
 408 118 439 102 492 102 c 0
 512 102 559 104 588 111 c 1
 573 0 l 1
 64 0 l 1
EndSplineSet
EndChar

StartChar: i
Encoding: 105 105 34
Width: 683
Flags: MW
HStem: 0 102<104 191.5 122 191.5 526 577.5> 1189 20G<502 502> 1400 305<330.5 415>
VStem: 221 298<1506 1594> 284 181<190 837>
LayerCount: 2
Fore
SplineSet
374 1400 m 0xf0
 287 1400 221 1464 221 1548 c 0
 221 1640 287 1705 374 1705 c 0
 456 1705 519 1640 519 1548 c 0
 519 1464 456 1400 374 1400 c 0xf0
104 0 m 1
 122 102 l 1
 261 102 284 181 284 312 c 2
 284 837 l 2
 284 1017 233 1031 86 1031 c 1
 102 1155 l 1
 502 1209 l 1
 476 1134 457 912 458 698 c 1
 465 231 l 1xe8
 465 149 485 102 567 102 c 0
 588 102 623 105 642 111 c 1
 629 0 l 1
 104 0 l 1
EndSplineSet
EndChar

StartChar: j
Encoding: 106 106 35
Width: 683
Flags: MW
HStem: -520 21G<103 103> 1189 20G<511 511> 1400 305<343.5 428>
VStem: 103 429<1155 1594> 295 180<525.5 805 518.5 915>
LayerCount: 2
Fore
SplineSet
387 1400 m 0xf0
 300 1400 234 1464 234 1548 c 0
 234 1640 300 1705 387 1705 c 0
 469 1705 532 1640 532 1548 c 0
 532 1464 469 1400 387 1400 c 0xf0
296 254 m 1xe8
 295 209 295 208 295 843 c 0
 295 987 234 1031 87 1031 c 1
 103 1155 l 1
 511 1209 l 1
 484 1139 475 912 475 698 c 0
 475 339 485 283 486 101 c 0xe8
 489 -271 266 -441 103 -520 c 1xf0
 37 -463 l 1
 263 -277 294 -28 296 254 c 1xe8
EndSplineSet
EndChar

StartChar: k
Encoding: 107 107 36
Width: 1193
Flags: MW
HStem: 0 102<63 140.5 79 140.5 455.5 496.5 1136.5 1172.5> 1083 107<682 727.5 1117.5 1160 1160 1183>
VStem: 224 184<312 596 661 1197>
LayerCount: 2
Fore
SplineSet
63 0 m 1
 79 102 l 1
 202 102 224 157 224 312 c 2
 224 1368 l 2
 224 1448 216 1481 195 1505 c 0
 163 1542 89 1537 32 1537 c 1
 44 1649 l 1
 431 1706 l 1
 417 1645 408 1470 408 1197 c 2
 408 661 l 1
 533 754 801 982 801 1035 c 0
 801 1070 785 1083 670 1083 c 1
 682 1190 l 1
 1193 1190 l 1
 1183 1083 l 1
 1160 1083 l 2
 1075 1083 1001 1010 960 973 c 1
 800 850 629 691 586 648 c 1
 586 648 784 410 967 234 c 1
 1039 158 1108 102 1165 102 c 0
 1180 102 1209 106 1220 111 c 1
 1211 0 l 1
 1010 0 l 2
 800 0 533 461 408 596 c 1
 408 235 l 2
 408 116 424 102 487 102 c 0
 506 102 543 106 554 111 c 1
 540 0 l 1
 63 0 l 1
EndSplineSet
EndChar

StartChar: l
Encoding: 108 108 37
Width: 683
Flags: MW
HStem: 0 102<64 151.5 81 151.5 502 555>
VStem: 261 189<236 237 180.5 1368>
LayerCount: 2
Fore
SplineSet
64 0 m 1
 81 102 l 1
 222 102 261 139 261 236 c 2
 261 1368 l 2
 261 1448 253 1481 231 1505 c 1
 200 1542 116 1537 59 1537 c 1
 71 1649 l 1
 468 1706 l 1
 453 1620 447 1559 448 1197 c 2
 450 237 l 2
 450 124 468 102 536 102 c 0
 574 102 626 106 646 111 c 1
 631 0 l 1
 64 0 l 1
EndSplineSet
EndChar

StartChar: m
Encoding: 109 109 38
Width: 2049
Flags: MW
HStem: 0 102<121 190.5 137 190.5 530.5 580 834 864.5 1218.5 1268.5 1523 1548 1881.5 1932.5> 1033 176<772 852.5>
VStem: 283 183<345 842 842 880.5> 990 191<761.5 829> 1663 190<761.5 834>
LayerCount: 2
Fore
SplineSet
121 0 m 1
 137 102 l 1
 244 102 283 167 283 345 c 2
 283 842 l 2
 283 919 269 972 251 998 c 0
 233 1023 192 1039 117 1039 c 1
 132 1155 l 1
 489 1209 l 1
 489 1209 469 1108 469 1027 c 1
 469 1027 680 1209 864 1209 c 0
 1001 1209 1105 1150 1153 1026 c 1
 1198 1066 1372 1210 1535 1209 c 0
 1719 1208 1853 1095 1853 854 c 0
 1853 669 1832 500 1834 300 c 0
 1836 140 1851 102 1912 102 c 0
 1953 102 1976 106 2003 111 c 1
 1989 0 l 1
 1506 0 l 1
 1523 102 l 1
 1573 102 1622 108 1638 177 c 0
 1657 254 1663 428 1663 704 c 0
 1663 964 1627 1032 1433 1032 c 0
 1334 1032 1229 968 1176 930 c 1
 1179 906 1181 881 1181 854 c 0
 1181 669 1158 500 1160 300 c 0
 1162 140 1190 102 1247 102 c 0
 1290 102 1323 105 1349 111 c 1
 1334 0 l 1
 817 0 l 1
 834 102 l 1
 895 102 956 101 972 170 c 0
 990 247 990 367 990 694 c 0
 990 964 955 1033 750 1033 c 0
 623 1033 466 916 466 916 c 1
 466 240 l 2
 466 112 493 102 568 102 c 0
 592 102 621 106 648 111 c 1
 633 0 l 1
 121 0 l 1
EndSplineSet
EndChar

StartChar: n
Encoding: 110 110 39
Width: 1365
Flags: MW
HStem: 0 102<95 164 111 164 500 551 821 852 1202.5 1254> 1031 178<749 863.5>
VStem: 255 186<345 830 830 868.5> 979 186<759.5 801>
LayerCount: 2
Fore
SplineSet
95 0 m 1
 111 102 l 1
 217 102 255 132 255 345 c 2
 255 830 l 2
 255 907 245 964 225 990 c 0
 206 1015 167 1031 91 1031 c 1
 107 1155 l 1
 456 1209 l 1
 456 1209 441 1128 441 1025 c 1
 476 1054 660 1209 838 1209 c 0
 1015 1209 1165 1113 1165 852 c 0
 1165 667 1145 500 1146 300 c 0
 1147 151 1166 102 1239 102 c 0
 1269 102 1297 105 1316 111 c 1
 1302 0 l 1
 802 0 l 1
 821 102 l 1
 883 102 936 111 955 180 c 1
 972 257 979 393 979 670 c 0
 979 932 964 1031 763 1031 c 0
 622 1031 487 944 441 914 c 1
 441 240 l 2
 441 112 459 102 541 102 c 0
 561 102 600 106 622 111 c 1
 606 0 l 1
 95 0 l 1
EndSplineSet
EndChar

StartChar: o
Encoding: 111 111 40
Width: 1365
Flags: MW
HStem: -15 123<578 786 578 805> 1092 117<580 779>
VStem: 121 215 1023 220
LayerCount: 2
Fore
SplineSet
121 595 m 0
 142 978 406 1209 725 1209 c 0
 1071 1209 1261 943 1243 599 c 0
 1223 230 970 -15 640 -15 c 0
 291 -15 103 253 121 595 c 0
693 108 m 0
 879 108 1023 250 1023 566 c 0
 1023 888 888 1092 670 1092 c 0
 490 1092 336 950 336 631 c 0
 336 322 463 108 693 108 c 0
EndSplineSet
EndChar

StartChar: p
Encoding: 112 112 41
Width: 1365
Flags: MW
HStem: -510 108<86 142 86 680 70 142> -510 118<488.5 528 488.5 680> -15 123<659.5 835.5 659.5 868> 1043 166<761 851.5>
VStem: 254 188<212 849 849 939> 1072 195<466 737>
LayerCount: 2
Fore
SplineSet
254 -181 m 2x7c
 254 849 l 2
 254 1029 194 1029 94 1029 c 1
 110 1155 l 1
 447 1209 l 1
 447 1209 439 1134 436 1048 c 1
 537 1138 702 1209 820 1209 c 0
 1026 1209 1267 1072 1267 642 c 0
 1267 290 1041 -15 695 -15 c 0
 581 -15 500 -1 441 16 c 1
 440 -203 442 -243 442 -257 c 0
 442 -373 449 -392 528 -392 c 1
 528 -392 691 -388 697 -384 c 1
 680 -510 l 1
 70 -510 l 1x7c
 86 -402 l 1xbc
 198 -402 254 -385 254 -181 c 2x7c
442 212 m 1
 480 154 608 108 711 108 c 0
 960 108 1072 302 1072 617 c 0
 1072 857 983 1043 720 1043 c 0
 611 1043 467 969 442 942 c 1
 442 212 l 1
EndSplineSet
EndChar

StartChar: q
Encoding: 113 113 42
Width: 1365
Flags: MW
HStem: -511 101<1187 1235.5 1187 1295> -511 109<721 796.5 721 1295 710 796.5> -15 178<595.5 647.5> 1086 123<594 752.5>
VStem: 132 195<432 724.5> 952 185<-228 -45 -45 -45 252 718>
LayerCount: 2
Fore
SplineSet
132 552 m 0x7c
 132 897 393 1209 724 1209 c 0
 843 1209 925 1189 982 1170 c 1
 1150 1209 l 1
 1140 1036 1137 931 1137 718 c 2
 1137 -252 l 2
 1137 -384 1149 -410 1225 -410 c 0xbc
 1246 -410 1280 -407 1308 -402 c 1
 1295 -511 l 1
 710 -511 l 1
 721 -402 l 1
 872 -402 952 -379 952 -228 c 2
 952 -45 l 1
 959 145 l 1
 841 30 707 -15 588 -15 c 0
 362 -15 132 142 132 552 c 0x7c
327 577 m 0
 327 287 483 163 708 163 c 0
 807 163 927 225 952 252 c 1
 952 982 l 1
 916 1040 798 1086 707 1086 c 0
 481 1086 327 951 327 577 c 0
EndSplineSet
EndChar

StartChar: r
Encoding: 114 114 43
Width: 1024
Flags: MW
HStem: 0 102<81 148.5 95 148.5 509.5 580> 1041 168<726 744.5>
VStem: 254 187<334 818 818 856.5> 800 174<911.5 1082.5>
LayerCount: 2
Fore
SplineSet
81 0 m 1
 95 102 l 1
 202 102 254 128 254 334 c 2
 254 818 l 2
 254 895 244 963 224 986 c 0
 189 1026 89 1029 89 1029 c 1
 103 1155 l 1
 454 1209 l 1
 454 1209 440 1125 440 1029 c 1
 494 1088 663 1209 789 1209 c 0
 936 1209 974 1126 974 1039 c 0
 974 922 942 810 942 810 c 1
 788 810 l 1
 788 810 800 896 800 927 c 0
 800 1005 785 1041 704 1041 c 0
 612 1041 485 962 441 918 c 1
 441 245 l 2
 441 117 448 102 571 102 c 0
 589 102 695 106 721 112 c 1
 714 0 l 1
 81 0 l 1
EndSplineSet
EndChar

StartChar: s
Encoding: 115 115 44
Width: 1031
Flags: MW
HStem: -15 117<457.5 604 445.5 632> 33 307<170.5 217> 882 304<747 796 747 846 736 796> 1096 113<451 587.5> 1179 20G
VStem: 139 173 751 183
LayerCount: 2
Fore
SplineSet
133 29 m 1x56
 136 152 138 230 152 340 c 1x56
 268 340 l 1
 275 176 353 102 538 102 c 0
 670 102 752 144 751 267 c 0
 750 406 607 455 479 511 c 0
 323 580 141 668 139 880 c 0
 137 1099 352 1209 550 1209 c 0x96
 633 1209 711 1186 783 1186 c 0xa6
 809 1186 840 1190 876 1199 c 1x8e
 878 1187 880 1126 870 1038 c 1
 863 948 853 926 846 882 c 1xa6
 736 882 l 1
 734 1038 667 1096 508 1096 c 0
 392 1096 311 1044 312 930 c 0
 313 823 424 769 546 712 c 1
 711 642 932 540 934 340 c 0
 936 111 735 -15 529 -15 c 0x96
 386 -15 257 33 177 33 c 0
 164 33 148 32 133 29 c 1x56
EndSplineSet
EndChar

StartChar: t
Encoding: 116 116 45
Width: 852
Flags: MW
HStem: -15 167<517 524> 1040 150<412 790 420 790 420 790>
VStem: 223 189<263.5 352 352 1040>
LayerCount: 2
Fore
SplineSet
223 236 m 1
 223 1040 l 1
 48 1040 l 1
 56 1140 l 1
 254 1174 288 1267 324 1498 c 1
 420 1498 l 1
 420 1190 l 1
 790 1190 l 1
 790 1040 l 1
 412 1040 l 1
 412 352 l 2
 412 175 456 152 578 152 c 0
 655 152 727 180 766 205 c 1
 807 126 l 1
 734 57 584 -15 464 -15 c 0
 302 -15 230 43 223 236 c 1
EndSplineSet
EndChar

StartChar: u
Encoding: 117 117 46
Width: 1365
Flags: MW
HStem: -17 165<533 626> 1189 20G<443 443 1146 1146>
VStem: 224 178<332.5 973> 941 186<264 304 304 782>
LayerCount: 2
Fore
SplineSet
216 333 m 0
 216 518 224 701 224 900 c 0
 224 1046 182 1050 97 1059 c 1
 112 1155 l 1
 443 1209 l 1
 430 1067 402 945 402 439 c 0
 402 226 455 148 611 148 c 0
 762 148 907 221 941 264 c 1
 941 890 l 2
 941 1039 893 1053 756 1055 c 1
 771 1155 l 1
 1146 1209 l 1
 1132 974 1127 989 1127 782 c 2
 1127 304 l 2
 1127 151 1168 160 1222 160 c 0
 1255 160 1296 180 1297 180 c 2
 1294 58 l 1
 1008 -17 l 1
 1008 -17 967 61 954 149 c 1
 907 99 699 -17 553 -17 c 0
 357 -17 216 92 216 333 c 0
EndSplineSet
EndChar

StartChar: v
Encoding: 118 118 47
Width: 1196
Flags: MW
HStem: -17 21G<563 563> 1087 103<5 29 482 482 801.5 844.5>
VStem: -9 1192<1086 1190>
LayerCount: 2
Fore
SplineSet
563 -17 m 1
 563 -17 125 965 120 977 c 0
 86 1053 53 1087 5 1087 c 0
 0 1087 -5 1086 -9 1086 c 1
 5 1190 l 1
 497 1190 l 1
 482 1087 l 1
 472 1085 442 1085 430 1085 c 0
 408 1085 335 1072 335 995 c 0
 335 914 559 437 604 324 c 1
 611 303 614 265 621 246 c 1
 674 378 864 847 884 903 c 0
 896 938 906 978 906 1000 c 0
 906 1042 879 1087 810 1087 c 0
 793 1087 764 1082 751 1081 c 1
 768 1190 l 1
 1183 1190 l 1
 1165 1084 l 1
 1159 1085 1149 1086 1143 1086 c 0
 1099 1086 1069 1009 1026 904 c 0
 998 837 637 1 640 8 c 1
 563 -17 l 1
EndSplineSet
EndChar

StartChar: w
Encoding: 119 119 48
Width: 1877
Flags: MW
HStem: -17 21G<562 562 1261 1261> 1085 104<43 66 459.5 501> 1086 104<1465.5 1504.5 1795.5 1828>
VStem: 28 1844<1085 1190>
LayerCount: 2
Fore
SplineSet
562 -17 m 1xd0
 562 -17 187 971 183 983 c 0
 156 1064 104 1085 28 1085 c 1
 43 1189 l 1
 582 1189 l 1
 563 1079 l 1
 540 1083 510 1085 492 1085 c 0
 427 1085 389 1072 389 1004 c 0
 389 874 518 587 584 400 c 0
 589 386 596 361 604 336 c 0
 609 319 621 263 621 250 c 1
 773 632 850 866 895 1019 c 0
 908 1065 924 1139 929 1172 c 1
 965 1173 1021 1182 1047 1189 c 1xd0
 1090 976 1194 672 1300 382 c 0
 1305 368 1314 343 1322 318 c 0
 1327 301 1339 263 1339 250 c 1
 1558 901 l 2
 1569 933 1576 986 1576 1007 c 0
 1576 1071 1532 1086 1477 1086 c 0
 1454 1086 1440 1083 1417 1080 c 1
 1434 1190 l 1
 1872 1190 l 1
 1854 1082 l 1
 1844 1086 1833 1086 1823 1086 c 0xb0
 1768 1086 1725 996 1685 880 c 1
 1367 0 l 1
 1261 -17 l 1
 1261 -17 1098 446 980 745 c 1
 970 775 963 813 962 846 c 1
 668 0 l 1
 562 -17 l 1xd0
EndSplineSet
EndChar

StartChar: x
Encoding: 120 120 49
Width: 1364
Flags: MW
HStem: 0 102<85 151.5 97 151.5 482 510.5 761 819 1216.5 1242.5> 1085 104<90 109 480.5 546 877.5 931 1220 1256>
VStem: 78 1205<111 1085>
LayerCount: 2
Fore
SplineSet
85 0 m 1
 97 102 l 1
 206 102 222 120 360 303 c 1
 412 370 480 448 574 570 c 1
 479 687 364 828 218 1018 c 0
 183 1065 140 1085 78 1085 c 1
 90 1189 l 1
 600 1189 l 1
 586 1080 l 1
 571 1084 557 1085 535 1085 c 0
 426 1085 435 1020 533 891 c 0
 597 806 649 742 703 677 c 1
 786 775 863 862 910 931 c 0
 970 1020 976 1085 886 1085 c 0
 869 1085 850 1082 825 1080 c 1
 841 1189 l 1
 1272 1189 l 1
 1256 1085 l 1
 1184 1085 1112 1009 1050 929 c 1
 777 589 l 1
 864 486 967 363 1134 151 c 0
 1156 123 1201 102 1232 102 c 0
 1253 102 1274 107 1283 111 c 1
 1269 0 l 1
 749 0 l 1
 749 0 754 57 761 102 c 1
 877 102 918 122 851 215 c 0
 790 300 725 383 646 481 c 1
 565 379 496 274 496 274 c 2
 462 227 417 173 417 144 c 0
 417 115 464 102 500 102 c 0
 521 102 548 105 562 111 c 1
 549 0 l 1
 85 0 l 1
EndSplineSet
EndChar

StartChar: y
Encoding: 121 121 50
Width: 1193
Flags: MW
HStem: -520 192<316.5 407.5> 1082 107<27 51 507 507 856 923>
VStem: 13 1248<1081 1189>
LayerCount: 2
Fore
SplineSet
146 -262 m 1
 213 -299 285 -328 348 -328 c 0
 468 -328 533 -192 574 -87 c 0
 588 -50 602 -17 614 15 c 1
 525 56 l 1
 525 56 180 903 152 976 c 0
 122 1053 75 1082 27 1082 c 0
 22 1082 17 1081 13 1081 c 1
 27 1189 l 1
 521 1189 l 1
 507 1082 l 1
 497 1080 457 1080 445 1080 c 0
 422 1080 360 1071 360 994 c 0
 360 908 576 391 669 158 c 1
 785 461 805 541 944 940 c 1
 964 1012 982 1082 864 1082 c 0
 848 1082 809 1077 796 1076 c 1
 813 1189 l 1
 1261 1189 l 1
 1244 1079 l 1
 1238 1080 1223 1081 1217 1081 c 0
 1173 1081 1142 1010 1098 903 c 1
 956 578 792 66 638 -271 c 0
 568 -423 477 -520 338 -520 c 0
 247 -520 140 -452 82 -372 c 1
 146 -262 l 1
EndSplineSet
EndChar

StartChar: z
Encoding: 122 122 51
Width: 1195
Flags: MW
HStem: 0 112 1073 117<766.5 809> 1090 100<188 1071>
VStem: 124 983<86 384>
LayerCount: 2
Fore
SplineSet
124 86 m 1xd0
 273 302 666 838 809 1073 c 1
 724 1073 559 1080 448 1062 c 0
 335 1044 283 999 269 850 c 1
 153 850 l 1
 188 1190 l 1
 1053 1190 l 1xd0
 1071 1090 l 1xb0
 1071 1090 1036 1049 993 989 c 0
 840 773 537 365 388 112 c 1
 529 113 665 111 794 129 c 0
 883 142 955 190 995 384 c 1
 1107 384 l 1
 1060 0 l 1
 163 0 l 1
 124 86 l 1xd0
EndSplineSet
EndChar

StartChar: X
Encoding: 88 88 52
Width: 1535
Flags: MW
HStem: 0 111<873 989 933 989 1427 1481> 1418 112<72 113.5 587.5 662 1037.5 1076.5 1442.5 1470>
VStem: 35 1488<0 117>
LayerCount: 2
Fore
SplineSet
35 0 m 1
 55 113 l 1
 111 113 184 134 218 172 c 0
 380 360 518 543 670 746 c 1
 305 1236 l 1
 215 1360 166 1418 61 1418 c 1
 72 1530 l 1
 681 1530 l 1
 662 1418 l 1
 513 1418 477 1408 479 1352 c 0
 480 1312 529 1251 605 1149 c 2
 801 888 l 1
 926 1048 1133 1330 1133 1374 c 0
 1133 1411 1105 1418 1048 1418 c 0
 1027 1418 990 1413 962 1408 c 1
 983 1530 l 1
 1490 1530 l 1
 1470 1418 l 1
 1415 1418 1348 1407 1317 1368 c 0
 1188 1208 1010 969 872 794 c 1
 1295 233 l 2
 1342 172 1390 111 1464 111 c 0
 1498 111 1507 113 1523 117 c 1
 1510 0 l 1
 873 0 l 1
 880 115 l 1
 899 113 923 111 943 111 c 0
 1035 111 1064 132 1063 180 c 0
 1062 210 1040 251 1000 305 c 2
 742 650 l 1
 568 420 416 219 415 169 c 0
 414 132 439 113 496 113 c 0
 516 113 555 115 580 119 c 1
 561 0 l 1
 35 0 l 1
EndSplineSet
EndChar

StartChar: J
Encoding: 74 74 53
Width: 855
Flags: MW
HStem: 1418 112<218.5 277.5 659 728>
VStem: 336 203<395 1178 1178 1241>
LayerCount: 2
Fore
SplineSet
79 -314 m 1
 288 -90 336 234 336 395 c 2
 336 1178 l 2
 336 1384 312 1418 243 1418 c 0
 194 1418 144 1415 120 1410 c 0
 118 1410 119 1407 117 1407 c 1
 135 1530 l 1
 743 1530 l 1
 728 1418 l 1
 590 1418 539 1394 539 1241 c 2
 539 331 l 2
 539 72 493 -100 149 -383 c 1
 79 -314 l 1
EndSplineSet
EndChar

StartChar: U
Encoding: 85 85 54
Width: 1537
Flags: MW
HStem: -15 123<677.5 907 677.5 982.5> 1418 112<106 143 508.5 592 1098.5 1149.5 1429.5 1495>
VStem: 201 206<445 646 646 924> 1218 138<636 1194>
LayerCount: 2
Fore
SplineSet
201 617 m 0
 201 1231 200 1268 200 1264 c 1
 199 1417 174 1418 112 1418 c 0
 100 1418 66 1413 42 1408 c 1
 56 1530 l 1
 607 1530 l 1
 592 1418 l 1
 425 1418 407 1395 407 1222 c 2
 407 646 l 2
 407 244 566 108 789 108 c 0
 1025 108 1218 187 1218 636 c 2
 1218 1197 l 2
 1218 1366 1190 1418 1109 1418 c 0
 1088 1418 1056 1414 1031 1408 c 1
 1042 1530 l 1
 1510 1530 l 1
 1495 1418 l 1
 1364 1418 1356 1374 1356 1194 c 2
 1356 610 l 2
 1356 199 1175 -15 790 -15 c 0
 369 -15 201 239 201 617 c 0
EndSplineSet
EndChar

StartChar: Y
Encoding: 89 89 55
Width: 1364
Flags: MW
HStem: 0 105<360 368 368 368 870 954> 1418 112<-35 -2.5 471.5 535 951 1010 1351.5 1410>
VStem: 613 200<279 347 347 533 249.5 533>
LayerCount: 2
Fore
SplineSet
360 0 m 1
 368 105 l 1
 576 102 613 120 613 279 c 2
 613 533 l 1
 131 1331 l 1
 90 1393 45 1418 -50 1418 c 1
 -35 1530 l 1
 561 1530 l 1
 535 1418 l 1
 408 1418 367 1415 367 1347 c 0
 367 1242 553 1000 670 788 c 1
 734 651 l 1
 845 852 1043 1225 1055 1313 c 0
 1062 1358 1058 1418 962 1418 c 0
 940 1418 902 1415 868 1408 c 1
 883 1530 l 1
 1429 1530 l 1
 1410 1418 l 1
 1293 1418 1259 1390 1192 1250 c 1
 813 533 l 1
 813 347 l 2
 813 152 817 105 923 105 c 0
 985 105 1034 112 1055 118 c 1
 1046 0 l 1
 360 0 l 1
EndSplineSet
EndChar

StartChar: Z
Encoding: 90 90 56
Width: 1365
Flags: MW
HStem: 0 111<381 818 818 904 381 1225> 1418 112<527 531 531 989>
VStem: 100 1179<66 417>
LayerCount: 2
Fore
SplineSet
100 66 m 1
 989 1418 l 1
 531 1418 l 2
 345 1418 311 1295 261 1129 c 1
 134 1129 l 1
 159 1222 176 1416 176 1537 c 1
 176 1537 411 1530 527 1530 c 2
 1234 1530 l 1
 1268 1462 l 1
 381 111 l 1
 818 111 l 2
 990 111 1109 196 1167 418 c 1
 1279 417 l 1
 1280 317 1250 155 1225 0 c 1
 143 0 l 1
 100 66 l 1
EndSplineSet
EndChar

StartChar: ampersand
Encoding: 38 38 57
Width: 1881
Flags: MW
HStem: -16 137<796.5 1059.5> 490 123 498 113 813 138<1135.5 1267> 1430 115<816.5 932.5>
VStem: 265 223<385 539> 440 173 1100 161<1181 1421.5> 1426 167
LayerCount: 2
Fore
SplineSet
265 437 m 0xdc80
 265 641 502 837 553 883 c 1
 275 1160 551 1545 929 1545 c 0
 1102 1545 1261 1490 1261 1353 c 0
 1261 1298 1235 1211 1211 1184 c 0
 1196 1168 1100 1174 1100 1188 c 0
 1100 1336 1000 1430 865 1430 c 0
 768 1430 613 1341 613 1216 c 0xbb
 613 1123 679 1024 731 988 c 0
 772 960 769 927 758 920 c 0
 660 856 488 701 488 519 c 0
 488 251 672 121 921 121 c 0
 1212 121 1409 281 1427 489 c 1
 1160 489 850 498 819 498 c 0xbc
 802 498 794 523 794 540 c 0
 794 651 986 951 1285 951 c 0
 1425 951 1594 878 1594 621 c 2
 1594 613 l 1
 1683 615 1759 619 1802 626 c 1
 1814 551 1801 518 1781 500 c 1
 1738 494 1665 491 1578 490 c 1
 1512 216 1245 -16 874 -16 c 0
 478 -16 265 165 265 437 c 0xdc80
980 605 m 1xba80
 992 614 1214 611 1428 611 c 1
 1425 628 l 1
 1413 678 1345 813 1189 813 c 0
 1009 813 980 605 980 605 c 1xba80
EndSplineSet
EndChar

StartChar: exclam
Encoding: 33 33 58
Width: 684
Flags: MW
HStem: -29 312<299.5 383>
VStem: 188 307<84 170.5>
LayerCount: 2
Fore
SplineSet
278 430 m 1
 213 1615 l 1
 239 1653 410 1700 458 1700 c 1
 484 1652 l 1
 402 455 l 1
 352 430 325 432 278 430 c 1
188 127 m 0
 188 214 258 283 341 283 c 0
 425 283 495 214 495 127 c 0
 495 41 425 -29 341 -29 c 0
 258 -29 188 41 188 127 c 0
EndSplineSet
EndChar

StartChar: colon
Encoding: 58 58 59
Width: 512
Flags: MW
HStem: -29 312<213.5 297> 876 312<210.5 294>
VStem: 99 307<989 1075.5> 102 307<84 170.5>
LayerCount: 2
Fore
SplineSet
102 127 m 0x90
 102 214 172 283 255 283 c 0
 339 283 409 214 409 127 c 0
 409 41 339 -29 255 -29 c 0
 172 -29 102 41 102 127 c 0x90
99 1032 m 0x60
 99 1119 169 1188 252 1188 c 0
 336 1188 406 1119 406 1032 c 0
 406 946 336 876 252 876 c 0
 169 876 99 946 99 1032 c 0x60
EndSplineSet
EndChar

StartChar: semicolon
Encoding: 59 59 60
Width: 512
Flags: MW
HStem: -23 21G 876 312<210.5 294>
VStem: 99 307<989 1075.5> 104 314<85.5 148 -6 162.5>
LayerCount: 2
Fore
SplineSet
104 122 m 0x90
 104 203 174 283 263 283 c 0
 355 283 418 204 418 92 c 0
 418 -104 197 -340 150 -340 c 0
 103 -340 63 -293 63 -293 c 1
 110 -244 227 -119 227 -23 c 1
 146 -15 104 49 104 122 c 0x90
99 1032 m 0x60
 99 1119 169 1188 252 1188 c 0
 336 1188 406 1119 406 1032 c 0
 406 946 336 876 252 876 c 0
 169 876 99 946 99 1032 c 0x60
EndSplineSet
EndChar

StartChar: question
Encoding: 63 63 61
Width: 1537
Flags: MW
HStem: -29 312<718.5 802> 460 127<704 868.5> 1619 107<652 816>
VStem: 269 162 555 183<640 792.5 640 798> 607 307<84 170.5> 1020 247<1171.5 1407>
LayerCount: 2
Fore
SplineSet
555 651 m 0xfa
 555 945 1020 1016 1020 1310 c 0
 1020 1504 890 1619 742 1619 c 0
 465 1619 431 1395 431 1283 c 1
 360 1283 284 1296 284 1296 c 1
 265 1381 267 1506 274 1589 c 1
 434 1633 531 1726 773 1726 c 0
 951 1726 1267 1663 1267 1340 c 0
 1267 1003 738 899 738 686 c 0
 738 594 803 587 857 587 c 0
 880 587 899 592 899 592 c 1
 900 469 l 1
 876 462 820 460 761 460 c 0
 647 460 555 531 555 651 c 0xfa
607 127 m 0xf6
 607 214 677 283 760 283 c 0
 844 283 914 214 914 127 c 0
 914 41 844 -29 760 -29 c 0
 677 -29 607 41 607 127 c 0xf6
EndSplineSet
EndChar

StartChar: quotedblleft
Encoding: 8220 8220 62
Width: 1366
Flags: MW
HStem: 1162 685
VStem: 238 335
LayerCount: 2
Fore
SplineSet
403 1162 m 0
 286 1168 232 1263 238 1365 c 0
 252 1602 516 1849 569 1847 c 0
 616 1845 629 1811 629 1811 c 1
 577 1760 445 1586 440 1482 c 1
 522 1470 578 1403 573 1317 c 1
 569 1226 492 1157 403 1162 c 0
902 1162 m 0x00
 785 1168 731 1263 737 1365 c 0
 751 1602 1015 1849 1068 1847 c 0
 1115 1845 1128 1811 1128 1811 c 1
 1076 1760 944 1586 939 1482 c 1
 1021 1470 1077 1403 1072 1317 c 1
 1068 1226 991 1157 902 1162 c 0x00
EndSplineSet
EndChar

StartChar: quotedblright
Encoding: 8221 8221 63
Width: 1366
Flags: MW
HStem: 1063 685
VStem: 293 335
LayerCount: 2
Fore
SplineSet
463 1748 m 0
 580 1742 634 1647 628 1545 c 0
 614 1308 350 1061 297 1063 c 0
 250 1065 237 1099 237 1099 c 1
 289 1150 421 1324 426 1428 c 1
 344 1440 288 1507 293 1593 c 1
 297 1684 374 1753 463 1748 c 0
962 1747 m 0x00
 1079 1741 1133 1646 1127 1544 c 0
 1113 1307 849 1060 796 1062 c 0
 749 1064 736 1098 736 1098 c 1
 788 1149 920 1323 925 1427 c 1
 843 1439 787 1506 792 1592 c 1
 796 1683 873 1752 962 1747 c 0x00
EndSplineSet
EndChar

StartChar: quoteleft
Encoding: 8216 8216 64
Width: 683
Flags: MW
HStem: 1162 685
VStem: 146 335
LayerCount: 2
Fore
SplineSet
311 1162 m 0
 194 1168 140 1263 146 1365 c 0
 160 1602 424 1849 477 1847 c 0
 524 1845 537 1811 537 1811 c 1
 485 1760 353 1586 348 1482 c 1
 430 1470 486 1403 481 1317 c 1
 477 1226 400 1157 311 1162 c 0
EndSplineSet
EndChar

StartChar: quoteright
Encoding: 8217 8217 65
Width: 678
Flags: MW
HStem: 1063 685
VStem: 199 335
LayerCount: 2
Fore
SplineSet
369 1748 m 0
 486 1742 540 1647 534 1545 c 0
 520 1308 256 1061 203 1063 c 0
 156 1065 143 1099 143 1099 c 1
 195 1150 327 1324 332 1428 c 1
 250 1440 194 1507 199 1593 c 1
 203 1684 280 1753 369 1748 c 0
EndSplineSet
EndChar

StartChar: comma
Encoding: 44 44 66
Width: 512
Flags: MW
HStem: -23 21G
VStem: 106 314<85.5 148 -6 162.5>
LayerCount: 2
Fore
SplineSet
106 122 m 0
 106 203 176 283 265 283 c 0
 357 283 420 204 420 92 c 0
 420 -104 199 -340 152 -340 c 0
 105 -340 65 -293 65 -293 c 1
 112 -244 229 -119 229 -23 c 1
 148 -15 106 49 106 122 c 0
EndSplineSet
EndChar

StartChar: period
Encoding: 46 46 67
Width: 512
Flags: MW
HStem: -29 312<213.5 297>
VStem: 102 307<84 170.5>
LayerCount: 2
Fore
SplineSet
102 127 m 0
 102 214 172 283 255 283 c 0
 339 283 409 214 409 127 c 0
 409 41 339 -29 255 -29 c 0
 172 -29 102 41 102 127 c 0
EndSplineSet
EndChar

StartChar: periodcentered
Encoding: 183 183 68
Width: 852
Flags: MW
HStem: 587 332<381 469.5>
VStem: 262 327<707.5 799>
LayerCount: 2
Fore
SplineSet
425 587 m 0
 337 587 262 662 262 753 c 0
 262 845 337 919 425 919 c 0
 514 919 589 845 589 753 c 0
 589 662 514 587 425 587 c 0
EndSplineSet
EndChar

StartChar: bullet
Encoding: 8226 8226 69
Width: 1195
Flags: MW
HStem: 350 544<523.5 669.5>
VStem: 334 527<544 700>
LayerCount: 2
Fore
SplineSet
596 350 m 0
 451 350 334 466 334 622 c 0
 334 778 451 894 596 894 c 0
 743 894 861 778 861 622 c 0
 861 466 743 350 596 350 c 0
EndSplineSet
EndChar

StartChar: paragraph
Encoding: 182 182 70
Width: 1364
Flags: MW
HStem: 1287 119<627.5 986 627.5 830>
VStem: 674 156<-170 511 511 511> 986 156<-170 1077 -170 1287>
LayerCount: 2
Fore
SplineSet
674 -170 m 1
 674 511 l 1
 674 511 659 510 636 510 c 0
 452 510 160 592 160 951 c 0
 160 1402 583 1406 672 1406 c 0
 756 1406 1144 1413 1163 1419 c 1
 1158 1410 1142 1220 1142 1077 c 2
 1142 -170 l 1
 986 -170 l 1
 986 1287 l 1
 830 1287 l 1
 830 -170 l 1
 674 -170 l 1
EndSplineSet
EndChar

StartChar: quotesinglbase
Encoding: 8218 8218 71
Width: 683
Flags: MW
HStem: -346 685
VStem: 201 335
LayerCount: 2
Fore
SplineSet
371 339 m 0
 488 333 542 238 536 136 c 0
 522 -101 258 -348 205 -346 c 0
 158 -344 145 -310 145 -310 c 1
 197 -259 329 -85 334 19 c 1
 252 31 196 98 201 184 c 1
 205 275 282 344 371 339 c 0
EndSplineSet
EndChar

StartChar: exclamdown
Encoding: 161 161 72
Width: 684
Flags: MW
HStem: 1253 312<300 383.5>
VStem: 188 307<1365.5 1452>
LayerCount: 2
Fore
SplineSet
405 1106 m 1
 470 -79 l 1
 444 -117 273 -164 225 -164 c 1
 199 -116 l 1
 281 1081 l 1
 331 1106 358 1104 405 1106 c 1
495 1409 m 0
 495 1322 425 1253 342 1253 c 0
 258 1253 188 1322 188 1409 c 0
 188 1495 258 1565 342 1565 c 0
 425 1565 495 1495 495 1409 c 0
EndSplineSet
EndChar

StartChar: asterisk
Encoding: 42 42 73
Width: 1364
Flags: MW
HStem: 1150 69<608 625> 1199 20G<625 625>
VStem: 639 194<649 794.5>
LayerCount: 2
Fore
SplineSet
231 827 m 0x60
 192 894 202 916 248 943 c 2
 608 1150 l 1
 475 1148 339 1160 245 1215 c 0xa0
 197 1244 132 1291 179 1372 c 0
 217 1439 242 1442 288 1415 c 2
 625 1219 l 1
 569 1335 514 1508 514 1563 c 0
 514 1621 523 1700 617 1700 c 0
 694 1700 707 1681 707 1627 c 0
 710 1417 711 1302 711 1228 c 1
 784 1333 906 1467 954 1494 c 0
 1004 1523 1077 1555 1124 1474 c 0
 1163 1407 1153 1386 1106 1359 c 1
 918 1246 825 1192 761 1156 c 1
 890 1146 1070 1107 1118 1079 c 0
 1168 1051 1232 1003 1186 922 c 0
 1147 855 1124 853 1077 880 c 0
 868 996 766 1054 706 1090 c 1
 775 974 833 850 833 739 c 0
 833 682 824 603 730 603 c 0
 653 603 639 622 639 676 c 2
 642 1096 l 1
 577 977 496 861 400 806 c 0
 351 778 278 746 231 827 c 0x60
EndSplineSet
EndChar

StartChar: questiondown
Encoding: 191 191 74
Width: 1537
Flags: MW
HStem: -177 107<721 885> 962 127<668.5 833> 1266 312<735 818.5>
VStem: 270 247<142 377.5> 623 307<1378.5 1465> 799 183<756.5 909> 1106 162
LayerCount: 2
Fore
SplineSet
982 898 m 0xf6
 982 604 517 533 517 239 c 0
 517 45 647 -70 795 -70 c 0
 1072 -70 1106 154 1106 266 c 1
 1177 266 1253 253 1253 253 c 1
 1272 168 1270 43 1263 -40 c 1
 1103 -84 1006 -177 764 -177 c 0
 586 -177 270 -114 270 209 c 0
 270 546 799 650 799 863 c 0
 799 955 734 962 680 962 c 0
 657 962 638 957 638 957 c 1
 637 1080 l 1
 661 1087 717 1089 776 1089 c 0
 890 1089 982 1018 982 898 c 0xf6
930 1422 m 0xfa
 930 1335 860 1266 777 1266 c 0
 693 1266 623 1335 623 1422 c 0
 623 1508 693 1578 777 1578 c 0
 860 1578 930 1508 930 1422 c 0xfa
EndSplineSet
EndChar

StartChar: onesuperior
Encoding: 185 185 75
Width: 855
Flags: MW
HStem: 715 111<158 265 171 265 171 758>
VStem: 375 188<1084 1332 1332 1383.5>
LayerCount: 2
Fore
SplineSet
158 715 m 1
 171 826 l 1
 265 826 l 1
 389 824 375 845 375 1084 c 2
 375 1332 l 2
 375 1435 360 1472 311 1472 c 0
 267 1472 183 1450 152 1443 c 1
 124 1548 l 1
 590 1668 l 1
 582 1644 575 1617 571 1584 c 0
 568 1554 563 1487 563 1454 c 2
 563 1084 l 2
 563 953 552 823 630 823 c 0
 690 823 737 828 771 836 c 1
 758 715 l 1
 158 715 l 1
EndSplineSet
EndChar

StartChar: twosuperior
Encoding: 178 178 76
Width: 1026
Flags: MW
HStem: 715 135<336 419.5 336 903> 1316 287 1567 100<409.5 532>
VStem: 135 128<1316 1371> 647 210<1274.5 1450>
LayerCount: 2
Fore
SplineSet
111 715 m 1xb8
 89 732 87 781 87 784 c 1
 271 931 647 1120 647 1392 c 0
 647 1508 575 1567 489 1567 c 0xb8
 326 1567 263 1455 263 1316 c 1
 135 1316 l 1xd8
 135 1426 131 1525 131 1606 c 1
 238 1585 304 1667 515 1667 c 0
 705 1667 857 1588 857 1389 c 0
 857 1160 442 902 336 850 c 1
 503 850 579 858 708 872 c 1
 771 886 798 922 813 1006 c 1
 938 1006 l 1
 903 715 l 1
 111 715 l 1xb8
EndSplineSet
EndChar

StartChar: threesuperior
Encoding: 179 179 77
Width: 1031
Flags: MW
HStem: 697 97<440 595.5 440 633.5> 741 250<182 236.5> 1193 20G 1197 20G<682.5 682.5> 1365 261<202 213.5> 1571 99<483.5 576>
VStem: 683 184<1381 1463> 728 198<925.5 1022.5 894.5 1028>
LayerCount: 2
Fore
SplineSet
182 741 m 1x56
 176 792 174 825 174 866 c 0
 174 907 176 955 181 991 c 1x56
 267 991 l 1
 273 856 368 794 512 794 c 0
 679 794 728 880 728 971 c 0x95
 728 1085 657 1150 465 1140 c 0
 458 1140 442 1136 429 1135 c 0
 424 1135 407 1208 407 1220 c 0
 407 1221 407 1222 408 1222 c 0
 602 1232 683 1296 683 1420 c 0
 683 1506 623 1571 529 1571 c 0x96
 405 1571 305 1528 302 1367 c 1
 270 1367 231 1365 196 1365 c 1
 189 1418 185 1461 185 1511 c 0
 185 1545 187 1582 192 1627 c 1x9a
 196 1627 200 1626 204 1626 c 0
 284 1626 421 1670 546 1670 c 0
 728 1670 867 1603 867 1437 c 0x96
 867 1325 799 1256 708 1213 c 1
 868 1183 926 1064 926 981 c 0
 926 808 756 697 511 697 c 0xa5
 347 697 291 741 182 741 c 1x56
682 1217 m 1x96
 683 1217 684 1217 684 1216 c 1
 683 1216 683 1217 682 1217 c 1x96
EndSplineSet
EndChar

StartChar: onequarter
Encoding: 188 188 78
Width: 2219
Flags: MW
HStem: -17 21G<1656 1656> -5 21G<1650 1650> 277 139<1852 2080 1852 2095> 715 111<243 350 256 350 256 843>
VStem: 460 188<1084 1332 1332 1383.5> 1661 191<158 277 89 277 416 862 862 862>
LayerCount: 2
Fore
SplineSet
491 -176 m 1x64
 1590 1900 l 1
 1687 1846 l 1
 588 -230 l 1
 491 -176 l 1x64
1157 390 m 1
 1660 994 l 1
 1712 1000 1797 1013 1852 1020 c 1
 1852 416 l 1
 2095 416 l 1
 2080 277 l 1
 1852 277 l 1
 1852 118 l 2
 1852 60 1854 28 1854 19 c 1
 1795 7 1709 -6 1656 -17 c 1xa4
 1650 -5 l 1
 1650 -5 1661 67 1661 158 c 2
 1661 277 l 1
 1209 277 l 1
 1157 390 l 1
1318 417 m 1
 1661 415 l 1
 1661 862 l 1
 1318 417 l 1
243 715 m 1x18
 256 826 l 1
 350 826 l 1
 474 824 460 845 460 1084 c 2
 460 1332 l 2
 460 1435 445 1472 396 1472 c 0
 352 1472 268 1450 237 1443 c 1
 209 1548 l 1
 675 1668 l 1
 667 1644 660 1617 656 1584 c 0
 653 1554 648 1487 648 1454 c 2
 648 1084 l 2
 648 953 637 823 715 823 c 0
 775 823 822 828 856 836 c 1
 843 715 l 1
 243 715 l 1x18
EndSplineSet
EndChar

StartChar: onehalf
Encoding: 189 189 79
Width: 2219
Flags: MW
HStem: -230 2130<588 1590> 3 135<1519 1602.5 1519 2086> 604 287 855 100<1592.5 1715>
VStem: 491 1196 1318 128<604 659> 1830 210<562.5 738>
LayerCount: 2
Fore
SplineSet
491 -176 m 1x88
 1590 1900 l 1
 1687 1846 l 1
 588 -230 l 1
 491 -176 l 1x88
1294 3 m 1x00
 1272 20 1270 69 1270 72 c 1
 1454 219 1830 408 1830 680 c 0
 1830 796 1758 855 1672 855 c 0x66
 1509 855 1446 743 1446 604 c 1
 1318 604 l 1x56
 1318 714 1314 813 1314 894 c 1
 1421 873 1487 955 1698 955 c 0
 1888 955 2040 876 2040 677 c 0
 2040 448 1625 190 1519 138 c 1
 1686 138 1762 146 1891 160 c 1
 1954 174 1981 210 1996 294 c 1
 2121 294 l 1
 2086 3 l 1
 1294 3 l 1x00
238 715 m 1x56
 251 826 l 1
 345 826 l 1
 469 824 455 845 455 1084 c 2
 455 1332 l 2
 455 1435 440 1472 391 1472 c 0
 347 1472 263 1450 232 1443 c 1
 204 1548 l 1
 670 1668 l 1
 662 1644 655 1617 651 1584 c 0
 648 1554 643 1487 643 1454 c 2
 643 1084 l 2
 643 953 632 823 710 823 c 0
 770 823 817 828 851 836 c 1
 838 715 l 1
 238 715 l 1x56
EndSplineSet
EndChar

StartChar: threequarters
Encoding: 190 190 80
Width: 2219
Flags: MW
HStem: -17 21G<1656 1656> -5 21G<1650 1650> 277 139<1852 2080 1852 2095> 697 97<436 591.5 436 629.5> 741 250<178 232.5> 1193 20G 1197 20G<678.5 678.5> 1365 261<198 209.5> 1571 99<479.5 572>
VStem: 679 184<1381 1463> 724 198<925.5 1022.5 894.5 1028> 1661 191<158 277 89 277 416 862 862 862>
LayerCount: 2
Fore
SplineSet
491 -176 m 1x6010
 1590 1900 l 1
 1687 1846 l 1
 588 -230 l 1
 491 -176 l 1x6010
1157 390 m 1
 1660 994 l 1
 1712 1000 1797 1013 1852 1020 c 1
 1852 416 l 1
 2095 416 l 1
 2080 277 l 1
 1852 277 l 1
 1852 118 l 2
 1852 60 1854 28 1854 19 c 1
 1795 7 1709 -6 1656 -17 c 1xa010
 1650 -5 l 1
 1650 -5 1661 67 1661 158 c 2
 1661 277 l 1
 1209 277 l 1
 1157 390 l 1
1318 417 m 1
 1661 415 l 1
 1661 862 l 1
 1318 417 l 1
178 741 m 1x00
 172 792 170 825 170 866 c 0
 170 907 172 955 177 991 c 1x12a0
 263 991 l 1
 269 856 364 794 508 794 c 0
 675 794 724 880 724 971 c 0x12c0
 724 1085 653 1150 461 1140 c 0
 454 1140 438 1136 425 1135 c 0
 420 1135 403 1208 403 1220 c 0
 403 1221 403 1222 404 1222 c 0
 598 1232 679 1296 679 1420 c 0
 679 1506 619 1571 525 1571 c 0x1340
 401 1571 301 1528 298 1367 c 1
 266 1367 227 1365 192 1365 c 1
 185 1418 181 1461 181 1511 c 0
 181 1545 183 1582 188 1627 c 1x12c0
 192 1627 196 1626 200 1626 c 0
 280 1626 417 1670 542 1670 c 0
 724 1670 863 1603 863 1437 c 0x14a0
 863 1325 795 1256 704 1213 c 1
 864 1183 922 1064 922 981 c 0
 922 808 752 697 507 697 c 0x0ac0
 343 697 287 741 178 741 c 1x00
678 1217 m 1x0ac0
 679 1217 680 1217 680 1216 c 1
 679 1216 679 1217 678 1217 c 1x0ac0
EndSplineSet
EndChar

StartChar: Eth
Encoding: 208 208 81
Width: 1539
Flags: MW
HStem: -15 126<670.5 896 611 944> -1 107 702 147<-14 279 -14 279 482 747> 1419 111<151 200.5> 1433 112<643.5 837>
VStem: 279 203<285 702 849 1230 1230 1303.5> 1264 226<560.5 1025>
LayerCount: 2
Fore
SplineSet
98 0 m 1x6e
 105 106 l 1
 217 106 279 135 279 285 c 2
 279 702 l 1
 -14 702 l 1
 -14 849 l 1
 279 849 l 1
 279 1230 l 2
 279 1377 239 1419 162 1419 c 0
 140 1419 119 1417 97 1410 c 1
 107 1530 l 1
 353 1530 l 2x76
 483 1530 568 1545 719 1545 c 0
 1229 1545 1490 1299 1490 809 c 0
 1490 312 1180 -15 708 -15 c 0xae
 633 -15 446 -1 373 -1 c 2
 98 0 l 1x6e
482 207 m 2xae
 482 116 477 111 745 111 c 0
 1047 111 1264 302 1264 763 c 0
 1264 1287 1016 1433 658 1433 c 0
 601 1433 537 1425 482 1412 c 1
 482 849 l 1
 747 849 l 1
 747 702 l 1
 482 702 l 1
 482 207 l 2xae
EndSplineSet
EndChar

StartChar: guillemotleft
Encoding: 171 171 82
Width: 1705
Flags: MW
HStem: 70 1049<775 778 778 1326>
VStem: 271 612<150 600> 822 612<150 600>
LayerCount: 2
Fore
SplineSet
271 600 m 1xc0
 778 1119 l 1
 883 1049 l 1
 577 600 l 1
 883 150 l 1
 775 70 l 1
 271 600 l 1xc0
822 600 m 1xa0
 1329 1119 l 1
 1434 1049 l 1
 1128 600 l 1
 1434 150 l 1
 1326 70 l 1
 822 600 l 1xa0
EndSplineSet
EndChar

StartChar: guillemotright
Encoding: 187 187 83
Width: 1705
Flags: MW
HStem: 70 1049<376 379 376 930>
VStem: 271 612<150 600 600 1049> 822 612<150 600 600 1049>
LayerCount: 2
Fore
SplineSet
376 1119 m 1xc0
 883 600 l 1
 379 70 l 1
 271 150 l 1
 577 600 l 1
 271 1049 l 1
 376 1119 l 1xc0
927 1119 m 1
 1434 600 l 1xa0
 930 70 l 1
 822 150 l 1
 1128 600 l 1
 822 1049 l 1
 927 1119 l 1
EndSplineSet
EndChar

StartChar: greater
Encoding: 62 62 84
Width: 1364
Flags: MW
HStem: 132 935<210 210>
VStem: 210 948<132 644 304 644 561 1067 561 1067>
LayerCount: 2
Fore
SplineSet
1158 644 m 1
 1158 561 l 1
 210 132 l 1
 210 304 l 1
 867 597 l 1
 210 895 l 1
 210 1067 l 1
 1158 644 l 1
EndSplineSet
EndChar

StartChar: plus
Encoding: 43 43 85
Width: 1193
Flags: MW
HStem: 508 159<154 510 174 510 174 510 682 1019>
VStem: 510 172<170 508 170 508 667 1030>
LayerCount: 2
Fore
SplineSet
154 508 m 1
 174 667 l 1
 510 667 l 1
 510 1030 l 1
 682 1030 l 1
 682 667 l 1
 1039 667 l 1
 1019 508 l 1
 682 508 l 1
 682 170 l 1
 510 170 l 1
 510 508 l 1
 154 508 l 1
EndSplineSet
EndChar

StartChar: plusminus
Encoding: 177 177 86
Width: 1370
Flags: MW
HStem: 11 159<159 510 179 510 682 1013> 508 159<174 510 174 510 154 510 682 1019>
VStem: 510 172<170 508 170 508 667 1030>
LayerCount: 2
Fore
SplineSet
159 11 m 1
 179 170 l 1
 510 170 l 1
 510 508 l 1
 154 508 l 1
 174 667 l 1
 510 667 l 1
 510 1030 l 1
 682 1030 l 1
 682 667 l 1
 1039 667 l 1
 1019 508 l 1
 682 508 l 1
 682 170 l 1
 1033 170 l 1
 1013 11 l 1
 159 11 l 1
EndSplineSet
EndChar

StartChar: hyphen
Encoding: 45 45 87
Width: 1031
Flags: MW
HStem: 508 159<162 869 182 849>
VStem: 162 707<508 667>
LayerCount: 2
Fore
SplineSet
162 508 m 1
 182 667 l 1
 869 667 l 1
 849 508 l 1
 162 508 l 1
EndSplineSet
EndChar

StartChar: equal
Encoding: 61 61 88
Width: 1364
Flags: MW
HStem: 340 159<191 1168 211 1148> 681 159<195 1172 215 1152>
VStem: 191 981<340 840>
LayerCount: 2
Fore
SplineSet
195 681 m 1
 215 840 l 1
 1172 840 l 1
 1152 681 l 1
 195 681 l 1
191 340 m 1
 211 499 l 1
 1168 499 l 1
 1148 340 l 1
 191 340 l 1
EndSplineSet
EndChar

StartChar: multiply
Encoding: 215 215 89
Width: 1193
Flags: MW
HStem: 234 725<836 840>
VStem: 232 729<332 851>
LayerCount: 2
Fore
SplineSet
254 351 m 1
 486 591 l 1
 232 851 l 1
 356 949 l 1
 595 705 l 1
 840 959 l 1
 958 849 l 1
 708 590 l 1
 961 332 l 1
 836 234 l 1
 598 476 l 1
 371 241 l 1
 254 351 l 1
EndSplineSet
EndChar

StartChar: ordfeminine
Encoding: 170 170 90
Width: 1026
Flags: MW
HStem: 679 129<430.5 444> 1183 81 1593 106<472 532.5>
VStem: 124 212<923 1035 923 1054.5> 164 194 663 182<882 897 897 1002 877.5 1183 877.5 1183>
LayerCount: 2
Fore
SplineSet
414 679 m 0xf4
 238 679 124 787 124 949 c 0xf4
 124 1160 377 1262 661 1264 c 1
 659 1340 657 1403 657 1443 c 0
 654 1574 562 1593 503 1593 c 0
 383 1593 340 1540 364 1418 c 1
 185 1418 l 1
 185 1418 175 1455 169 1506 c 0
 162 1558 164 1564 168 1569 c 1xec
 215 1597 374 1699 570 1699 c 0
 708 1699 857 1644 857 1462 c 0
 857 1335 845 1069 845 935 c 0
 845 820 931 800 983 800 c 1
 965 738 907 701 865 679 c 1
 797 679 727 712 690 781 c 1
 607 719 474 679 414 679 c 0xf4
471 808 m 0
 532 808 607 840 663 882 c 1
 663 897 l 1
 665 995 664 1094 663 1183 c 1
 656 1183 l 2
 486 1183 336 1102 336 968 c 0
 336 878 390 808 471 808 c 0
EndSplineSet
EndChar

StartChar: ordmasculine
Encoding: 186 186 91
Width: 1026
Flags: MW
HStem: 680 105<436 604 436 635.5> 1597 102<427 505>
VStem: 109 210 707 210
LayerCount: 2
Fore
SplineSet
505 680 m 0
 232 680 104 873 109 1181 c 0
 114 1488 264 1699 526 1699 c 0
 798 1699 922 1504 917 1196 c 0
 912 889 766 680 505 680 c 0
526 785 m 0
 682 785 704 912 707 1162 c 0
 709 1368 685 1594 505 1597 c 1
 349 1597 322 1465 319 1215 c 0
 317 1009 346 785 526 785 c 0
EndSplineSet
EndChar

StartChar: divide
Encoding: 247 247 92
Width: 1193
Flags: MW
HStem: -29 312<559.5 643> 508 159<163 1030 182 1011> 876 312<559.5 643>
VStem: 163 867<508 667> 448 307<84 170.5 989 1075.5>
LayerCount: 2
Fore
SplineSet
163 508 m 1x50
 182 667 l 1
 1030 667 l 1
 1011 508 l 1
 163 508 l 1x50
448 1032 m 0x28
 448 1119 518 1188 601 1188 c 0
 685 1188 755 1119 755 1032 c 0
 755 946 685 876 601 876 c 0
 518 876 448 946 448 1032 c 0x28
448 127 m 0x88
 448 214 518 283 601 283 c 0
 685 283 755 214 755 127 c 0
 755 41 685 -29 601 -29 c 0
 518 -29 448 41 448 127 c 0x88
EndSplineSet
EndChar

StartChar: mu
Encoding: 181 181 93
AltUni2: 0003bc.ffffffff.0
Width: 1537
Flags: MW
HStem: -42 183<1063.5 1244.5> -37 154<559 668.5> 1170 20G<488 488 1169 1169>
VStem: 249 256<-280 -268 -337 400> 252 205 952 202<274 282 282 663>
LayerCount: 2
Fore
SplineSet
249 -280 m 2x6c
 249 400 l 2
 249 561 252 709 252 886 c 0
 252 1093 209 1137 209 1137 c 1
 488 1190 l 1
 465 950 457 569 457 407 c 0
 457 233 478 117 640 117 c 0x6c
 787 117 891 202 952 274 c 1
 952 876 l 2
 952 1093 913 1137 913 1137 c 1
 1169 1190 l 1
 1156 936 1154 838 1154 663 c 2
 1154 282 l 2
 1154 162 1181 141 1214 141 c 0
 1275 141 1332 171 1369 213 c 1
 1427 151 l 1
 1340 12 1199 -42 1105 -42 c 0xac
 1022 -42 971 15 962 152 c 1
 910 65 737 -37 600 -37 c 0
 510 -37 433 -11 374 36 c 1
 398 -101 439 -207 505 -268 c 1x74
 505 -406 441 -477 393 -477 c 0
 346 -477 249 -400 249 -280 c 2x6c
EndSplineSet
EndChar

StartChar: endash
Encoding: 8211 8211 94
Width: 1533
Flags: MW
HStem: 508 159<175 1360 195 1340>
VStem: 175 1185<508 667>
LayerCount: 2
Fore
SplineSet
175 508 m 1
 195 667 l 1
 1360 667 l 1
 1340 508 l 1
 175 508 l 1
EndSplineSet
EndChar

StartChar: emdash
Encoding: 8212 8212 95
Width: 2383
Flags: MW
HStem: 508 159<184 2210 203 2191>
VStem: 184 2026<508 667>
LayerCount: 2
Fore
SplineSet
184 508 m 1
 203 667 l 1
 2210 667 l 1
 2191 508 l 1
 184 508 l 1
EndSplineSet
EndChar

StartChar: numbersign
Encoding: 35 35 96
Width: 1537
Flags: MW
HStem: 602 127<152 416 130 440 152 551 574 862> 1062 126<220 502 199 525 220 636 659 947 1105 1386>
VStem: 130 1276<602 1188>
LayerCount: 2
Fore
SplineSet
357 282 m 1
 416 602 l 1
 130 602 l 1
 152 729 l 1
 440 729 l 1
 502 1062 l 1
 199 1062 l 1
 220 1188 l 1
 525 1188 l 1
 589 1530 l 1
 722 1530 l 1
 659 1188 l 1
 971 1188 l 1
 1034 1530 l 1
 1168 1530 l 1
 1105 1188 l 1
 1406 1188 l 1
 1386 1062 l 1
 1081 1062 l 1
 1020 729 l 1
 1335 729 l 1
 1316 603 l 1
 996 602 l 1
 937 282 l 1
 803 282 l 1
 862 602 l 1
 551 602 l 1
 492 282 l 1
 357 282 l 1
574 729 m 1
 886 729 l 1
 947 1062 l 1
 636 1062 l 1
 574 729 l 1
EndSplineSet
EndChar

StartChar: percent
Encoding: 37 37 97
Width: 2216
Flags: MW
HStem: -15 91 0 21G<675 675 675 820> 663 91 779 88<1618 1735> 1457 88<527.5 644.5>
VStem: 156 195 777 193<992 1189.5> 1247 195 1867 194<314 511.5>
LayerCount: 2
Fore
SplineSet
675 0 m 1x7f80
 1432 1670 l 1
 1577 1670 l 1
 820 0 l 1
 675 0 l 1x7f80
516 663 m 1
 316 666 152 814 156 1073 c 1
 162 1328 351 1545 608 1545 c 0
 811 1545 970 1339 970 1136 c 0
 970 824 762 656 516 663 c 1
563 754 m 0
 692 754 777 891 777 1093 c 0
 777 1286 707 1457 582 1457 c 0
 473 1457 356 1362 351 1124 c 0
 347 896 436 754 563 754 c 0
1247 395 m 1x9f80
 1253 650 1442 867 1699 867 c 0
 1902 867 2061 661 2061 458 c 0
 2061 146 1853 -22 1607 -15 c 1
 1407 -12 1242 136 1247 395 c 1x9f80
1442 446 m 0
 1437 218 1526 76 1654 76 c 0
 1783 76 1867 213 1867 415 c 0
 1867 608 1798 779 1672 779 c 0
 1564 779 1447 684 1442 446 c 0
EndSplineSet
EndChar

StartChar: quotesingle
Encoding: 39 39 98
Width: 683
Flags: MW
HStem: 1218 652<277 277 277 406>
VStem: 213 257<1870 1870>
LayerCount: 2
Fore
SplineSet
277 1218 m 1
 213 1870 l 1
 470 1870 l 1
 406 1218 l 1
 277 1218 l 1
EndSplineSet
EndChar

StartChar: quotedbl
Encoding: 34 34 99
Width: 1194
Flags: MW
HStem: 1218 652<313 313 313 442 752 752 752 881>
VStem: 249 696<1870 1870>
LayerCount: 2
Fore
SplineSet
752 1218 m 1
 688 1870 l 1
 945 1870 l 1
 881 1218 l 1
 752 1218 l 1
313 1218 m 1
 249 1870 l 1
 506 1870 l 1
 442 1218 l 1
 313 1218 l 1
EndSplineSet
EndChar

StartChar: guilsinglright
Encoding: 8250 8250 100
Width: 1193
Flags: MW
HStem: 70 1049<427 430>
VStem: 322 612<140 589 589 1039>
LayerCount: 2
Fore
SplineSet
934 589 m 1
 427 70 l 1
 322 140 l 1
 628 589 l 1
 322 1039 l 1
 430 1119 l 1
 934 589 l 1
EndSplineSet
EndChar

StartChar: guilsinglleft
Encoding: 8249 8249 101
Width: 1193
Flags: MW
HStem: 70 1049<739 742>
VStem: 235 612<150 600>
LayerCount: 2
Fore
SplineSet
235 600 m 1
 742 1119 l 1
 847 1049 l 1
 541 600 l 1
 847 150 l 1
 739 70 l 1
 235 600 l 1
EndSplineSet
EndChar

StartChar: degree
Encoding: 176 176 102
Width: 1193
Flags: MW
HStem: 850 127<519.5 672.5 519.5 711> 1573 127<519.5 672.5>
VStem: 169 143<1188.5 1361.5 1188.5 1392.5> 880 142<1188.5 1361.5>
LayerCount: 2
Fore
SplineSet
596 850 m 0
 366 850 169 1040 169 1275 c 0
 169 1510 366 1700 596 1700 c 0
 826 1700 1022 1510 1022 1275 c 0
 1022 1040 826 850 596 850 c 0
596 977 m 0
 749 977 880 1102 880 1275 c 0
 880 1448 749 1573 596 1573 c 0
 443 1573 312 1448 312 1275 c 0
 312 1102 443 977 596 977 c 0
EndSplineSet
EndChar

StartChar: logicalnot
Encoding: 172 172 103
Width: 1193
Flags: MW
HStem: 508 159<164 1021 183 841>
VStem: 841 180<138 508 508 508>
LayerCount: 2
Fore
SplineSet
164 508 m 1
 183 667 l 1
 1021 667 l 1
 1021 138 l 1
 841 138 l 1
 841 508 l 1
 164 508 l 1
EndSplineSet
EndChar

StartChar: slash
Encoding: 47 47 104
Width: 1023
Flags: MW
HStem: 0 21G<70 70 70 214>
VStem: 70 882
LayerCount: 2
Fore
SplineSet
70 0 m 1
 807 1670 l 1
 952 1670 l 1
 214 0 l 1
 70 0 l 1
EndSplineSet
EndChar

StartChar: backslash
Encoding: 92 92 105
Width: 1023
Flags: MW
HStem: 0 21G<808 952 808 808>
VStem: 70 882
LayerCount: 2
Fore
SplineSet
215 1670 m 1
 952 0 l 1
 808 0 l 1
 70 1670 l 1
 215 1670 l 1
EndSplineSet
EndChar

StartChar: bar
Encoding: 124 124 106
Width: 855
Flags: MW
HStem: -340 2210<357 497 357 497>
VStem: 357 140<-340 1870 -340 1870>
LayerCount: 2
Fore
SplineSet
357 -340 m 1
 357 1870 l 1
 497 1870 l 1
 497 -340 l 1
 357 -340 l 1
EndSplineSet
EndChar

StartChar: brokenbar
Encoding: 166 166 107
Width: 855
Flags: MW
HStem: -340 2210<357 497 357 497>
VStem: 357 140<-340 612 -340 612 906 1870>
LayerCount: 2
Fore
SplineSet
357 906 m 1
 357 1870 l 1
 497 1870 l 1
 497 906 l 1
 357 906 l 1
357 -340 m 1
 357 612 l 1
 497 612 l 1
 497 -340 l 1
 357 -340 l 1
EndSplineSet
EndChar

StartChar: dollar
Encoding: 36 36 108
Width: 1364
Flags: MW
HStem: -14 21G<725 725> -11 21G<587 587> 35 54 1438 79
VStem: 189 129<457 457> 194 193 579 207 650 67 1006 208 1039 132<1112 1528>
LayerCount: 2
Fore
SplineSet
180 30 m 1x7a80
 189 136 190 341 189 457 c 1
 318 457 l 1x7980
 333 266 387 89 668 89 c 0
 905 89 1011 187 1006 369 c 0
 1001 541 810 611 600 696 c 1
 392 779 198 912 194 1130 c 1
 188 1353 369 1517 647 1541 c 1
 653 1772 l 1x7580
 790 1772 l 1
 783 1541 l 1
 895 1531 1039 1500 1171 1528 c 1
 1171 1112 l 1
 1039 1112 l 1x7640
 1033 1355 923 1438 707 1438 c 0
 442 1438 382 1310 387 1175 c 0
 392 1036 571 937 736 872 c 1
 1008 762 1210 643 1214 423 c 0
 1218 147 1030 1 725 -14 c 1
 710 -236 l 1xb580
 571 -236 l 1
 587 -11 l 1
 442 3 322 53 180 30 c 1x7a80
EndSplineSet
EndChar

StartChar: sterling
Encoding: 163 163 109
Width: 1535
Flags: MW
HStem: -40 146<1011.5 1107.5> 103 127<467.5 770.5> 718 122 721 114 1460 113
VStem: 353 195<1144 1229.5> 519 199<454 529> 1201 175<184.5 249>
LayerCount: 2
Fore
SplineSet
163 109 m 1x9d
 222 139 288 164 331 193 c 1
 432 254 519 342 519 505 c 0
 519 553 489 630 454 718 c 1xab
 363 716 273 711 184 704 c 1
 212 844 l 1
 278 841 344 838 410 837 c 1xad
 378 926 353 1018 353 1100 c 0
 353 1359 542 1573 860 1573 c 0
 900 1573 942 1569 987 1562 c 0
 1151 1536 1223 1472 1223 1390 c 0
 1223 1337 1197 1244 1159 1214 c 1
 1050 1214 l 1
 1050 1305 1016 1463 787 1460 c 0
 689 1459 548 1353 548 1211 c 0
 548 1077 600 957 647 835 c 1x9d
 795 835 945 837 1095 844 c 1
 1067 704 l 1
 938 713 812 719 687 721 c 1
 705 660 718 597 718 531 c 0
 718 377 587 252 469 170 c 1
 517 192 598 230 681 230 c 0x5b
 860 230 929 106 1094 106 c 0
 1156 106 1201 162 1201 207 c 0
 1201 291 1138 421 1138 421 c 1
 1238 471 l 1
 1238 471 1376 388 1376 282 c 0x9d
 1376 87 1227 -40 988 -40 c 0
 798 -40 715 103 537 103 c 0x5d
 398 103 236 -30 236 -30 c 1
 220 -41 156 64 163 109 c 1x9d
EndSplineSet
EndChar

StartChar: yen
Encoding: 165 165 110
Width: 1625
Flags: MW
HStem: 0 103<1057 1067 1057 1165> 0 109 360 140<377 405> 376 115<714 714> 691 111 1418 112<67 99.5 609.5 682 1065 1124 1465.5 1524>
VStem: 715 218<173 238 238 241>
LayerCount: 2
Fore
SplineSet
473 0 m 1x5e
 482 112 l 1
 629 109 715 82 715 241 c 1
 714 376 l 1
 600 374 488 368 377 360 c 1
 405 500 l 1
 507 495 610 492 714 491 c 1x5e
 713 691 l 1
 595 692 471 692 364 684 c 1
 392 824 l 1
 470 820 549 810 628 802 c 1
 490 982 382 1159 239 1348 c 0
 194 1407 147 1418 52 1418 c 1
 67 1530 l 1
 708 1530 l 1
 682 1418 l 1
 537 1418 491 1411 491 1347 c 0
 491 1262 650 1053 797 841 c 1
 824 791 l 1
 945 992 1119 1225 1131 1313 c 0
 1138 1358 1172 1418 1076 1418 c 0
 1054 1418 1016 1415 982 1408 c 1
 997 1530 l 1
 1543 1530 l 1
 1524 1418 l 1
 1407 1418 1333 1390 1266 1250 c 1
 978 797 l 1
 1099 805 1231 819 1335 824 c 1
 1307 684 l 1
 1189 692 1055 692 933 691 c 1
 933 491 l 1
 1050 492 1169 494 1288 500 c 1
 1260 360 l 1x6e
 1149 368 1040 373 933 376 c 1
 933 238 l 2
 933 108 933 99 1057 103 c 0
 1077 103 1153 106 1175 112 c 1x9e
 1165 0 l 1
 473 0 l 1x5e
EndSplineSet
EndChar

StartChar: at
Encoding: 64 64 111
Width: 2048
Flags: MW
HStem: -171 129<820.5 1092.5 820.5 1150.5> 226 138 245 158<876 885.5> 1066 121 1442 123<872 1320>
VStem: 138 178<624 624> 558 201 1153 175 1725 178<835 1108.5>
LayerCount: 2
Fore
SplineSet
138 624 m 0xdf80
 148 1145 535 1565 1128 1565 c 0
 1638 1565 1903 1309 1903 990 c 0
 1903 627 1713 221 1324 226 c 0xdf80
 1253 227 1165 269 1139 360 c 1
 1057 298 948 245 823 245 c 0xbf80
 714 245 543 355 558 582 c 1
 580 954 863 1187 1109 1187 c 0
 1201 1187 1292 1136 1311 1121 c 1
 1357 1126 1488 1142 1492 1149 c 1
 1497 1155 1393 751 1350 583 c 1
 1309 393 1327 364 1393 364 c 0
 1639 364 1725 707 1725 963 c 0
 1725 1254 1522 1442 1118 1442 c 0
 626 1442 327 1096 316 625 c 1
 307 181 616 -42 1025 -42 c 0
 1160 -42 1471 -22 1627 116 c 1
 1669 95 1698 51 1666 26 c 0
 1496 -106 1276 -171 1025 -171 c 0
 556 -171 126 19 138 624 c 0xdf80
759 600 m 1xbf80
 753 479 835 403 917 403 c 0
 1022 403 1093 439 1136 474 c 1
 1142 528 1153 581 1153 581 c 1
 1273 1043 l 1
 1232 1060 1170 1072 1082 1066 c 0
 978 1058 772 922 759 600 c 1xbf80
EndSplineSet
EndChar

StartChar: asciicircum
Encoding: 94 94 112
Width: 1364
Flags: MW
HStem: 563 968<364 788 585 978>
VStem: 202 959<564 564>
LayerCount: 2
Fore
SplineSet
202 564 m 1
 585 1531 l 1
 788 1531 l 1
 1161 564 l 1
 978 563 l 1
 677 1346 l 1
 364 563 l 1
 202 564 l 1
EndSplineSet
EndChar

StartChar: underscore
Encoding: 95 95 113
Width: 1533
Flags: MW
HStem: -312 142<-12 1538 -31 1557>
VStem: -31 1588<-312 -170>
LayerCount: 2
Fore
SplineSet
-12 -170 m 1
 1557 -170 l 1
 1538 -312 l 1
 -31 -312 l 1
 -12 -170 l 1
EndSplineSet
EndChar

StartChar: section
Encoding: 167 167 114
Width: 1320
Flags: MW
HStem: -158 87 1601 86
VStem: 199 174 235 184<1304.5 1431 1304.5 1441> 896 183<88 214.5> 935 184
LayerCount: 2
Fore
SplineSet
256 -161 m 1xd8
 289 199 l 1
 390 207 l 1
 417 1 469 -71 629 -71 c 0
 849 -71 896 25 896 141 c 0
 896 288 807 357 671 403 c 0
 432 483 243 524 203 745 c 1xe8
 182 872 253 989 347 1059 c 1
 279 1132 235 1225 235 1334 c 0
 235 1548 433 1701 688 1701 c 0
 784 1701 902 1679 1057 1690 c 1
 1025 1330 l 1
 925 1322 l 1
 899 1528 846 1601 685 1601 c 0
 465 1601 419 1474 419 1388 c 0
 419 1221 511 1156 646 1111 c 0
 886 1032 1075 991 1115 770 c 1xd4
 1137 636 1066 533 960 466 c 1
 1032 396 1079 307 1079 195 c 0
 1079 -19 882 -172 626 -172 c 0
 530 -172 412 -150 256 -161 c 1xd8
376 835 m 0
 408 684 578 671 760 594 c 0
 794 579 827 563 858 544 c 1
 911 577 947 613 931 679 c 0xd4
 898 816 739 850 558 920 c 0
 517 935 478 955 442 979 c 1
 398 942 362 897 376 835 c 0
EndSplineSet
EndChar

StartChar: Euro
Encoding: 8364 8364 115
Width: 1535
Flags: MW
HStem: -15 113<841 1013> 534 126 540 114<488 506 488 488> 871 131 884 114<537 573 573 624.5> 1432 113<825.5 1079.5>
VStem: 230 230<657 820> 1261 173<1190 1424> 1289 133<91.5 340>
LayerCount: 2
Fore
SplineSet
67 523 m 1xce80
 95 663 l 1
 230 657 l 1
 227 693 225 729 225 768 c 0
 225 804 227 840 230 875 c 1
 191 873 152 870 113 867 c 1
 141 1007 l 1
 178 1005 215 1003 253 1002 c 1xd6
 340 1343 624 1545 1011 1545 c 0
 1164 1545 1434 1486 1434 1362 c 0
 1434 1309 1410 1220 1372 1190 c 1
 1261 1190 l 1
 1261 1281 1221 1432 938 1432 c 0
 713 1432 533 1275 478 998 c 1
 573 998 l 2
 722 998 873 1000 1024 1007 c 1
 996 867 l 1
 845 878 697 884 552 884 c 0
 522 884 492 884 463 883 c 1
 461 858 460 833 460 807 c 0
 460 752 463 702 468 654 c 1
 527 654 l 2
 676 654 827 656 978 663 c 1
 950 523 l 1
 799 534 651 540 506 540 c 2
 488 540 l 1xaf
 557 238 746 98 936 98 c 0
 1219 98 1289 249 1289 340 c 1
 1400 340 l 1
 1412 317 1422 276 1422 188 c 0
 1422 -5 1092 -15 934 -15 c 0
 654 -15 337 131 249 534 c 1
 188 531 127 527 67 523 c 1xce80
EndSplineSet
EndChar

StartChar: acute
Encoding: 180 180 116
Width: 1287
Flags: MW
HStem: 1311 446<661 1016>
VStem: 592 541<1419 1593>
LayerCount: 2
Fore
SplineSet
661 1311 m 1
 592 1419 l 1
 1016 1757 l 1
 1133 1593 l 1
 661 1311 l 1
EndSplineSet
EndChar

StartChar: ae
Encoding: 230 230 117
Width: 1912
Flags: MW
HStem: -23 141<492 554.5> -17 170<1268.5 1385 1268.5 1390.5> 577 102<685.5 846> 588 112 1082 127<567 654.5> 1092 117<1302 1407.5>
VStem: 136 213<261 398 261 429> 176 189 851 180 1574 217<705 882.5>
LayerCount: 2
Fore
SplineSet
136 303 m 0xa6c0
 136 555 439 679 832 679 c 2
 846 679 l 1
 848 690 849 702 852 713 c 1
 850 845 l 1
 846 1031 701 1082 608 1082 c 0x69c0
 427 1082 335 983 373 810 c 1
 203 810 l 1
 203 810 190 862 182 935 c 0
 173 1008 175 1018 181 1025 c 1
 242 1064 438 1209 696 1209 c 0
 847 1209 953 1153 1003 1029 c 1
 1101 1142 1233 1209 1371 1209 c 0
 1661 1209 1790 1034 1791 723 c 0
 1791 687 1794 588 1768 588 c 2
 1031 588 l 1
 1031 303 1152 153 1385 153 c 1
 1507 160 1628 194 1731 248 c 1
 1773 166 l 1
 1647 59 1453 -17 1328 -17 c 0x55c0
 1120 -17 982 64 906 212 c 1
 835 79 605 -23 504 -23 c 0
 273 -23 136 107 136 303 c 0xa6c0
1031 688 m 1x96c0
 1573 712 l 1
 1574 741 1574 752 1574 780 c 0
 1574 985 1501 1092 1314 1092 c 0
 1163 1092 1031 887 1031 688 c 1x96c0
349 316 m 0
 349 206 431 118 553 118 c 0
 652 118 771 193 841 280 c 1
 843 328 845 372 846 412 c 1
 840 458 837 507 837 560 c 2
 837 575 l 1
 830 576 823 577 817 577 c 0xa6c0
 554 577 349 480 349 316 c 0
EndSplineSet
EndChar

StartChar: tilde
Encoding: 732 732 118
Width: 1020
Flags: MW
HStem: 1390 180<630 706 630 734.5> 1514 180<316 390.5>
VStem: 113 796<1506 1578>
LayerCount: 2
Fore
SplineSet
195 1416 m 1x60
 113 1506 l 1x60
 121 1541 217 1694 377 1694 c 0
 504 1694 586 1570 674 1570 c 0
 738 1570 773 1601 827 1668 c 1
 909 1578 l 1
 901 1543 815 1390 654 1390 c 0xa0
 545 1390 433 1514 348 1514 c 0
 284 1514 249 1483 195 1416 c 1x60
EndSplineSet
EndChar

StartChar: dieresis
Encoding: 168 168 119
Width: 1025
Flags: MW
HStem: 1403 292<240.5 322.5 708.5 790.5>
VStem: 132 291<1505.5 1586.5> 602 291<1505.5 1586.5>
LayerCount: 2
Fore
SplineSet
751 1403 m 0
 666 1403 602 1467 602 1544 c 0
 602 1629 666 1695 751 1695 c 0
 830 1695 893 1629 893 1544 c 0
 893 1467 830 1403 751 1403 c 0
283 1403 m 0
 198 1403 132 1467 132 1544 c 0
 132 1629 198 1695 283 1695 c 0
 362 1695 423 1629 423 1544 c 0
 423 1467 362 1403 283 1403 c 0
EndSplineSet
EndChar

StartChar: edieresis
Encoding: 235 235 121
Width: 1195
Flags: MW
HStem: -17 170<556.5 675 556.5 680.5> 588 112 1092 117<533.5 707.5> 1403 292<334.5 416.5 802.5 884.5>
VStem: 116 196<445.5 588 688 757.5> 226 291<1505.5 1586.5> 696 291<1505.5 1586.5> 867 214<705 882.5>
LayerCount: 2
Fore
SplineSet
116 560 m 0xe9
 116 955 382 1209 661 1209 c 0
 951 1209 1080 1034 1081 723 c 0
 1081 687 1084 588 1058 588 c 2
 312 588 l 1
 312 303 438 153 675 153 c 1
 797 160 918 191 1021 245 c 1
 1063 166 l 1
 937 59 743 -17 618 -17 c 0
 282 -17 116 195 116 560 c 0xe9
312 688 m 1
 866 712 l 1
 867 741 867 752 867 780 c 0
 867 985 801 1092 614 1092 c 0
 453 1092 312 887 312 688 c 1
845 1403 m 0x16
 760 1403 696 1467 696 1544 c 0
 696 1629 760 1695 845 1695 c 0
 924 1695 987 1629 987 1544 c 0
 987 1467 924 1403 845 1403 c 0x16
377 1403 m 0
 292 1403 226 1467 226 1544 c 0
 226 1629 292 1695 377 1695 c 0
 456 1695 517 1629 517 1544 c 0
 517 1467 456 1403 377 1403 c 0
EndSplineSet
EndChar

StartChar: asciitilde
Encoding: 126 126 122
Width: 1024
Flags: MW
HStem: 445 310
VStem: 117 784<595 605>
LayerCount: 2
Fore
SplineSet
176 507 m 1
 117 605 l 1
 126 623 222 773 358 753 c 0
 483 735 602 626 674 616 c 0
 749 605 776 634 810 663 c 0
 825 675 836 684 843 692 c 1
 901 595 l 1
 892 577 796 427 661 447 c 0
 559 462 431 572 344 585 c 1
 269 595 242 567 208 538 c 1
 176 507 l 1
EndSplineSet
EndChar

StartChar: cedilla
Encoding: 184 184 123
Width: 1707
Flags: MW
HStem: -517 158
VStem: 470 106 592 173<-303 -235.5>
LayerCount: 2
Fore
SplineSet
319 -313 m 1
 319 -313 387 -359 487 -359 c 0
 566 -359 592 -318 592 -288 c 0
 592 -183 379 -189 515 40 c 1
 583 40 l 1
 530 -103 765 -116 765 -287 c 0xe0
 765 -443 616 -518 513 -517 c 0
 372 -516 319 -482 319 -482 c 1
 319 -313 l 1
EndSplineSet
EndChar

StartChar: dotlessi
Encoding: 305 305 124
Width: 683
Flags: MW
HStem: 0 102<104 191.5 122 191.5 526 577.5> 1189 20G<502 502>
VStem: 284 181<190 837>
LayerCount: 2
Fore
SplineSet
104 0 m 1
 122 102 l 1
 261 102 284 181 284 312 c 2
 284 837 l 2
 284 1017 233 1031 86 1031 c 1
 102 1155 l 1
 502 1209 l 1
 476 1134 457 912 458 698 c 1
 465 231 l 1
 465 149 485 102 567 102 c 0
 588 102 623 105 642 111 c 1
 629 0 l 1
 104 0 l 1
EndSplineSet
EndChar

StartChar: itilde
Encoding: 297 297 125
Width: 683
Flags: MW
HStem: 0 102<104 191.5 122 191.5 526 577.5> 1189 20G<502 502> 1390 180<468 544 468 572.5> 1514 180<154 228.5>
VStem: -49 796<1506 1578> 284 181<190 837>
LayerCount: 2
Fore
SplineSet
104 0 m 1xc4
 122 102 l 1
 261 102 284 181 284 312 c 2
 284 837 l 2
 284 1017 233 1031 86 1031 c 1
 102 1155 l 1
 502 1209 l 1
 476 1134 457 912 458 698 c 1
 465 231 l 1
 465 149 485 102 567 102 c 0
 588 102 623 105 642 111 c 1
 629 0 l 1
 104 0 l 1xc4
33 1416 m 1x00
 -49 1506 l 1x28
 -41 1541 55 1694 215 1694 c 0
 342 1694 424 1570 512 1570 c 0
 576 1570 611 1601 665 1668 c 1
 747 1578 l 1
 739 1543 653 1390 492 1390 c 0x18
 383 1390 271 1514 186 1514 c 0
 122 1514 87 1483 33 1416 c 1x00
EndSplineSet
EndChar

StartChar: igrave
Encoding: 236 236 126
Width: 690
Flags: MW
HStem: 0 102<104 191.5 122 191.5 526 577.5> 1189 20G<502 502> 1311 446<85 390>
VStem: -32 491<1419 1593> 284 181<190 837>
LayerCount: 2
Fore
SplineSet
390 1311 m 1x30
 -32 1593 l 1
 85 1757 l 1
 459 1419 l 1
 390 1311 l 1x30
104 0 m 1xc8
 122 102 l 1
 261 102 284 181 284 312 c 2
 284 837 l 2
 284 1017 233 1031 86 1031 c 1
 102 1155 l 1
 502 1209 l 1
 476 1134 457 912 458 698 c 1
 465 231 l 1
 465 149 485 102 567 102 c 0
 588 102 623 105 642 111 c 1
 629 0 l 1
 104 0 l 1xc8
EndSplineSet
EndChar

StartChar: iacute
Encoding: 237 237 127
Width: 683
Flags: MW
HStem: 0 102<104 191.5 122 191.5 526 577.5> 1189 20G<502 502> 1311 446<290 645>
VStem: 221 541<1419 1593> 284 181<190 837>
LayerCount: 2
Fore
SplineSet
104 0 m 1xc8
 122 102 l 1
 261 102 284 181 284 312 c 2
 284 837 l 2
 284 1017 233 1031 86 1031 c 1
 102 1155 l 1
 502 1209 l 1
 476 1134 457 912 458 698 c 1
 465 231 l 1
 465 149 485 102 567 102 c 0
 588 102 623 105 642 111 c 1
 629 0 l 1
 104 0 l 1xc8
290 1311 m 1x30
 221 1419 l 1
 645 1757 l 1
 762 1593 l 1
 290 1311 l 1x30
EndSplineSet
EndChar

StartChar: icircumflex
Encoding: 238 238 128
Width: 683
Flags: MW
HStem: 0 102<104 191.5 122 191.5 526 577.5> 1189 20G<502 502> 1349 399<24 348 348 659>
VStem: -51 792<1450 1451> 284 181<190 837>
LayerCount: 2
Fore
SplineSet
104 0 m 1xc8
 122 102 l 1
 261 102 284 181 284 312 c 2
 284 837 l 2
 284 1017 233 1031 86 1031 c 1
 102 1155 l 1
 502 1209 l 1
 476 1134 457 912 458 698 c 1
 465 231 l 1
 465 149 485 102 567 102 c 0
 588 102 623 105 642 111 c 1
 629 0 l 1
 104 0 l 1xc8
24 1349 m 1x30
 -51 1451 l 1
 348 1748 l 1
 741 1450 l 1
 659 1349 l 1
 348 1523 l 1
 24 1349 l 1x30
EndSplineSet
EndChar

StartChar: idieresis
Encoding: 239 239 129
Width: 690
Flags: MW
HStem: 0 102<104 191.5 122 191.5 526 577.5> 1189 20G<502 502> 1403 292<102.5 184.5 524.5 606.5>
VStem: -6 291<1505.5 1586.5> 284 181<190 837> 418 291<1505.5 1586.5>
LayerCount: 2
Fore
SplineSet
567 1403 m 0x34
 482 1403 418 1467 418 1544 c 0
 418 1629 482 1695 567 1695 c 0
 646 1695 709 1629 709 1544 c 0
 709 1467 646 1403 567 1403 c 0x34
145 1403 m 0
 60 1403 -6 1467 -6 1544 c 0
 -6 1629 60 1695 145 1695 c 0
 224 1695 285 1629 285 1544 c 0
 285 1467 224 1403 145 1403 c 0
104 0 m 1xc8
 122 102 l 1
 261 102 284 181 284 312 c 2
 284 837 l 2
 284 1017 233 1031 86 1031 c 1
 102 1155 l 1
 502 1209 l 1
 476 1134 457 912 458 698 c 1
 465 231 l 1
 465 149 485 102 567 102 c 0
 588 102 623 105 642 111 c 1
 629 0 l 1
 104 0 l 1xc8
EndSplineSet
EndChar

StartChar: jcircumflex
Encoding: 309 309 130
Width: 683
Flags: MW
HStem: -520 21G<103 103> 1189 20G<511 511> 1349 399<30 354 354 665>
VStem: -45 792<1450 1451> 295 180<525.5 805 518.5 915>
LayerCount: 2
Fore
SplineSet
296 254 m 1xc8
 295 209 295 208 295 843 c 0
 295 987 234 1031 87 1031 c 1
 103 1155 l 1
 511 1209 l 1
 484 1139 475 912 475 698 c 0
 475 339 485 283 486 101 c 0
 489 -271 266 -441 103 -520 c 1
 37 -463 l 1
 263 -277 294 -28 296 254 c 1xc8
30 1349 m 1x30
 -45 1451 l 1
 354 1748 l 1
 747 1450 l 1
 665 1349 l 1
 354 1523 l 1
 30 1349 l 1x30
EndSplineSet
EndChar

StartChar: kgreenlandic
Encoding: 312 312 131
Width: 1191
Flags: MW
HStem: 0 102<45 119 62 119 444.5 487> 0 105<1131.5 1173.5 1131.5 1192> 1083 107<662 1154 1092.5 1122 1122 1143> 1189 20G<409 409>
VStem: 213 186<727 830 830 868.5>
LayerCount: 2
Fore
SplineSet
45 0 m 1xa8
 62 102 l 1
 176 102 213 151 213 312 c 2
 213 830 l 2
 213 907 203 964 183 990 c 0
 164 1015 125 1031 49 1031 c 1
 65 1155 l 1
 409 1209 l 1x98
 409 1209 399 1128 399 1025 c 2
 399 727 l 1
 401 237 l 2
 401 109 412 102 477 102 c 0
 497 102 525 107 548 112 c 1
 535 0 l 1
 45 0 l 1xa8
412 631 m 1
 478 687 775 975 775 1035 c 0
 775 1087 679 1081 662 1083 c 1
 675 1190 l 1xa8
 1154 1190 l 1x98
 1154 1190 1149 1122 1143 1083 c 1
 1122 1083 l 2
 1063 1083 1007 1037 968 1010 c 0
 834 915 632 697 629 692 c 1
 629 692 826 403 965 231 c 1
 1039 145 1095 105 1168 105 c 0
 1179 105 1190 106 1206 108 c 1x68
 1192 0 l 1
 898 0 l 1
 816 2 486 597 412 631 c 1
EndSplineSet
EndChar

StartChar: ldot
Encoding: 320 320 132
Width: 1026
Flags: MW
HStem: 0 102<64 151.5 81 151.5 502 555> 637 332<816 904.5>
VStem: 261 189<236 237 180.5 1368> 697 327<757.5 849>
LayerCount: 2
Fore
SplineSet
64 0 m 1
 81 102 l 1
 222 102 261 139 261 236 c 2
 261 1368 l 2
 261 1448 253 1481 231 1505 c 1
 200 1542 116 1537 59 1537 c 1
 71 1649 l 1
 468 1706 l 1
 453 1620 447 1559 448 1197 c 2
 450 237 l 2
 450 124 468 102 536 102 c 0
 574 102 626 106 646 111 c 1
 631 0 l 1
 64 0 l 1
860 637 m 0x50
 772 637 697 712 697 803 c 0
 697 895 772 969 860 969 c 0
 949 969 1024 895 1024 803 c 0
 1024 712 949 637 860 637 c 0x50
EndSplineSet
EndChar

StartChar: lslash
Encoding: 322 322 133
Width: 683
Flags: MW
HStem: 0 102<64 151.5 81 151.5 502 555>
VStem: 261 189<236 237 180.5 748>
LayerCount: 2
Fore
SplineSet
64 0 m 1
 81 102 l 1
 222 102 261 139 261 236 c 2
 261 748 l 1
 92 685 l 1
 53 833 l 1
 261 910 l 1
 261 1368 l 2
 261 1448 253 1481 231 1505 c 1
 200 1542 116 1537 59 1537 c 1
 71 1649 l 1
 468 1706 l 1
 453 1620 447 1559 448 1197 c 1
 448 980 l 1
 647 1055 l 1
 686 908 l 1
 449 819 l 1
 450 237 l 2
 450 124 468 102 536 102 c 0
 574 102 626 106 646 111 c 1
 631 0 l 1
 64 0 l 1
EndSplineSet
EndChar

StartChar: nacute
Encoding: 324 324 134
Width: 1365
Flags: MW
HStem: 0 102<95 164 111 164 500 551 821 852 1202.5 1254> 1031 178<749 863.5> 1311 446<640 995>
VStem: 255 186<345 830 830 868.5> 571 541<1419 1593> 979 186<759.5 801>
LayerCount: 2
Fore
SplineSet
95 0 m 1xd4
 111 102 l 1
 217 102 255 132 255 345 c 2
 255 830 l 2
 255 907 245 964 225 990 c 0
 206 1015 167 1031 91 1031 c 1
 107 1155 l 1
 456 1209 l 1
 456 1209 441 1128 441 1025 c 1
 476 1054 660 1209 838 1209 c 0
 1015 1209 1165 1113 1165 852 c 0
 1165 667 1145 500 1146 300 c 0
 1147 151 1166 102 1239 102 c 0
 1269 102 1297 105 1316 111 c 1
 1302 0 l 1
 802 0 l 1
 821 102 l 1
 883 102 936 111 955 180 c 1
 972 257 979 393 979 670 c 0
 979 932 964 1031 763 1031 c 0
 622 1031 487 944 441 914 c 1
 441 240 l 2
 441 112 459 102 541 102 c 0
 561 102 600 106 622 111 c 1
 606 0 l 1
 95 0 l 1xd4
640 1311 m 1x28
 571 1419 l 1
 995 1757 l 1
 1112 1593 l 1
 640 1311 l 1x28
EndSplineSet
EndChar

StartChar: ntilde
Encoding: 241 241 135
Width: 1365
Flags: MW
HStem: 0 102<95 164 111 164 500 551 821 852 1202.5 1254> 1031 178<749 863.5> 1390 180<818 894 818 922.5> 1514 180<504 578.5>
VStem: 255 186<345 830 830 868.5> 301 796<1506 1578> 979 186<759.5 801>
LayerCount: 2
Fore
SplineSet
95 0 m 1xca
 111 102 l 1
 217 102 255 132 255 345 c 2
 255 830 l 2
 255 907 245 964 225 990 c 0
 206 1015 167 1031 91 1031 c 1
 107 1155 l 1
 456 1209 l 1
 456 1209 441 1128 441 1025 c 1
 476 1054 660 1209 838 1209 c 0
 1015 1209 1165 1113 1165 852 c 0
 1165 667 1145 500 1146 300 c 0
 1147 151 1166 102 1239 102 c 0
 1269 102 1297 105 1316 111 c 1
 1302 0 l 1
 802 0 l 1
 821 102 l 1
 883 102 936 111 955 180 c 1
 972 257 979 393 979 670 c 0
 979 932 964 1031 763 1031 c 0
 622 1031 487 944 441 914 c 1
 441 240 l 2
 441 112 459 102 541 102 c 0
 561 102 600 106 622 111 c 1
 606 0 l 1
 95 0 l 1xca
383 1416 m 1x00
 301 1506 l 1x24
 309 1541 405 1694 565 1694 c 0
 692 1694 774 1570 862 1570 c 0
 926 1570 961 1601 1015 1668 c 1
 1097 1578 l 1
 1089 1543 1003 1390 842 1390 c 0x14
 733 1390 621 1514 536 1514 c 0
 472 1514 437 1483 383 1416 c 1x00
EndSplineSet
EndChar

StartChar: oe
Encoding: 339 339 136
Width: 2103
Flags: MW
HStem: -17 170<1436.5 1555 1436.5 1560.5> -15 123<559.5 713> 588 112 1092 117<562 757 1462.5 1577.5>
VStem: 104 210 996 196<445.5 588 688 712> 1760 214<705 882.5>
LayerCount: 2
Fore
SplineSet
104 595 m 0x7e
 124 978 391 1209 704 1209 c 0
 895 1209 1042 1123 1127 987 c 1
 1230 1128 1384 1209 1541 1209 c 0
 1831 1209 1973 1034 1974 723 c 0
 1974 687 1977 588 1951 588 c 2
 1192 588 l 1
 1192 303 1318 153 1555 153 c 1
 1677 160 1798 191 1901 245 c 1
 1943 166 l 1
 1817 59 1623 -17 1498 -17 c 0xbe
 1295 -17 1153 60 1074 202 c 1
 967 65 805 -15 621 -15 c 0
 278 -15 86 253 104 595 c 0x7e
1192 688 m 1
 1759 712 l 1
 1760 741 1760 752 1760 780 c 0
 1760 985 1671 1092 1484 1092 c 0
 1333 1092 1192 887 1192 688 c 1
672 108 m 0
 855 108 996 250 996 566 c 0
 996 858 864 1092 650 1092 c 0
 474 1092 314 950 314 631 c 0
 314 352 447 108 672 108 c 0
EndSplineSet
EndChar

StartChar: ograve
Encoding: 242 242 137
Width: 1365
Flags: MW
HStem: -15 123<578 786 578 805> 1092 117<580 779> 1311 446<362 717>
VStem: 121 215 245 541<1419 1593> 1023 220
LayerCount: 2
Fore
SplineSet
121 595 m 0xd4
 142 978 406 1209 725 1209 c 0
 1071 1209 1261 943 1243 599 c 0
 1223 230 970 -15 640 -15 c 0
 291 -15 103 253 121 595 c 0xd4
693 108 m 0
 879 108 1023 250 1023 566 c 0
 1023 888 888 1092 670 1092 c 0
 490 1092 336 950 336 631 c 0
 336 322 463 108 693 108 c 0
717 1311 m 1x28
 245 1593 l 1
 362 1757 l 1
 786 1419 l 1
 717 1311 l 1x28
EndSplineSet
EndChar

StartChar: ocircumflex
Encoding: 244 244 138
Width: 1365
Flags: MW
HStem: -15 123<578 786 578 805> 1092 117<580 779> 1349 399<358 682 682 993>
VStem: 121 215 283 792<1450 1451> 1023 220
LayerCount: 2
Fore
SplineSet
121 595 m 0xd4
 142 978 406 1209 725 1209 c 0
 1071 1209 1261 943 1243 599 c 0
 1223 230 970 -15 640 -15 c 0
 291 -15 103 253 121 595 c 0xd4
693 108 m 0
 879 108 1023 250 1023 566 c 0
 1023 888 888 1092 670 1092 c 0
 490 1092 336 950 336 631 c 0
 336 322 463 108 693 108 c 0
358 1349 m 1x28
 283 1451 l 1
 682 1748 l 1
 1075 1450 l 1
 993 1349 l 1
 682 1523 l 1
 358 1349 l 1x28
EndSplineSet
EndChar

StartChar: otilde
Encoding: 245 245 139
Width: 1365
Flags: MW
HStem: -15 123<578 786 578 805> 1092 117<580 779> 1390 180<802 878 802 906.5> 1514 180<488 562.5>
VStem: 121 215 285 796<1506 1578> 1023 220
LayerCount: 2
Fore
SplineSet
121 595 m 0xca
 142 978 406 1209 725 1209 c 0
 1071 1209 1261 943 1243 599 c 0
 1223 230 970 -15 640 -15 c 0
 291 -15 103 253 121 595 c 0xca
693 108 m 0
 879 108 1023 250 1023 566 c 0
 1023 888 888 1092 670 1092 c 0
 490 1092 336 950 336 631 c 0
 336 322 463 108 693 108 c 0
367 1416 m 1x00
 285 1506 l 1x24
 293 1541 389 1694 549 1694 c 0
 676 1694 758 1570 846 1570 c 0
 910 1570 945 1601 999 1668 c 1
 1081 1578 l 1
 1073 1543 987 1390 826 1390 c 0x14
 717 1390 605 1514 520 1514 c 0
 456 1514 421 1483 367 1416 c 1x00
EndSplineSet
EndChar

StartChar: odieresis
Encoding: 246 246 140
Width: 1365
Flags: MW
HStem: -15 123<578 786 578 805> 1092 117<580 779> 1403 292<410.5 492.5 878.5 960.5>
VStem: 121 215 302 291<1505.5 1586.5> 772 291<1505.5 1586.5> 1023 220
LayerCount: 2
Fore
SplineSet
121 595 m 0xd2
 142 978 406 1209 725 1209 c 0
 1071 1209 1261 943 1243 599 c 0
 1223 230 970 -15 640 -15 c 0
 291 -15 103 253 121 595 c 0xd2
693 108 m 0
 879 108 1023 250 1023 566 c 0
 1023 888 888 1092 670 1092 c 0
 490 1092 336 950 336 631 c 0
 336 322 463 108 693 108 c 0
921 1403 m 0x2c
 836 1403 772 1467 772 1544 c 0
 772 1629 836 1695 921 1695 c 0
 1000 1695 1063 1629 1063 1544 c 0
 1063 1467 1000 1403 921 1403 c 0x2c
453 1403 m 0
 368 1403 302 1467 302 1544 c 0
 302 1629 368 1695 453 1695 c 0
 532 1695 593 1629 593 1544 c 0
 593 1467 532 1403 453 1403 c 0
EndSplineSet
EndChar

StartChar: oslash
Encoding: 248 248 141
Width: 1365
Flags: MW
HStem: -15 123<611.5 781 573 800> -1 21G<504 504> 1092 117<575 740.5 560.5 774> 1178 20G<836 836>
VStem: 116 215 1018 220
LayerCount: 2
Fore
SplineSet
305 -169 m 1xac
 385 41 l 1
 198 137 103 347 116 595 c 0
 137 978 401 1209 720 1209 c 0xac
 761 1209 799 1205 836 1198 c 1
 898 1360 l 1
 1034 1360 l 1
 957 1158 l 1
 1150 1065 1251 853 1238 599 c 0
 1218 230 965 -15 635 -15 c 0x9c
 588 -15 545 -10 504 -1 c 1x6c
 440 -169 l 1
 305 -169 l 1xac
688 108 m 0
 874 108 1018 250 1018 566 c 0
 1018 888 883 1092 665 1092 c 0
 485 1092 331 950 331 631 c 0
 331 322 458 108 688 108 c 0
EndSplineSet
EndChar

StartChar: rcaron
Encoding: 345 345 142
Width: 1024
Flags: MW
HStem: 0 102<81 148.5 95 148.5 509.5 580> 1041 168<726 744.5> 1546 20G<484 484>
VStem: 93 776<1639 1639> 254 187<334 818 818 856.5> 800 174<911.5 1082.5>
LayerCount: 2
Fore
SplineSet
81 0 m 1xcc
 95 102 l 1
 202 102 254 128 254 334 c 2
 254 818 l 2
 254 895 244 963 224 986 c 0
 189 1026 89 1029 89 1029 c 1
 103 1155 l 1
 454 1209 l 1
 454 1209 440 1125 440 1029 c 1
 494 1088 663 1209 789 1209 c 0
 936 1209 974 1126 974 1039 c 0
 974 922 942 810 942 810 c 1
 788 810 l 1
 788 810 800 896 800 927 c 0
 800 1005 785 1041 704 1041 c 0
 612 1041 485 962 441 918 c 1
 441 245 l 2
 441 117 448 102 571 102 c 0
 589 102 695 106 721 112 c 1
 714 0 l 1
 81 0 l 1xcc
484 1341 m 1x30
 93 1639 l 1
 166 1740 l 1
 484 1566 l 1
 789 1740 l 1
 869 1639 l 1
 484 1341 l 1x30
EndSplineSet
EndChar

StartChar: germandbls
Encoding: 223 223 143
Width: 1535
Flags: MW
HStem: -14 109<979 1107.5 979 1136> 0 102<98 192> 1041 104<138 138 138 302 127 138> 1654 117<708 887.5>
VStem: 301 201 693 125 746 172<862.5 980.5> 1036 215<1282.5 1471> 1242 194<235 356.5>
LayerCount: 2
Fore
SplineSet
98 0 m 1x7b
 113 102 l 1
 271 102 301 148 301 280 c 2
 302 1034 l 1
 302 1041 l 1
 127 1041 l 1
 138 1145 l 1
 208 1147 302 1172 302 1190 c 0
 301 1329 400 1771 828 1771 c 0
 1153 1771 1251 1597 1251 1450 c 0
 1251 1115 918 1069 918 908 c 0x7b
 918 817 998 771 1093 725 c 0
 1248 650 1436 555 1436 363 c 0
 1436 107 1250 -14 1022 -14 c 0
 914 -14 829 0 687 40 c 1
 700 341 l 1
 819 341 l 1
 822 135 919 95 1039 95 c 0
 1176 95 1242 164 1242 279 c 0xbc80
 1242 434 1124 478 1006 534 c 0
 876 596 746 670 746 858 c 0
 746 1103 1036 1131 1036 1423 c 0
 1036 1519 970 1654 805 1654 c 0
 611 1654 502 1557 502 1083 c 2
 502 875 l 2
 502 87 502 6 503 3 c 1
 98 0 l 1x7b
EndSplineSet
EndChar

StartChar: ugrave
Encoding: 249 249 144
Width: 1365
Flags: MW
HStem: -17 165<533 626> 1189 20G<443 443 1146 1146> 1311 446<327 682>
VStem: 210 541<1419 1593> 224 178<332.5 973> 941 186<264 304 304 782>
LayerCount: 2
Fore
SplineSet
216 333 m 0xcc
 216 518 224 701 224 900 c 0
 224 1046 182 1050 97 1059 c 1
 112 1155 l 1
 443 1209 l 1
 430 1067 402 945 402 439 c 0
 402 226 455 148 611 148 c 0
 762 148 907 221 941 264 c 1
 941 890 l 2
 941 1039 893 1053 756 1055 c 1
 771 1155 l 1
 1146 1209 l 1
 1132 974 1127 989 1127 782 c 2
 1127 304 l 2
 1127 151 1168 160 1222 160 c 0
 1255 160 1296 180 1297 180 c 2
 1294 58 l 1
 1008 -17 l 1
 1008 -17 967 61 954 149 c 1
 907 99 699 -17 553 -17 c 0
 357 -17 216 92 216 333 c 0xcc
682 1311 m 1x30
 210 1593 l 1
 327 1757 l 1
 751 1419 l 1
 682 1311 l 1x30
EndSplineSet
EndChar

StartChar: uacute
Encoding: 250 250 145
Width: 1365
Flags: MW
HStem: -17 165<533 626> 1189 20G<443 443 1146 1146> 1311 446<589 944>
VStem: 224 178<332.5 973> 520 541<1419 1593> 941 186<264 304 304 782>
LayerCount: 2
Fore
SplineSet
216 333 m 0xd4
 216 518 224 701 224 900 c 0
 224 1046 182 1050 97 1059 c 1
 112 1155 l 1
 443 1209 l 1
 430 1067 402 945 402 439 c 0
 402 226 455 148 611 148 c 0
 762 148 907 221 941 264 c 1
 941 890 l 2
 941 1039 893 1053 756 1055 c 1
 771 1155 l 1
 1146 1209 l 1
 1132 974 1127 989 1127 782 c 2
 1127 304 l 2
 1127 151 1168 160 1222 160 c 0
 1255 160 1296 180 1297 180 c 2
 1294 58 l 1
 1008 -17 l 1
 1008 -17 967 61 954 149 c 1
 907 99 699 -17 553 -17 c 0
 357 -17 216 92 216 333 c 0xd4
589 1311 m 1x28
 520 1419 l 1
 944 1757 l 1
 1061 1593 l 1
 589 1311 l 1x28
EndSplineSet
EndChar

StartChar: ucircumflex
Encoding: 251 251 146
Width: 1365
Flags: MW
HStem: -17 165<533 626> 1189 20G<443 443 1146 1146> 1349 399<323 647 647 958>
VStem: 224 178<332.5 973> 248 792<1450 1451> 941 186<264 304 304 782>
LayerCount: 2
Fore
SplineSet
216 333 m 0xd4
 216 518 224 701 224 900 c 0
 224 1046 182 1050 97 1059 c 1
 112 1155 l 1
 443 1209 l 1
 430 1067 402 945 402 439 c 0
 402 226 455 148 611 148 c 0
 762 148 907 221 941 264 c 1
 941 890 l 2
 941 1039 893 1053 756 1055 c 1
 771 1155 l 1
 1146 1209 l 1
 1132 974 1127 989 1127 782 c 2
 1127 304 l 2
 1127 151 1168 160 1222 160 c 0
 1255 160 1296 180 1297 180 c 2
 1294 58 l 1
 1008 -17 l 1
 1008 -17 967 61 954 149 c 1
 907 99 699 -17 553 -17 c 0
 357 -17 216 92 216 333 c 0xd4
323 1349 m 1x28
 248 1451 l 1
 647 1748 l 1
 1040 1450 l 1
 958 1349 l 1
 647 1523 l 1
 323 1349 l 1x28
EndSplineSet
EndChar

StartChar: udieresis
Encoding: 252 252 147
Width: 1365
Flags: MW
HStem: -17 165<533 626> 1189 20G<443 443 1146 1146> 1403 292<375.5 457.5 843.5 925.5>
VStem: 224 178<332.5 973> 267 291<1505.5 1586.5> 737 291<1505.5 1586.5> 941 186<264 304 304 782>
LayerCount: 2
Fore
SplineSet
216 333 m 0xd2
 216 518 224 701 224 900 c 0
 224 1046 182 1050 97 1059 c 1
 112 1155 l 1
 443 1209 l 1
 430 1067 402 945 402 439 c 0
 402 226 455 148 611 148 c 0
 762 148 907 221 941 264 c 1
 941 890 l 2
 941 1039 893 1053 756 1055 c 1
 771 1155 l 1
 1146 1209 l 1
 1132 974 1127 989 1127 782 c 2
 1127 304 l 2
 1127 151 1168 160 1222 160 c 0
 1255 160 1296 180 1297 180 c 2
 1294 58 l 1
 1008 -17 l 1
 1008 -17 967 61 954 149 c 1
 907 99 699 -17 553 -17 c 0
 357 -17 216 92 216 333 c 0xd2
886 1403 m 0x2c
 801 1403 737 1467 737 1544 c 0
 737 1629 801 1695 886 1695 c 0
 965 1695 1028 1629 1028 1544 c 0
 1028 1467 965 1403 886 1403 c 0x2c
418 1403 m 0
 333 1403 267 1467 267 1544 c 0
 267 1629 333 1695 418 1695 c 0
 497 1695 558 1629 558 1544 c 0
 558 1467 497 1403 418 1403 c 0
EndSplineSet
EndChar

StartChar: yacute
Encoding: 253 253 148
Width: 1193
Flags: MW
HStem: -520 192<316.5 407.5> 1082 107<27 51 507 507 856 923> 1311 446<613 968>
VStem: 13 1248<1081 1189> 544 541<1419 1593>
LayerCount: 2
Fore
SplineSet
146 -262 m 1xd0
 213 -299 285 -328 348 -328 c 0
 468 -328 533 -192 574 -87 c 0
 588 -50 602 -17 614 15 c 1
 525 56 l 1
 525 56 180 903 152 976 c 0
 122 1053 75 1082 27 1082 c 0
 22 1082 17 1081 13 1081 c 1
 27 1189 l 1
 521 1189 l 1
 507 1082 l 1
 497 1080 457 1080 445 1080 c 0
 422 1080 360 1071 360 994 c 0
 360 908 576 391 669 158 c 1
 785 461 805 541 944 940 c 1
 964 1012 982 1082 864 1082 c 0
 848 1082 809 1077 796 1076 c 1
 813 1189 l 1
 1261 1189 l 1
 1244 1079 l 1
 1238 1080 1223 1081 1217 1081 c 0
 1173 1081 1142 1010 1098 903 c 1
 956 578 792 66 638 -271 c 0
 568 -423 477 -520 338 -520 c 0
 247 -520 140 -452 82 -372 c 1
 146 -262 l 1xd0
613 1311 m 1x28
 544 1419 l 1
 968 1757 l 1
 1085 1593 l 1
 613 1311 l 1x28
EndSplineSet
EndChar

StartChar: Agrave
Encoding: 192 192 149
Width: 1533
Flags: MW
HStem: 0 106<942 957 957 957 1466 1477.5> 558 120<506 968 506 1013 464 968> 1547 20G<850 850> 1671 369
VStem: 2 1543<0 117> 337 623<1785 1852>
LayerCount: 2
Fore
SplineSet
2 0 m 1xe8
 15 105 l 1
 116 105 146 132 186 230 c 1
 688 1530 l 1
 716 1530 820 1546 850 1567 c 1
 1310 333 l 2
 1358 202 1421 105 1466 106 c 0
 1489 106 1523 103 1545 117 c 1
 1525 0 l 1
 942 0 l 1
 957 106 l 1
 1126 104 1155 150 1141 218 c 1
 1013 558 l 1
 464 558 l 1
 335 190 l 2
 320 148 348 109 387 106 c 1
 418 105 497 105 530 117 c 1
 515 0 l 1
 2 0 l 1xe8
506 678 m 1
 968 678 l 1
 729 1312 l 1
 506 678 l 1
337 1852 m 1x14
 407 2040 l 1
 960 1785 l 1
 922 1671 l 1
 337 1852 l 1x14
EndSplineSet
EndChar

StartChar: Aacute
Encoding: 193 193 150
Width: 1533
Flags: MW
HStem: 0 106<942 957 957 957 1466 1477.5> 558 120<506 968 506 1013 464 968> 1547 20G<850 850> 1671 369
VStem: 2 1543<0 117> 542 623<1785 1852>
LayerCount: 2
Fore
SplineSet
2 0 m 1xe8
 15 105 l 1
 116 105 146 132 186 230 c 1
 688 1530 l 1
 716 1530 820 1546 850 1567 c 1
 1310 333 l 2
 1358 202 1421 105 1466 106 c 0
 1489 106 1523 103 1545 117 c 1
 1525 0 l 1
 942 0 l 1
 957 106 l 1
 1126 104 1155 150 1141 218 c 1
 1013 558 l 1
 464 558 l 1
 335 190 l 2
 320 148 348 109 387 106 c 1
 418 105 497 105 530 117 c 1
 515 0 l 1
 2 0 l 1xe8
506 678 m 1
 968 678 l 1
 729 1312 l 1
 506 678 l 1
580 1671 m 1x14
 542 1785 l 1
 1095 2040 l 1
 1165 1852 l 1
 580 1671 l 1x14
EndSplineSet
EndChar

StartChar: Acircumflex
Encoding: 194 194 151
Width: 1533
Flags: MW
HStem: 0 106<942 957 957 957 1466 1477.5> 558 120<506 968 506 1013 464 968> 1547 20G<850 850> 1673 367<435 772 772 1096>
VStem: 2 1543<0 117> 381 776<1771 1779>
LayerCount: 2
Fore
SplineSet
2 0 m 1xe8
 15 105 l 1
 116 105 146 132 186 230 c 1
 688 1530 l 1
 716 1530 820 1546 850 1567 c 1
 1310 333 l 2
 1358 202 1421 105 1466 106 c 0
 1489 106 1523 103 1545 117 c 1
 1525 0 l 1
 942 0 l 1
 957 106 l 1
 1126 104 1155 150 1141 218 c 1
 1013 558 l 1
 464 558 l 1
 335 190 l 2
 320 148 348 109 387 106 c 1
 418 105 497 105 530 117 c 1
 515 0 l 1
 2 0 l 1xe8
506 678 m 1
 968 678 l 1
 729 1312 l 1
 506 678 l 1
435 1673 m 1x14
 381 1771 l 1
 772 2040 l 1
 1157 1779 l 1
 1096 1673 l 1
 772 1829 l 1
 435 1673 l 1x14
EndSplineSet
EndChar

StartChar: Atilde
Encoding: 195 195 152
Width: 1533
Flags: MW
HStem: 0 106<942 957 957 957 1466 1477.5> 558 120<506 968 506 1013 464 968> 1547 20G<850 850> 1669 180<892 968 892 996.5> 1793 180<578 652.5>
VStem: 2 1543<0 117> 365 806<1785 1857>
LayerCount: 2
Fore
SplineSet
2 0 m 1xe4
 15 105 l 1
 116 105 146 132 186 230 c 1
 688 1530 l 1
 716 1530 820 1546 850 1567 c 1
 1310 333 l 2
 1358 202 1421 105 1466 106 c 0
 1489 106 1523 103 1545 117 c 1
 1525 0 l 1
 942 0 l 1
 957 106 l 1
 1126 104 1155 150 1141 218 c 1
 1013 558 l 1
 464 558 l 1
 335 190 l 2
 320 148 348 109 387 106 c 1
 418 105 497 105 530 117 c 1
 515 0 l 1
 2 0 l 1xe4
506 678 m 1
 968 678 l 1
 729 1312 l 1
 506 678 l 1
457 1695 m 1x00
 365 1785 l 1
 373 1820 479 1973 639 1973 c 0x12
 766 1973 848 1849 936 1849 c 0
 1000 1849 1035 1880 1089 1947 c 1
 1171 1857 l 1
 1163 1822 1077 1669 916 1669 c 0x0a
 807 1669 695 1793 610 1793 c 0
 546 1793 511 1762 457 1695 c 1x00
EndSplineSet
EndChar

StartChar: Adieresis
Encoding: 196 196 153
Width: 1533
Flags: MW
HStem: 0 106<942 957 957 957 1466 1477.5> 558 120<506 968 506 1013 464 968> 1547 20G<850 850> 1742 290<510 590.5 968.5 1049>
VStem: 2 1543<0 117> 404 285<1843.5 1924.5> 864 285<1843.5 1924.5>
LayerCount: 2
Fore
SplineSet
2 0 m 1xe8
 15 105 l 1
 116 105 146 132 186 230 c 1
 688 1530 l 1
 716 1530 820 1546 850 1567 c 1
 1310 333 l 2
 1358 202 1421 105 1466 106 c 0
 1489 106 1523 103 1545 117 c 1
 1525 0 l 1
 942 0 l 1
 957 106 l 1
 1126 104 1155 150 1141 218 c 1
 1013 558 l 1
 464 558 l 1
 335 190 l 2
 320 148 348 109 387 106 c 1
 418 105 497 105 530 117 c 1
 515 0 l 1
 2 0 l 1xe8
506 678 m 1
 968 678 l 1
 729 1312 l 1
 506 678 l 1
1010 1742 m 0x16
 927 1742 864 1805 864 1882 c 0
 864 1967 927 2032 1010 2032 c 0
 1088 2032 1149 1967 1149 1882 c 0
 1149 1805 1088 1742 1010 1742 c 0x16
552 1742 m 0
 468 1742 404 1805 404 1882 c 0
 404 1967 468 2032 552 2032 c 0
 629 2032 689 1967 689 1882 c 0
 689 1805 629 1742 552 1742 c 0
EndSplineSet
EndChar

StartChar: Ccedilla
Encoding: 199 199 154
Width: 1709
Flags: MW
HStem: -517 158 -15 105<837.5 1099.5> 1438 107<778 1058>
VStem: 143 234<552.5 975 552.5 1000.5> 940 106 1062 173<-303 -235.5>
LayerCount: 2
Fore
SplineSet
143 759 m 0
 143 1242 495 1545 987 1545 c 0
 1142 1545 1403 1495 1536 1503 c 1
 1543 1408 1528 1244 1506 1095 c 1
 1392 1095 l 1
 1384 1160 1366 1256 1342 1303 c 1
 1281 1408 1144 1438 972 1438 c 0
 584 1438 377 1163 377 787 c 0
 377 318 682 90 993 90 c 0
 1235 90 1348 166 1425 406 c 1
 1536 406 l 1
 1544 310 1521 149 1500 90 c 1
 1411 46 1250 -15 949 -15 c 0
 578 -15 143 176 143 759 c 0
789 -313 m 1x00
 789 -313 857 -359 957 -359 c 0
 1036 -359 1062 -318 1062 -288 c 0
 1062 -183 849 -189 985 40 c 1
 1053 40 l 1
 1000 -103 1235 -116 1235 -287 c 0x88
 1235 -443 1086 -518 983 -517 c 0
 842 -516 789 -482 789 -482 c 1
 789 -313 l 1x00
EndSplineSet
EndChar

StartChar: Egrave
Encoding: 200 200 155
Width: 1368
Flags: MW
HStem: 0 106<93 179.5 110 179.5 110 1237> 0 111<673 864 864 956 673 1237> 763 109<473 682 473 688> 1413 117<473 849 473 473> 1413 132 1671 369
VStem: 270 203<306 763 872 1222 1222 1293.5> 331 623<1785 1852> 838 110<569 569>
LayerCount: 2
Fore
SplineSet
93 0 m 1x7280
 110 106 l 1
 249 106 270 157 270 306 c 2
 270 1222 l 2
 270 1365 237 1418 176 1418 c 0
 166 1418 134 1417 106 1411 c 1
 118 1530 l 1
 889 1530 l 2xb280
 1160 1530 1244 1545 1244 1545 c 1x6a80
 1245 1382 1214 1225 1199 1171 c 1
 1111 1171 l 1
 1097 1397 1042 1413 849 1413 c 2
 473 1413 l 1
 473 872 l 1
 688 872 l 2
 841 872 846 930 858 1042 c 1
 967 1043 l 1
 970 886 957 706 948 569 c 1
 838 569 l 1
 830 706 816 763 682 763 c 2
 473 763 l 1
 473 278 l 2
 473 144 508 116 673 111 c 0
 721 110 809 111 864 111 c 0
 1048 111 1159 226 1180 407 c 1
 1290 407 l 1
 1291 298 1259 114 1237 0 c 1
 93 0 l 1x7280
331 1852 m 1x05
 401 2040 l 1
 954 1785 l 1
 916 1671 l 1
 331 1852 l 1x05
EndSplineSet
EndChar

StartChar: Eacute
Encoding: 201 201 156
Width: 1368
Flags: MW
HStem: 0 106<93 179.5 110 179.5 110 1237> 0 111<673 864 864 956 673 1237> 763 109<473 682 473 688> 1413 117<473 849 473 473> 1413 132 1671 369
VStem: 270 203<306 763 872 1222 1222 1293.5> 536 623<1785 1852> 838 110<569 569>
LayerCount: 2
Fore
SplineSet
93 0 m 1x7280
 110 106 l 1
 249 106 270 157 270 306 c 2
 270 1222 l 2
 270 1365 237 1418 176 1418 c 0
 166 1418 134 1417 106 1411 c 1
 118 1530 l 1
 889 1530 l 2xb280
 1160 1530 1244 1545 1244 1545 c 1x6a80
 1245 1382 1214 1225 1199 1171 c 1
 1111 1171 l 1
 1097 1397 1042 1413 849 1413 c 2
 473 1413 l 1
 473 872 l 1
 688 872 l 2
 841 872 846 930 858 1042 c 1
 967 1043 l 1
 970 886 957 706 948 569 c 1
 838 569 l 1
 830 706 816 763 682 763 c 2
 473 763 l 1
 473 278 l 2
 473 144 508 116 673 111 c 0
 721 110 809 111 864 111 c 0
 1048 111 1159 226 1180 407 c 1
 1290 407 l 1
 1291 298 1259 114 1237 0 c 1
 93 0 l 1x7280
574 1671 m 1x05
 536 1785 l 1
 1089 2040 l 1
 1159 1852 l 1
 574 1671 l 1x05
EndSplineSet
EndChar

StartChar: Ecircumflex
Encoding: 202 202 157
Width: 1368
Flags: MW
HStem: 0 106<93 179.5 110 179.5 110 1237> 0 111<673 864 864 956 673 1237> 763 109<473 682 473 688> 1413 117<473 849 473 473> 1413 132 1673 367<429 766 766 1090>
VStem: 270 203<306 763 872 1222 1222 1293.5> 375 776<1771 1779> 838 110<569 569>
LayerCount: 2
Fore
SplineSet
93 0 m 1x7280
 110 106 l 1
 249 106 270 157 270 306 c 2
 270 1222 l 2
 270 1365 237 1418 176 1418 c 0
 166 1418 134 1417 106 1411 c 1
 118 1530 l 1
 889 1530 l 2xb280
 1160 1530 1244 1545 1244 1545 c 1x6a80
 1245 1382 1214 1225 1199 1171 c 1
 1111 1171 l 1
 1097 1397 1042 1413 849 1413 c 2
 473 1413 l 1
 473 872 l 1
 688 872 l 2
 841 872 846 930 858 1042 c 1
 967 1043 l 1
 970 886 957 706 948 569 c 1
 838 569 l 1
 830 706 816 763 682 763 c 2
 473 763 l 1
 473 278 l 2
 473 144 508 116 673 111 c 0
 721 110 809 111 864 111 c 0
 1048 111 1159 226 1180 407 c 1
 1290 407 l 1
 1291 298 1259 114 1237 0 c 1
 93 0 l 1x7280
429 1673 m 1x05
 375 1771 l 1
 766 2040 l 1
 1151 1779 l 1
 1090 1673 l 1
 766 1829 l 1
 429 1673 l 1x05
EndSplineSet
EndChar

StartChar: Edieresis
Encoding: 203 203 158
Width: 1368
Flags: MW
HStem: 0 106<93 179.5 110 179.5 110 1237> 0 111<673 864 864 956 673 1237> 763 109<473 682 473 688> 1413 117<473 849 473 473> 1413 132 1742 290<504 584.5 962.5 1043>
VStem: 270 203<306 763 872 1222 1222 1293.5> 398 285<1843.5 1924.5> 838 110<569 569> 858 285<1843.5 1924.5>
LayerCount: 2
Fore
SplineSet
93 0 m 1x7280
 110 106 l 1
 249 106 270 157 270 306 c 2
 270 1222 l 2
 270 1365 237 1418 176 1418 c 0
 166 1418 134 1417 106 1411 c 1
 118 1530 l 1
 889 1530 l 2xb280
 1160 1530 1244 1545 1244 1545 c 1x6a80
 1245 1382 1214 1225 1199 1171 c 1
 1111 1171 l 1
 1097 1397 1042 1413 849 1413 c 2
 473 1413 l 1
 473 872 l 1
 688 872 l 2
 841 872 846 930 858 1042 c 1
 967 1043 l 1
 970 886 957 706 948 569 c 1
 838 569 l 1
 830 706 816 763 682 763 c 2
 473 763 l 1
 473 278 l 2
 473 144 508 116 673 111 c 0
 721 110 809 111 864 111 c 0
 1048 111 1159 226 1180 407 c 1
 1290 407 l 1
 1291 298 1259 114 1237 0 c 1
 93 0 l 1x7280
1004 1742 m 0x0540
 921 1742 858 1805 858 1882 c 0
 858 1967 921 2032 1004 2032 c 0
 1082 2032 1143 1967 1143 1882 c 0
 1143 1805 1082 1742 1004 1742 c 0x0540
546 1742 m 0
 462 1742 398 1805 398 1882 c 0
 398 1967 462 2032 546 2032 c 0
 623 2032 683 1967 683 1882 c 0
 683 1805 623 1742 546 1742 c 0
EndSplineSet
EndChar

StartChar: Igrave
Encoding: 204 204 159
Width: 853
Flags: MW
HStem: 0 106<121 193 132 193 594.5 657.5> 1418 112<215 257.5 624 701> 1671 369
VStem: -12 623<1785 1852> 325 203<246.5 270 270 340>
LayerCount: 2
Fore
SplineSet
121 0 m 1xc8
 132 106 l 1
 254 106 325 153 325 340 c 2
 324 1215 l 2
 324 1390 283 1418 232 1418 c 0
 198 1418 161 1417 129 1411 c 1
 145 1530 l 1
 717 1530 l 1
 701 1418 l 1
 547 1418 528 1383 528 1222 c 2
 528 270 l 2
 528 148 541 106 648 106 c 0
 667 106 710 114 733 119 c 1
 721 0 l 1
 121 0 l 1xc8
-12 1852 m 1x30
 58 2040 l 1
 611 1785 l 1
 573 1671 l 1
 -12 1852 l 1x30
EndSplineSet
EndChar

StartChar: Iacute
Encoding: 205 205 160
Width: 853
Flags: MW
HStem: 0 106<121 193 132 193 594.5 657.5> 1418 112<215 257.5 624 701> 1671 369
VStem: 193 623<1785 1852> 325 203<246.5 270 270 340>
LayerCount: 2
Fore
SplineSet
121 0 m 1xc8
 132 106 l 1
 254 106 325 153 325 340 c 2
 324 1215 l 2
 324 1390 283 1418 232 1418 c 0
 198 1418 161 1417 129 1411 c 1
 145 1530 l 1
 717 1530 l 1
 701 1418 l 1
 547 1418 528 1383 528 1222 c 2
 528 270 l 2
 528 148 541 106 648 106 c 0
 667 106 710 114 733 119 c 1
 721 0 l 1
 121 0 l 1xc8
231 1671 m 1x30
 193 1785 l 1
 746 2040 l 1
 816 1852 l 1
 231 1671 l 1x30
EndSplineSet
EndChar

StartChar: Itilde
Encoding: 296 296 161
Width: 853
Flags: MW
HStem: 0 106<121 193 132 193 594.5 657.5> 1418 112<215 257.5 624 701> 1669 180<543 619 543 647.5> 1793 180<229 303.5>
VStem: 16 806<1785 1857> 325 203<246.5 270 270 340>
LayerCount: 2
Fore
SplineSet
121 0 m 1xc4
 132 106 l 1
 254 106 325 153 325 340 c 2
 324 1215 l 2
 324 1390 283 1418 232 1418 c 0
 198 1418 161 1417 129 1411 c 1
 145 1530 l 1
 717 1530 l 1
 701 1418 l 1
 547 1418 528 1383 528 1222 c 2
 528 270 l 2
 528 148 541 106 648 106 c 0
 667 106 710 114 733 119 c 1
 721 0 l 1
 121 0 l 1xc4
108 1695 m 1x00
 16 1785 l 1
 24 1820 130 1973 290 1973 c 0x28
 417 1973 499 1849 587 1849 c 0
 651 1849 686 1880 740 1947 c 1
 822 1857 l 1
 814 1822 728 1669 567 1669 c 0x18
 458 1669 346 1793 261 1793 c 0
 197 1793 162 1762 108 1695 c 1x00
EndSplineSet
EndChar

StartChar: Icircumflex
Encoding: 206 206 162
Width: 853
Flags: MW
HStem: 0 106<121 193 132 193 594.5 657.5> 1418 112<215 257.5 624 701> 1673 367<86 423 423 747>
VStem: 32 776<1771 1779> 325 203<246.5 270 270 340>
LayerCount: 2
Fore
SplineSet
121 0 m 1xc8
 132 106 l 1
 254 106 325 153 325 340 c 2
 324 1215 l 2
 324 1390 283 1418 232 1418 c 0
 198 1418 161 1417 129 1411 c 1
 145 1530 l 1
 717 1530 l 1
 701 1418 l 1
 547 1418 528 1383 528 1222 c 2
 528 270 l 2
 528 148 541 106 648 106 c 0
 667 106 710 114 733 119 c 1
 721 0 l 1
 121 0 l 1xc8
86 1673 m 1x30
 32 1771 l 1
 423 2040 l 1
 808 1779 l 1
 747 1673 l 1
 423 1829 l 1
 86 1673 l 1x30
EndSplineSet
EndChar

StartChar: Idieresis
Encoding: 207 207 163
Width: 853
Flags: MW
HStem: 0 106<121 193 132 193 594.5 657.5> 1418 112<215 257.5 624 701> 1742 290<161 241.5 619.5 700>
VStem: 55 285<1843.5 1924.5> 325 203<246.5 270 270 340> 515 285<1843.5 1924.5>
LayerCount: 2
Fore
SplineSet
121 0 m 1xc8
 132 106 l 1
 254 106 325 153 325 340 c 2
 324 1215 l 2
 324 1390 283 1418 232 1418 c 0
 198 1418 161 1417 129 1411 c 1
 145 1530 l 1
 717 1530 l 1
 701 1418 l 1
 547 1418 528 1383 528 1222 c 2
 528 270 l 2
 528 148 541 106 648 106 c 0
 667 106 710 114 733 119 c 1
 721 0 l 1
 121 0 l 1xc8
661 1742 m 0x34
 578 1742 515 1805 515 1882 c 0
 515 1967 578 2032 661 2032 c 0
 739 2032 800 1967 800 1882 c 0
 800 1805 739 1742 661 1742 c 0x34
203 1742 m 0
 119 1742 55 1805 55 1882 c 0
 55 1967 119 2032 203 2032 c 0
 280 2032 340 1967 340 1882 c 0
 340 1805 280 1742 203 1742 c 0
EndSplineSet
EndChar

StartChar: IJ
Encoding: 306 306 164
Width: 1708
Flags: MW
HStem: 0 106<121 193 132 193 594.5 657.5> 1418 112<215 257.5 624 701 1071.5 1130.5 1512 1581>
VStem: 325 203<246.5 270 270 340> 1189 203<395 1178 1178 1241>
LayerCount: 2
Fore
SplineSet
121 0 m 1
 132 106 l 1
 254 106 325 153 325 340 c 2
 324 1215 l 2
 324 1390 283 1418 232 1418 c 0
 198 1418 161 1417 129 1411 c 1
 145 1530 l 1
 717 1530 l 1
 701 1418 l 1
 547 1418 528 1383 528 1222 c 2
 528 270 l 2
 528 148 541 106 648 106 c 0
 667 106 710 114 733 119 c 1
 721 0 l 1
 121 0 l 1
932 -314 m 1x50
 1141 -90 1189 234 1189 395 c 2
 1189 1178 l 2
 1189 1384 1165 1418 1096 1418 c 0
 1047 1418 997 1415 973 1410 c 0
 971 1410 972 1407 970 1407 c 1
 988 1530 l 1
 1596 1530 l 1
 1581 1418 l 1
 1443 1418 1392 1394 1392 1241 c 2
 1392 331 l 2
 1392 72 1346 -100 1002 -383 c 1
 932 -314 l 1x50
EndSplineSet
EndChar

StartChar: Jcircumflex
Encoding: 308 308 165
Width: 855
Flags: MW
HStem: 1418 112<218.5 277.5 659 728> 1673 367<107 444 444 768>
VStem: 53 776<1771 1779> 336 203<395 1178 1178 1241>
LayerCount: 2
Fore
SplineSet
79 -314 m 1x90
 288 -90 336 234 336 395 c 2
 336 1178 l 2
 336 1384 312 1418 243 1418 c 0
 194 1418 144 1415 120 1410 c 0
 118 1410 119 1407 117 1407 c 1
 135 1530 l 1
 743 1530 l 1
 728 1418 l 1
 590 1418 539 1394 539 1241 c 2
 539 331 l 2
 539 72 493 -100 149 -383 c 1
 79 -314 l 1x90
107 1673 m 1x60
 53 1771 l 1
 444 2040 l 1
 829 1779 l 1
 768 1673 l 1
 444 1829 l 1
 107 1673 l 1x60
EndSplineSet
EndChar

StartChar: Lslash
Encoding: 321 321 166
Width: 1367
Flags: MW
HStem: 0 106<634 799 799 946.5> 1417 113<598 682>
VStem: 259 207<644 644 877 1224>
LayerCount: 2
Fore
SplineSet
68 0 m 1
 80 111 l 1
 201 108 260 146 260 330 c 2
 259 644 l 1
 38 559 l 1
 1 698 l 1
 259 797 l 1
 259 1249 l 2
 259 1401 236 1418 171 1418 c 0
 139 1418 117 1413 92 1408 c 1
 108 1530 l 1
 696 1530 l 1
 682 1417 l 1
 514 1417 458 1403 466 1224 c 1
 466 877 l 1
 804 1007 l 1
 841 869 l 1
 466 724 l 1
 466 279 l 2
 466 124 542 106 634 106 c 2
 799 106 l 2
 1094 106 1119 272 1138 446 c 1
 1192 446 1234 441 1268 441 c 1
 1289 256 1234 65 1229 0 c 1
 68 0 l 1
EndSplineSet
EndChar

StartChar: Nacute
Encoding: 323 323 167
Width: 1706
Flags: MW
HStem: -16 21G 0 106<91 157 104 157 481 544.5> 1419 111<1259 1309 1588 1664> 1671 369
VStem: 276 131<283 300 300 1222 1222 1266> 648 623<1785 1852> 1361 132<368 1245 1245 1270>
LayerCount: 2
Fore
SplineSet
91 0 m 1x6a
 104 106 l 1x6a
 210 106 276 114 276 283 c 2
 276 1222 l 2
 276 1371 261 1410 179 1410 c 0
 150 1410 117 1405 87 1400 c 1
 102 1530 l 1
 497 1530 l 1
 497 1530 515 1450 587 1359 c 0
 846 1028 1105 681 1361 368 c 1
 1361 1245 l 2
 1361 1407 1349 1419 1269 1419 c 0
 1249 1419 1198 1414 1166 1409 c 1
 1177 1530 l 1
 1678 1530 l 1
 1664 1419 l 1
 1512 1419 1493 1423 1493 1270 c 2
 1493 252 l 2
 1493 125 1508 16 1508 16 c 1
 1476 13 1424 3 1390 -16 c 1xaa
 1194 291 769 811 407 1266 c 1
 407 300 l 2
 407 157 442 106 520 106 c 0
 569 106 625 115 649 119 c 1
 637 0 l 1
 91 0 l 1x6a
686 1671 m 1x14
 648 1785 l 1
 1201 2040 l 1
 1271 1852 l 1
 686 1671 l 1x14
EndSplineSet
EndChar

StartChar: Ntilde
Encoding: 209 209 168
Width: 1706
Flags: MW
HStem: -16 21G 0 106<91 157 104 157 481 544.5> 1419 111<1259 1309 1588 1664> 1669 180<998 1074 998 1102.5> 1793 180<684 758.5>
VStem: 276 131<283 300 300 1222 1222 1266> 471 806<1785 1857> 1361 132<368 1245 1245 1270>
LayerCount: 2
Fore
SplineSet
91 0 m 1x65
 104 106 l 1x65
 210 106 276 114 276 283 c 2
 276 1222 l 2
 276 1371 261 1410 179 1410 c 0
 150 1410 117 1405 87 1400 c 1
 102 1530 l 1
 497 1530 l 1
 497 1530 515 1450 587 1359 c 0
 846 1028 1105 681 1361 368 c 1
 1361 1245 l 2
 1361 1407 1349 1419 1269 1419 c 0
 1249 1419 1198 1414 1166 1409 c 1
 1177 1530 l 1
 1678 1530 l 1
 1664 1419 l 1
 1512 1419 1493 1423 1493 1270 c 2
 1493 252 l 2
 1493 125 1508 16 1508 16 c 1
 1476 13 1424 3 1390 -16 c 1xa5
 1194 291 769 811 407 1266 c 1
 407 300 l 2
 407 157 442 106 520 106 c 0
 569 106 625 115 649 119 c 1
 637 0 l 1
 91 0 l 1x65
563 1695 m 1x00
 471 1785 l 1
 479 1820 585 1973 745 1973 c 0x12
 872 1973 954 1849 1042 1849 c 0
 1106 1849 1141 1880 1195 1947 c 1
 1277 1857 l 1
 1269 1822 1183 1669 1022 1669 c 0x0a
 913 1669 801 1793 716 1793 c 0
 652 1793 617 1762 563 1695 c 1x00
EndSplineSet
EndChar

StartChar: OE
Encoding: 338 338 169
Width: 2214
Flags: MW
HStem: -15 123<692 841> 0 111<1495 1686 1686 1778 1495 2059> 763 109<1265 1504 1265 1510> 1413 117<1265 1671 1265 1265> 1422 124<719 862.5>
VStem: 129 227 1062 203<306 763 872 1222 1222 1267> 1660 110<569 569>
LayerCount: 2
Fore
SplineSet
129 736 m 0x6e
 136 1176 382 1546 877 1546 c 0x6e
 934 1546 989 1540 1042 1530 c 1
 1711 1530 l 2x76
 1982 1530 2066 1545 2066 1545 c 1x6e
 2067 1382 2036 1225 2021 1171 c 1
 1933 1171 l 1
 1919 1397 1864 1413 1671 1413 c 2
 1265 1413 l 1
 1265 872 l 1
 1510 872 l 2
 1663 872 1668 930 1680 1042 c 1
 1789 1043 l 1
 1792 886 1779 706 1770 569 c 1
 1660 569 l 1
 1652 706 1638 763 1504 763 c 2
 1265 763 l 1
 1265 278 l 2
 1265 144 1330 116 1495 111 c 0
 1543 110 1631 111 1686 111 c 0
 1870 111 1981 226 2002 407 c 1
 2112 407 l 1
 2113 298 2081 114 2059 0 c 1
 976 0 l 1x77
 925 -10 870 -15 812 -15 c 0xae
 409 -15 122 255 129 736 c 0x6e
862 108 m 0xae
 918 108 971 116 1020 134 c 1
 1055 164 1062 218 1062 306 c 2
 1062 1222 l 2
 1062 1312 1049 1366 1024 1394 c 1
 996 1404 966 1412 934 1416 c 1
 923 1415 910 1413 898 1411 c 1
 899 1420 l 1
 884 1421 870 1422 855 1422 c 0
 583 1422 363 1221 356 801 c 0
 349 395 522 108 862 108 c 0xae
EndSplineSet
EndChar

StartChar: Ograve
Encoding: 210 210 170
Width: 1709
Flags: MW
HStem: -15 123<688 994.5 688 1055> 1422 124<715 1021> 1671 369
VStem: 125 227 445 623<1785 1852> 1356 228
LayerCount: 2
Fore
SplineSet
125 736 m 0
 132 1176 408 1546 903 1546 c 0
 1305 1546 1592 1278 1584 797 c 0
 1577 357 1302 -15 808 -15 c 0
 405 -15 118 255 125 736 c 0
858 108 m 0
 1131 108 1350 313 1356 733 c 1
 1363 1139 1191 1422 851 1422 c 0
 579 1422 359 1221 352 801 c 0
 345 395 518 108 858 108 c 0
445 1852 m 1x28
 515 2040 l 1
 1068 1785 l 1
 1030 1671 l 1
 445 1852 l 1x28
EndSplineSet
EndChar

StartChar: Oacute
Encoding: 211 211 171
Width: 1709
Flags: MW
HStem: -15 123<688 994.5 688 1055> 1422 124<715 1021> 1671 369
VStem: 125 227 650 623<1785 1852> 1356 228
LayerCount: 2
Fore
SplineSet
125 736 m 0
 132 1176 408 1546 903 1546 c 0
 1305 1546 1592 1278 1584 797 c 0
 1577 357 1302 -15 808 -15 c 0
 405 -15 118 255 125 736 c 0
858 108 m 0
 1131 108 1350 313 1356 733 c 1
 1363 1139 1191 1422 851 1422 c 0
 579 1422 359 1221 352 801 c 0
 345 395 518 108 858 108 c 0
688 1671 m 1x28
 650 1785 l 1
 1203 2040 l 1
 1273 1852 l 1
 688 1671 l 1x28
EndSplineSet
EndChar

StartChar: Ocircumflex
Encoding: 212 212 172
Width: 1709
Flags: MW
HStem: -15 123<688 994.5 688 1055> 1422 124<715 1021> 1673 367<543 880 880 1204>
VStem: 125 227 489 776<1771 1779> 1356 228
LayerCount: 2
Fore
SplineSet
125 736 m 0
 132 1176 408 1546 903 1546 c 0
 1305 1546 1592 1278 1584 797 c 0
 1577 357 1302 -15 808 -15 c 0
 405 -15 118 255 125 736 c 0
858 108 m 0
 1131 108 1350 313 1356 733 c 1
 1363 1139 1191 1422 851 1422 c 0
 579 1422 359 1221 352 801 c 0
 345 395 518 108 858 108 c 0
543 1673 m 1x28
 489 1771 l 1
 880 2040 l 1
 1265 1779 l 1
 1204 1673 l 1
 880 1829 l 1
 543 1673 l 1x28
EndSplineSet
EndChar

StartChar: Otilde
Encoding: 213 213 173
Width: 1709
Flags: MW
HStem: -15 123<688 994.5 688 1055> 1422 124<715 1021> 1669 180<1000 1076 1000 1104.5> 1793 180<686 760.5>
VStem: 125 227 473 806<1785 1857> 1356 228
LayerCount: 2
Fore
SplineSet
125 736 m 0xca
 132 1176 408 1546 903 1546 c 0
 1305 1546 1592 1278 1584 797 c 0
 1577 357 1302 -15 808 -15 c 0
 405 -15 118 255 125 736 c 0xca
858 108 m 0
 1131 108 1350 313 1356 733 c 1
 1363 1139 1191 1422 851 1422 c 0
 579 1422 359 1221 352 801 c 0
 345 395 518 108 858 108 c 0
565 1695 m 1x00
 473 1785 l 1
 481 1820 587 1973 747 1973 c 0x24
 874 1973 956 1849 1044 1849 c 0
 1108 1849 1143 1880 1197 1947 c 1
 1279 1857 l 1
 1271 1822 1185 1669 1024 1669 c 0x14
 915 1669 803 1793 718 1793 c 0
 654 1793 619 1762 565 1695 c 1x00
EndSplineSet
EndChar

StartChar: Odieresis
Encoding: 214 214 174
Width: 1709
Flags: MW
HStem: -15 123<688 994.5 688 1055> 1422 124<715 1021> 1742 290<588 668.5 1106.5 1187>
VStem: 125 227 482 285<1843.5 1924.5> 1002 285<1843.5 1924.5> 1356 228
LayerCount: 2
Fore
SplineSet
1148 1742 m 0
 1065 1742 1002 1805 1002 1882 c 0
 1002 1967 1065 2032 1148 2032 c 0
 1226 2032 1287 1967 1287 1882 c 0
 1287 1805 1226 1742 1148 1742 c 0
630 1742 m 0
 546 1742 482 1805 482 1882 c 0
 482 1967 546 2032 630 2032 c 0
 707 2032 767 1967 767 1882 c 0
 767 1805 707 1742 630 1742 c 0
125 736 m 0xd2
 132 1176 408 1546 903 1546 c 0
 1305 1546 1592 1278 1584 797 c 0
 1577 357 1302 -15 808 -15 c 0
 405 -15 118 255 125 736 c 0xd2
858 108 m 0
 1131 108 1350 313 1356 733 c 1
 1363 1139 1191 1422 851 1422 c 0
 579 1422 359 1221 352 801 c 0
 345 395 518 108 858 108 c 0
EndSplineSet
EndChar

StartChar: Oslash
Encoding: 216 216 175
Width: 1709
Flags: MW
HStem: -15 123<782.5 1011.5 705 1072> 1422 124<732 955 672.5 1038>
VStem: 142 227 1373 228
LayerCount: 2
Fore
SplineSet
350 -121 m 1
 446 85 l 1
 255 204 137 426 142 736 c 0
 149 1176 425 1546 920 1546 c 0
 990 1546 1057 1537 1119 1521 c 1
 1208 1716 l 1
 1358 1656 l 1
 1266 1464 l 1
 1476 1351 1606 1123 1601 797 c 0
 1594 357 1319 -15 825 -15 c 0
 740 -15 661 -3 588 20 c 1
 495 -185 l 1
 350 -121 l 1
875 108 m 0
 1148 108 1367 313 1373 733 c 1
 1380 1139 1208 1422 868 1422 c 0
 596 1422 376 1221 369 801 c 0
 362 395 535 108 875 108 c 0
EndSplineSet
EndChar

StartChar: Racute
Encoding: 340 340 176
Width: 1535
Flags: MW
HStem: 0 106<147 159 159 159 578.5 650> 0 115 686 116<511 603 511 756> 1418 112<200.5 266.5> 1433 112<780 860.5> 1671 369
VStem: 315 196<258.5 279 279 349> 467 623<1785 1852> 1092 221<1022.5 1220.5>
LayerCount: 2
Fore
SplineSet
147 0 m 1xaa80
 159 106 l 1
 305 108 315 168 315 349 c 2
 314 1252 l 2
 314 1365 317 1418 216 1418 c 0
 185 1418 142 1413 118 1408 c 1
 134 1530 l 1
 416 1530 l 2xb280
 491 1530 737 1545 823 1545 c 0
 1155 1545 1313 1394 1313 1155 c 0
 1313 890 1085 730 916 712 c 1
 1143 656 1295 118 1431 115 c 0
 1462 114 1486 118 1509 125 c 1x6a80
 1504 0 l 1
 1358 0 l 2
 1236 0 1169 47 1119 102 c 1
 1043 199 1017 355 939 483 c 1
 843 643 794 686 603 686 c 2
 511 686 l 1
 511 279 l 2
 511 162 526 106 631 106 c 0
 669 106 704 112 736 120 c 1
 725 0 l 1
 147 0 l 1xaa80
511 802 m 1
 756 802 l 1
 933 801 1092 914 1092 1123 c 0
 1092 1318 979 1433 742 1433 c 0
 707 1433 570 1434 511 1415 c 1xaa80
 511 802 l 1
505 1671 m 1x05
 467 1785 l 1
 1020 2040 l 1
 1090 1852 l 1
 505 1671 l 1x05
EndSplineSet
EndChar

StartChar: Rcaron
Encoding: 344 344 177
Width: 1535
Flags: MW
HStem: 0 106<147 159 159 159 578.5 650> 0 115 686 116<511 603 511 756> 1418 112<200.5 266.5> 1433 112<780 860.5> 1673 367<361 698>
VStem: 307 776<1934 1934> 315 196<258.5 279 279 349> 1092 221<1022.5 1220.5>
LayerCount: 2
Fore
SplineSet
147 0 m 1xa980
 159 106 l 1
 305 108 315 168 315 349 c 2
 314 1252 l 2
 314 1365 317 1418 216 1418 c 0
 185 1418 142 1413 118 1408 c 1
 134 1530 l 1
 416 1530 l 2xb180
 491 1530 737 1545 823 1545 c 0
 1155 1545 1313 1394 1313 1155 c 0
 1313 890 1085 730 916 712 c 1
 1143 656 1295 118 1431 115 c 0
 1462 114 1486 118 1509 125 c 1x6980
 1504 0 l 1
 1358 0 l 2
 1236 0 1169 47 1119 102 c 1
 1043 199 1017 355 939 483 c 1
 843 643 794 686 603 686 c 2
 511 686 l 1
 511 279 l 2
 511 162 526 106 631 106 c 0
 669 106 704 112 736 120 c 1
 725 0 l 1
 147 0 l 1xa980
511 802 m 1
 756 802 l 1
 933 801 1092 914 1092 1123 c 0
 1092 1318 979 1433 742 1433 c 0
 707 1433 570 1434 511 1415 c 1xa980
 511 802 l 1
698 1673 m 1x06
 307 1934 l 1
 361 2040 l 1
 698 1884 l 1
 1022 2040 l 1
 1083 1934 l 1
 698 1673 l 1x06
EndSplineSet
EndChar

StartChar: Ugrave
Encoding: 217 217 178
Width: 1537
Flags: MW
HStem: -15 123<677.5 907 677.5 982.5> 1418 112<106 143 508.5 592 1098.5 1149.5 1429.5 1495> 1671 369
VStem: 201 206<445 646 646 924> 406 623<1785 1852> 1218 138<636 1194>
LayerCount: 2
Fore
SplineSet
201 617 m 0xd4
 201 1231 200 1268 200 1264 c 1
 199 1417 174 1418 112 1418 c 0
 100 1418 66 1413 42 1408 c 1
 56 1530 l 1
 607 1530 l 1
 592 1418 l 1
 425 1418 407 1395 407 1222 c 2
 407 646 l 2
 407 244 566 108 789 108 c 0
 1025 108 1218 187 1218 636 c 2
 1218 1197 l 2
 1218 1366 1190 1418 1109 1418 c 0
 1088 1418 1056 1414 1031 1408 c 1
 1042 1530 l 1
 1510 1530 l 1
 1495 1418 l 1
 1364 1418 1356 1374 1356 1194 c 2
 1356 610 l 2
 1356 199 1175 -15 790 -15 c 0
 369 -15 201 239 201 617 c 0xd4
406 1852 m 1x28
 476 2040 l 1
 1029 1785 l 1
 991 1671 l 1
 406 1852 l 1x28
EndSplineSet
EndChar

StartChar: Uacute
Encoding: 218 218 179
Width: 1537
Flags: MW
HStem: -15 123<677.5 907 677.5 982.5> 1418 112<106 143 508.5 592 1098.5 1149.5 1429.5 1495> 1671 369
VStem: 201 206<445 646 646 924> 611 623<1785 1852> 1218 138<636 1194>
LayerCount: 2
Fore
SplineSet
201 617 m 0xd4
 201 1231 200 1268 200 1264 c 1
 199 1417 174 1418 112 1418 c 0
 100 1418 66 1413 42 1408 c 1
 56 1530 l 1
 607 1530 l 1
 592 1418 l 1
 425 1418 407 1395 407 1222 c 2
 407 646 l 2
 407 244 566 108 789 108 c 0
 1025 108 1218 187 1218 636 c 2
 1218 1197 l 2
 1218 1366 1190 1418 1109 1418 c 0
 1088 1418 1056 1414 1031 1408 c 1
 1042 1530 l 1
 1510 1530 l 1
 1495 1418 l 1
 1364 1418 1356 1374 1356 1194 c 2
 1356 610 l 2
 1356 199 1175 -15 790 -15 c 0
 369 -15 201 239 201 617 c 0xd4
649 1671 m 1x28
 611 1785 l 1
 1164 2040 l 1
 1234 1852 l 1
 649 1671 l 1x28
EndSplineSet
EndChar

StartChar: Ucircumflex
Encoding: 219 219 180
Width: 1537
Flags: MW
HStem: -15 123<677.5 907 677.5 982.5> 1418 112<106 143 508.5 592 1098.5 1149.5 1429.5 1495> 1673 367<504 841 841 1165>
VStem: 201 206<445 646 646 924> 450 776<1771 1779> 1218 138<636 1194>
LayerCount: 2
Fore
SplineSet
201 617 m 0xd4
 201 1231 200 1268 200 1264 c 1
 199 1417 174 1418 112 1418 c 0
 100 1418 66 1413 42 1408 c 1
 56 1530 l 1
 607 1530 l 1
 592 1418 l 1
 425 1418 407 1395 407 1222 c 2
 407 646 l 2
 407 244 566 108 789 108 c 0
 1025 108 1218 187 1218 636 c 2
 1218 1197 l 2
 1218 1366 1190 1418 1109 1418 c 0
 1088 1418 1056 1414 1031 1408 c 1
 1042 1530 l 1
 1510 1530 l 1
 1495 1418 l 1
 1364 1418 1356 1374 1356 1194 c 2
 1356 610 l 2
 1356 199 1175 -15 790 -15 c 0
 369 -15 201 239 201 617 c 0xd4
504 1673 m 1x28
 450 1771 l 1
 841 2040 l 1
 1226 1779 l 1
 1165 1673 l 1
 841 1829 l 1
 504 1673 l 1x28
EndSplineSet
EndChar

StartChar: Udieresis
Encoding: 220 220 181
Width: 1537
Flags: MW
HStem: -15 123<677.5 907 677.5 982.5> 1418 112<106 143 508.5 592 1098.5 1149.5 1429.5 1495> 1742 290<581 661.5 1039.5 1120>
VStem: 201 206<445 646 646 924> 475 285<1843.5 1924.5> 935 285<1843.5 1924.5> 1218 138<636 1194>
LayerCount: 2
Fore
SplineSet
201 617 m 0xd2
 201 1231 200 1268 200 1264 c 1
 199 1417 174 1418 112 1418 c 0
 100 1418 66 1413 42 1408 c 1
 56 1530 l 1
 607 1530 l 1
 592 1418 l 1
 425 1418 407 1395 407 1222 c 2
 407 646 l 2
 407 244 566 108 789 108 c 0
 1025 108 1218 187 1218 636 c 2
 1218 1197 l 2
 1218 1366 1190 1418 1109 1418 c 0
 1088 1418 1056 1414 1031 1408 c 1
 1042 1530 l 1
 1510 1530 l 1
 1495 1418 l 1
 1364 1418 1356 1374 1356 1194 c 2
 1356 610 l 2
 1356 199 1175 -15 790 -15 c 0
 369 -15 201 239 201 617 c 0xd2
1081 1742 m 0x2c
 998 1742 935 1805 935 1882 c 0
 935 1967 998 2032 1081 2032 c 0
 1159 2032 1220 1967 1220 1882 c 0
 1220 1805 1159 1742 1081 1742 c 0x2c
623 1742 m 0
 539 1742 475 1805 475 1882 c 0
 475 1967 539 2032 623 2032 c 0
 700 2032 760 1967 760 1882 c 0
 760 1805 700 1742 623 1742 c 0
EndSplineSet
EndChar

StartChar: Yacute
Encoding: 221 221 182
Width: 1364
Flags: MW
HStem: 0 105<360 368 368 368 870 954> 1418 112<-35 -2.5 471.5 535 951 1010 1351.5 1410> 1671 369
VStem: 494 623<1785 1852> 613 200<279 347 347 533 249.5 533>
LayerCount: 2
Fore
SplineSet
360 0 m 1xc8
 368 105 l 1
 576 102 613 120 613 279 c 2
 613 533 l 1
 131 1331 l 1
 90 1393 45 1418 -50 1418 c 1
 -35 1530 l 1
 561 1530 l 1
 535 1418 l 1
 408 1418 367 1415 367 1347 c 0
 367 1242 553 1000 670 788 c 1
 734 651 l 1
 845 852 1043 1225 1055 1313 c 0
 1062 1358 1058 1418 962 1418 c 0
 940 1418 902 1415 868 1408 c 1
 883 1530 l 1
 1429 1530 l 1
 1410 1418 l 1
 1293 1418 1259 1390 1192 1250 c 1
 813 533 l 1
 813 347 l 2
 813 152 817 105 923 105 c 0
 985 105 1034 112 1055 118 c 1
 1046 0 l 1
 360 0 l 1xc8
532 1671 m 1x30
 494 1785 l 1
 1047 2040 l 1
 1117 1852 l 1
 532 1671 l 1x30
EndSplineSet
EndChar

StartChar: Thorn
Encoding: 222 222 183
Width: 1364
Flags: MW
HStem: 0 106<599.5 684 599.5 765> 311 118 1148 109<753 819 753 822.5> 1418 112<187 229.5 600 673>
VStem: 299 206 1106 216<656.5 924.5>
LayerCount: 2
Fore
SplineSet
131 0 m 1
 142 105 l 1
 265 105 300 179 300 330 c 2
 299 1215 l 2
 299 1390 255 1418 204 1418 c 0
 170 1418 133 1417 101 1411 c 1
 117 1530 l 1
 689 1530 l 1
 673 1418 l 1
 527 1418 511 1386 510 1245 c 1
 635 1249 687 1257 819 1257 c 1
 1186 1252 1322 1066 1322 808 c 0
 1322 445 963 237 606 335 c 1
 588 447 l 1
 883 376 1106 518 1106 795 c 0
 1106 1054 940 1148 705 1148 c 0
 652 1148 565 1141 510 1128 c 1
 505 260 l 2
 505 138 535 106 664 106 c 0
 704 106 752 118 777 124 c 1
 765 0 l 1
 131 0 l 1
EndSplineSet
EndChar

StartChar: AE
Encoding: 198 198 184
Width: 2049
Flags: MW
HStem: 0 106<807 877 824 877 824 1948> 0 111<1381 1578 1578 1670 1381 1948> 680 119<656 983 656 983 593 983 1179 1370> 1417 113<648 685 685 833 984 984 1179 1179 1179 1563> 1417 128
VStem: 983 195 1552 103<482 482>
LayerCount: 2
Fore
SplineSet
-94 0 m 1x74
 -80 105 l 1
 21 105 88 138 142 230 c 2
 833 1417 l 1
 685 1417 l 2
 611 1417 475 1399 416 1382 c 1
 425 1530 l 1
 1603 1530 l 2xb4
 1874 1530 1955 1545 1955 1545 c 1x6c
 1956 1382 1925 1225 1909 1171 c 1
 1825 1171 l 1
 1811 1397 1756 1417 1563 1417 c 2
 1179 1417 l 1
 1179 799 l 1
 1376 799 l 2
 1530 799 1560 857 1571 969 c 1
 1674 970 l 1
 1677 813 1664 619 1655 482 c 1
 1552 482 l 1
 1544 619 1505 680 1370 680 c 2
 1179 680 l 1
 1179 278 l 2
 1179 144 1216 116 1381 111 c 0
 1428 110 1522 111 1578 111 c 0
 1762 111 1873 226 1894 407 c 1
 2001 407 l 1
 2002 298 1970 114 1948 0 c 1
 807 0 l 1x76
 807 0 820 84 824 106 c 1
 930 106 983 132 983 268 c 2
 983 680 l 1
 593 680 l 1
 351 223 l 2
 317 159 351 109 390 106 c 1
 422 105 503 108 537 120 c 1xb4
 522 0 l 1
 -94 0 l 1x74
656 799 m 1
 983 799 l 1
 984 1417 l 1
 656 799 l 1
EndSplineSet
EndChar

StartChar: ydieresis
Encoding: 255 255 185
Width: 1193
Flags: MW
HStem: -520 192<316.5 407.5> 1082 107<27 51 507 507 856 923> 1403 292<399.5 481.5 867.5 949.5>
VStem: 13 1248<1081 1189> 291 291<1505.5 1586.5> 761 291<1505.5 1586.5>
LayerCount: 2
Fore
SplineSet
146 -262 m 1xd0
 213 -299 285 -328 348 -328 c 0
 468 -328 533 -192 574 -87 c 0
 588 -50 602 -17 614 15 c 1
 525 56 l 1
 525 56 180 903 152 976 c 0
 122 1053 75 1082 27 1082 c 0
 22 1082 17 1081 13 1081 c 1
 27 1189 l 1
 521 1189 l 1
 507 1082 l 1
 497 1080 457 1080 445 1080 c 0
 422 1080 360 1071 360 994 c 0
 360 908 576 391 669 158 c 1
 785 461 805 541 944 940 c 1
 964 1012 982 1082 864 1082 c 0
 848 1082 809 1077 796 1076 c 1
 813 1189 l 1
 1261 1189 l 1
 1244 1079 l 1
 1238 1080 1223 1081 1217 1081 c 0
 1173 1081 1142 1010 1098 903 c 1
 956 578 792 66 638 -271 c 0
 568 -423 477 -520 338 -520 c 0
 247 -520 140 -452 82 -372 c 1
 146 -262 l 1xd0
910 1403 m 0x2c
 825 1403 761 1467 761 1544 c 0
 761 1629 825 1695 910 1695 c 0
 989 1695 1052 1629 1052 1544 c 0
 1052 1467 989 1403 910 1403 c 0x2c
442 1403 m 0
 357 1403 291 1467 291 1544 c 0
 291 1629 357 1695 442 1695 c 0
 521 1695 582 1629 582 1544 c 0
 582 1467 521 1403 442 1403 c 0
EndSplineSet
EndChar

StartChar: eth
Encoding: 240 240 186
Width: 1322
Flags: MW
HStem: -15 107<568.5 770.5 568.5 856> 1044 117<546 744 528.5 762> 1530 20G<458 458>
VStem: 123 215<462 689 447.5 712> 1023 210<454.5 667.5>
LayerCount: 2
Fore
SplineSet
123 570 m 0
 123 854 357 1161 700 1161 c 0
 788 1161 848 1152 895 1137 c 1
 812 1290 696 1406 572 1483 c 1
 440 1279 l 1
 327 1352 l 1
 458 1550 l 1
 362 1597 276 1632 194 1653 c 1
 194 1653 234 1739 235 1748 c 1
 235 1749 l 1
 243 1748 256 1742 295 1733 c 1
 372 1712 450 1686 529 1654 c 1
 650 1841 l 1
 757 1768 l 1
 645 1594 l 1
 961 1427 1233 1109 1233 613 c 0
 1233 296 1034 -15 678 -15 c 0
 194 -15 123 354 123 570 c 0
338 562 m 0
 338 333 468 92 669 92 c 0
 872 92 1023 200 1023 607 c 0
 1023 728 1006 839 977 938 c 1
 926 987 834 1044 690 1044 c 0
 402 1044 338 816 338 562 c 0
EndSplineSet
EndChar

StartChar: thorn
Encoding: 254 254 187
Width: 1362
Flags: MW
HStem: -510 108<86 142 86 680 70 142> -510 118<488.5 528 488.5 680> -15 123<664.5 837 664.5 868.5> 1043 166<755.5 834>
VStem: 64 378 252 188<212 212 212 547 547 547> 1096 184<466 747>
LayerCount: 2
Fore
SplineSet
252 -181 m 2x76
 252 547 l 1
 246 1368 l 2
 246 1448 242 1481 221 1505 c 0x76
 190 1542 115 1537 58 1537 c 1
 70 1649 l 1x7a
 458 1706 l 1
 444 1645 440 1470 440 1197 c 1
 431 1054 l 1x76
 533 1141 699 1209 812 1209 c 0
 1033 1209 1280 1072 1280 642 c 0
 1280 290 1038 -15 699 -15 c 0
 586 -15 503 0 441 17 c 1
 440 -203 442 -243 442 -257 c 0
 442 -373 449 -392 528 -392 c 1
 528 -392 691 -388 697 -384 c 1
 680 -510 l 1
 70 -510 l 1x7a
 86 -402 l 1xb6
 198 -402 252 -385 252 -181 c 2x76
440 212 m 1
 478 154 614 108 715 108 c 0
 959 108 1096 302 1096 617 c 0
 1096 877 944 1043 724 1043 c 0
 617 1043 465 969 440 942 c 1
 440 212 l 1
EndSplineSet
EndChar

StartChar: ecircumflex
Encoding: 234 234 188
Width: 1195
Flags: MW
HStem: -17 170<556.5 675 556.5 680.5> 588 112 1092 117<533.5 707.5> 1349 399<282 606 606 917>
VStem: 116 196<445.5 588 688 757.5> 207 792<1450 1451> 867 214<705 882.5>
LayerCount: 2
Fore
SplineSet
116 560 m 0xea
 116 955 382 1209 661 1209 c 0
 951 1209 1080 1034 1081 723 c 0
 1081 687 1084 588 1058 588 c 2
 312 588 l 1
 312 303 438 153 675 153 c 1
 797 160 918 191 1021 245 c 1
 1063 166 l 1
 937 59 743 -17 618 -17 c 0
 282 -17 116 195 116 560 c 0xea
312 688 m 1
 866 712 l 1
 867 741 867 752 867 780 c 0
 867 985 801 1092 614 1092 c 0
 453 1092 312 887 312 688 c 1
282 1349 m 1x14
 207 1451 l 1
 606 1748 l 1
 999 1450 l 1
 917 1349 l 1
 606 1523 l 1
 282 1349 l 1x14
EndSplineSet
EndChar

StartChar: eacute
Encoding: 233 233 189
Width: 1195
Flags: MW
HStem: -17 170<556.5 675 556.5 680.5> 588 112 1092 117<533.5 707.5> 1311 446<548 903>
VStem: 116 196<445.5 588 688 757.5> 479 541<1419 1593> 867 214<705 882.5>
LayerCount: 2
Fore
SplineSet
116 560 m 0xea
 116 955 382 1209 661 1209 c 0
 951 1209 1080 1034 1081 723 c 0
 1081 687 1084 588 1058 588 c 2
 312 588 l 1
 312 303 438 153 675 153 c 1
 797 160 918 191 1021 245 c 1
 1063 166 l 1
 937 59 743 -17 618 -17 c 0
 282 -17 116 195 116 560 c 0xea
312 688 m 1
 866 712 l 1
 867 741 867 752 867 780 c 0
 867 985 801 1092 614 1092 c 0
 453 1092 312 887 312 688 c 1
548 1311 m 1x14
 479 1419 l 1
 903 1757 l 1
 1020 1593 l 1
 548 1311 l 1x14
EndSplineSet
EndChar

StartChar: egrave
Encoding: 232 232 190
Width: 1195
Flags: MW
HStem: -17 170<556.5 675 556.5 680.5> 588 112 1092 117<533.5 707.5> 1311 446<286 641>
VStem: 116 196<445.5 588 688 757.5> 169 541<1419 1593> 867 214<705 882.5>
LayerCount: 2
Fore
SplineSet
116 560 m 0xea
 116 955 382 1209 661 1209 c 0
 951 1209 1080 1034 1081 723 c 0
 1081 687 1084 588 1058 588 c 2
 312 588 l 1
 312 303 438 153 675 153 c 1
 797 160 918 191 1021 245 c 1
 1063 166 l 1
 937 59 743 -17 618 -17 c 0
 282 -17 116 195 116 560 c 0xea
312 688 m 1
 866 712 l 1
 867 741 867 752 867 780 c 0
 867 985 801 1092 614 1092 c 0
 453 1092 312 887 312 688 c 1
641 1311 m 1x14
 169 1593 l 1
 286 1757 l 1
 710 1419 l 1
 641 1311 l 1x14
EndSplineSet
EndChar

StartChar: ccedilla
Encoding: 231 231 191
Width: 1191
Flags: MW
HStem: -517 158 -17 176<584.5 758> 1093 116<577.5 776>
VStem: 119 202<471.5 754> 570 106 692 173<-303 -235.5> 903 160<844 1071.5>
LayerCount: 2
Fore
SplineSet
119 539 m 0
 119 969 404 1209 728 1209 c 0
 902 1209 994 1167 1056 1153 c 1
 1062 1140 1063 1090 1063 1053 c 0
 1063 978 1047 876 1041 844 c 1
 1036 837 1013 837 985 837 c 0
 956 837 919 837 903 844 c 1
 903 975 881 1093 671 1093 c 0
 484 1093 321 926 321 610 c 0
 321 333 450 159 719 159 c 0
 855 159 959 199 1046 246 c 1
 1082 171 l 1
 1040 127 858 -17 658 -17 c 0
 345 -17 119 195 119 539 c 0
419 -313 m 1x00
 419 -313 487 -359 587 -359 c 0
 666 -359 692 -318 692 -288 c 0
 692 -183 479 -189 615 40 c 1
 683 40 l 1
 630 -103 865 -116 865 -287 c 0x88
 865 -443 716 -518 613 -517 c 0
 472 -516 419 -482 419 -482 c 1
 419 -313 l 1x00
EndSplineSet
EndChar

StartChar: agrave
Encoding: 224 224 192
Width: 1195
Flags: MW
HStem: -23 141<470 524.5> 577 102<667.5 832> 1082 127<547.5 632.5> 1311 446<275 630>
VStem: 114 213<261 398 261 429> 158 541<1419 1593> 164 191 831 169
LayerCount: 2
Fore
SplineSet
114 303 m 0xe9
 114 555 421 679 814 679 c 2
 832 679 l 1
 829 845 l 2
 825 1031 679 1082 586 1082 c 0
 413 1082 327 983 363 810 c 1
 191 810 l 1
 191 810 178 862 170 935 c 0
 161 1008 163 1018 169 1025 c 1xe3
 229 1064 421 1209 674 1209 c 0
 856 1209 1016 1130 1016 872 c 0
 1016 693 1000 531 1000 339 c 0
 1000 176 1113 150 1181 150 c 1
 1177 83 1088 -8 1038 -22 c 1
 958 -22 879 38 842 151 c 1
 745 49 567 -23 482 -23 c 0
 241 -23 114 107 114 303 c 0xe9
327 316 m 0
 327 206 409 118 531 118 c 0
 630 118 750 192 821 280 c 1
 821 300 l 1
 827 416 830 502 831 572 c 1
 821 575 810 577 799 577 c 0
 536 577 327 480 327 316 c 0
630 1311 m 1x14
 158 1593 l 1
 275 1757 l 1
 699 1419 l 1
 630 1311 l 1x14
EndSplineSet
EndChar

StartChar: aacute
Encoding: 225 225 193
Width: 1195
Flags: MW
HStem: -23 141<470 524.5> 577 102<667.5 832> 1082 127<547.5 632.5> 1311 446<537 892>
VStem: 114 213<261 398 261 429> 164 191 468 541<1419 1593> 831 169
LayerCount: 2
Fore
SplineSet
114 303 m 0xe9
 114 555 421 679 814 679 c 2
 832 679 l 1
 829 845 l 2
 825 1031 679 1082 586 1082 c 0
 413 1082 327 983 363 810 c 1
 191 810 l 1
 191 810 178 862 170 935 c 0
 161 1008 163 1018 169 1025 c 1xe5
 229 1064 421 1209 674 1209 c 0
 856 1209 1016 1130 1016 872 c 0
 1016 693 1000 531 1000 339 c 0
 1000 176 1113 150 1181 150 c 1
 1177 83 1088 -8 1038 -22 c 1
 958 -22 879 38 842 151 c 1
 745 49 567 -23 482 -23 c 0
 241 -23 114 107 114 303 c 0xe9
327 316 m 0
 327 206 409 118 531 118 c 0
 630 118 750 192 821 280 c 1
 821 300 l 1
 827 416 830 502 831 572 c 1
 821 575 810 577 799 577 c 0
 536 577 327 480 327 316 c 0
537 1311 m 1x12
 468 1419 l 1
 892 1757 l 1
 1009 1593 l 1
 537 1311 l 1x12
EndSplineSet
EndChar

StartChar: acircumflex
Encoding: 226 226 194
Width: 1195
Flags: MW
HStem: -23 141<470 524.5> 577 102<667.5 832> 1082 127<547.5 632.5> 1349 399<271 595 595 906>
VStem: 114 213<261 398 261 429> 164 191 196 792<1450 1451> 831 169
LayerCount: 2
Fore
SplineSet
114 303 m 0xe9
 114 555 421 679 814 679 c 2
 832 679 l 1
 829 845 l 2
 825 1031 679 1082 586 1082 c 0
 413 1082 327 983 363 810 c 1
 191 810 l 1
 191 810 178 862 170 935 c 0
 161 1008 163 1018 169 1025 c 1xe5
 229 1064 421 1209 674 1209 c 0
 856 1209 1016 1130 1016 872 c 0
 1016 693 1000 531 1000 339 c 0
 1000 176 1113 150 1181 150 c 1
 1177 83 1088 -8 1038 -22 c 1
 958 -22 879 38 842 151 c 1
 745 49 567 -23 482 -23 c 0
 241 -23 114 107 114 303 c 0xe9
327 316 m 0
 327 206 409 118 531 118 c 0
 630 118 750 192 821 280 c 1
 821 300 l 1
 827 416 830 502 831 572 c 1
 821 575 810 577 799 577 c 0
 536 577 327 480 327 316 c 0
271 1349 m 1x12
 196 1451 l 1
 595 1748 l 1
 988 1450 l 1
 906 1349 l 1
 595 1523 l 1
 271 1349 l 1x12
EndSplineSet
EndChar

StartChar: adieresis
Encoding: 228 228 195
Width: 1195
Flags: MW
HStem: -23 141<470 524.5> 577 102<667.5 832> 1082 127<547.5 632.5> 1403 292<323.5 405.5 791.5 873.5>
VStem: 114 213<261 398 261 429> 164 191 215 291<1505.5 1586.5> 685 291<1505.5 1586.5> 831 169
LayerCount: 2
Fore
SplineSet
114 303 m 0xe880
 114 555 421 679 814 679 c 2
 832 679 l 1
 829 845 l 2
 825 1031 679 1082 586 1082 c 0
 413 1082 327 983 363 810 c 1
 191 810 l 1
 191 810 178 862 170 935 c 0
 161 1008 163 1018 169 1025 c 1xe480
 229 1064 421 1209 674 1209 c 0
 856 1209 1016 1130 1016 872 c 0
 1016 693 1000 531 1000 339 c 0
 1000 176 1113 150 1181 150 c 1
 1177 83 1088 -8 1038 -22 c 1
 958 -22 879 38 842 151 c 1
 745 49 567 -23 482 -23 c 0
 241 -23 114 107 114 303 c 0xe880
327 316 m 0
 327 206 409 118 531 118 c 0
 630 118 750 192 821 280 c 1
 821 300 l 1
 827 416 830 502 831 572 c 1
 821 575 810 577 799 577 c 0
 536 577 327 480 327 316 c 0
834 1403 m 0x13
 749 1403 685 1467 685 1544 c 0
 685 1629 749 1695 834 1695 c 0
 913 1695 976 1629 976 1544 c 0
 976 1467 913 1403 834 1403 c 0x13
366 1403 m 0
 281 1403 215 1467 215 1544 c 0
 215 1629 281 1695 366 1695 c 0
 445 1695 506 1629 506 1544 c 0
 506 1467 445 1403 366 1403 c 0
EndSplineSet
EndChar

StartChar: atilde
Encoding: 227 227 196
Width: 1195
Flags: MW
HStem: -23 141<470 524.5> 577 102<667.5 832> 1082 127<547.5 632.5> 1390 180<715 791 715 819.5> 1514 180<401 475.5>
VStem: 114 213<261 398 261 429> 164 191 198 796<1506 1578> 831 169
LayerCount: 2
Fore
SplineSet
114 303 m 0xe480
 114 555 421 679 814 679 c 2
 832 679 l 1
 829 845 l 2
 825 1031 679 1082 586 1082 c 0
 413 1082 327 983 363 810 c 1
 191 810 l 1
 191 810 178 862 170 935 c 0
 161 1008 163 1018 169 1025 c 1xe280
 229 1064 421 1209 674 1209 c 0
 856 1209 1016 1130 1016 872 c 0
 1016 693 1000 531 1000 339 c 0
 1000 176 1113 150 1181 150 c 1
 1177 83 1088 -8 1038 -22 c 1
 958 -22 879 38 842 151 c 1
 745 49 567 -23 482 -23 c 0
 241 -23 114 107 114 303 c 0xe480
327 316 m 0
 327 206 409 118 531 118 c 0
 630 118 750 192 821 280 c 1
 821 300 l 1
 827 416 830 502 831 572 c 1
 821 575 810 577 799 577 c 0
 536 577 327 480 327 316 c 0
280 1416 m 1x00
 198 1506 l 1x11
 206 1541 302 1694 462 1694 c 0
 589 1694 671 1570 759 1570 c 0
 823 1570 858 1601 912 1668 c 1
 994 1578 l 1
 986 1543 900 1390 739 1390 c 0x09
 630 1390 518 1514 433 1514 c 0
 369 1514 334 1483 280 1416 c 1x00
EndSplineSet
EndChar

StartChar: aring
Encoding: 229 229 197
Width: 1195
Flags: MW
HStem: -23 141<470 524.5> 577 102<667.5 832> 1082 127<547.5 632.5> 1285 118<555 639.5 555 666.5> 1701 117<550.5 635>
VStem: 114 213<261 398 261 429> 164 191 299 148<1515.5 1599.5 1515.5 1642.5> 743 148<1504.5 1588.5> 831 169
LayerCount: 2
Fore
SplineSet
114 303 m 0xe440
 114 555 421 679 814 679 c 2
 832 679 l 1
 829 845 l 2
 825 1031 679 1082 586 1082 c 0
 413 1082 327 983 363 810 c 1
 191 810 l 1
 191 810 178 862 170 935 c 0
 161 1008 163 1018 169 1025 c 1xe240
 229 1064 421 1209 674 1209 c 0
 856 1209 1016 1130 1016 872 c 0
 1016 693 1000 531 1000 339 c 0
 1000 176 1113 150 1181 150 c 1
 1177 83 1088 -8 1038 -22 c 1
 958 -22 879 38 842 151 c 1
 745 49 567 -23 482 -23 c 0
 241 -23 114 107 114 303 c 0xe440
327 316 m 0
 327 206 409 118 531 118 c 0
 630 118 750 192 821 280 c 1
 821 300 l 1
 827 416 830 502 831 572 c 1
 821 575 810 577 799 577 c 0
 536 577 327 480 327 316 c 0
595 1285 m 0x1980
 423 1285 299 1389 299 1558 c 0
 299 1727 452 1818 595 1818 c 0
 767 1818 891 1715 891 1546 c 0
 891 1377 738 1285 595 1285 c 0x1980
595 1403 m 0
 684 1403 743 1463 743 1546 c 0
 743 1631 675 1701 595 1701 c 0
 506 1701 447 1641 447 1558 c 0
 447 1473 515 1403 595 1403 c 0
EndSplineSet
EndChar

StartChar: florin
Encoding: 402 402 198
Width: 860
Flags: MW
HStem: 1045 145<140 344 551 794> 1654 117
VStem: 866 203
LayerCount: 2
Fore
SplineSet
181 -357 m 1
 181 -357 234 148 329 1045 c 1
 140 1045 l 1
 165 1170 l 1
 344 1190 l 1
 350 1252 367 1329 377 1386 c 1
 407 1540 526 1773 836 1771 c 0
 982 1770 1078 1725 1069 1637 c 0
 1062 1572 1030 1506 1011 1470 c 1
 1011 1470 967 1464 925 1465 c 0
 912 1465 867 1466 855 1471 c 1
 877 1573 875 1656 754 1654 c 1
 648 1651 584 1503 570 1374 c 2
 551 1190 l 1
 824 1190 l 1
 794 1045 l 1
 536 1045 l 1
 426 2 310 -357 310 -357 c 1
 181 -357 l 1
EndSplineSet
EndChar

StartChar: dagger
Encoding: 8224 8224 199
Width: 1201
Flags: MW
HStem: 1181 20G<90 90 1111 1111>
VStem: 90 1021<1052 1201 986.5 1201>
LayerCount: 2
Fore
SplineSet
459 -170 m 1
 557 1028 l 1
 202 945 l 2
 194 943 90 919 90 1052 c 2
 90 1201 l 1
 560 1111 l 1
 467 1544 l 2
 465 1552 441 1656 574 1656 c 2
 742 1656 l 1
 643 1111 l 1
 1111 1201 l 1
 1111 1052 l 2
 1111 921 999 945 999 945 c 1
 976 950 701 1009 643 1024 c 1
 733 -60 l 1
 733 -58 l 1
 733 -58 764 -170 626 -170 c 2
 459 -170 l 1
EndSplineSet
EndChar

StartChar: daggerdbl
Encoding: 8225 8225 200
Width: 1196
Flags: MW
HStem: 1181 20G<87 87 1108 1108>
VStem: 87 1021<286 435 286 500.5 1052 1201 286 1201>
LayerCount: 2
Fore
SplineSet
87 286 m 1
 87 435 l 2
 87 566 199 542 199 542 c 1
 554 463 l 1
 488 751 l 1
 555 1028 l 1
 199 945 l 2
 191 943 87 919 87 1052 c 2
 87 1201 l 1
 557 1111 l 1
 464 1544 l 2
 462 1552 438 1656 571 1656 c 2
 739 1656 l 1
 640 1111 l 1
 1108 1201 l 1
 1108 1052 l 2
 1108 921 996 945 996 945 c 1
 973 950 698 1009 640 1024 c 1
 707 751 l 1
 640 459 l 1
 996 542 l 2
 1004 544 1108 568 1108 435 c 2
 1108 286 l 1
 638 376 l 1
 731 -58 l 2
 733 -66 757 -170 624 -170 c 2
 456 -170 l 1
 554 375 l 1
 87 286 l 1
EndSplineSet
EndChar

StartChar: macron
Encoding: 175 175 201
Width: 678
Flags: MW
HStem: 1463 158<-54 720 -34 700>
VStem: -54 774<1463 1621>
LayerCount: 2
Fore
SplineSet
-54 1463 m 1
 -34 1621 l 1
 720 1621 l 1
 700 1463 l 1
 -54 1463 l 1
EndSplineSet
EndChar

StartChar: dotaccent
Encoding: 729 729 202
Width: 678
Flags: MW
HStem: 1400 305<298.5 381>
VStem: 191 292<1506 1594>
LayerCount: 2
Fore
SplineSet
341 1400 m 0
 256 1400 191 1464 191 1548 c 0
 191 1640 256 1705 341 1705 c 0
 421 1705 483 1640 483 1548 c 0
 483 1464 421 1400 341 1400 c 0
EndSplineSet
EndChar

StartChar: ring
Encoding: 730 730 203
Width: 505
Flags: MW
HStem: 1285 118<213 297.5 213 324.5> 1701 117<208.5 293>
VStem: -43 148<1515.5 1599.5 1515.5 1642.5> 401 148<1504.5 1588.5>
LayerCount: 2
Fore
SplineSet
253 1285 m 0
 81 1285 -43 1389 -43 1558 c 0
 -43 1727 110 1818 253 1818 c 0
 425 1818 549 1715 549 1546 c 0
 549 1377 396 1285 253 1285 c 0
253 1403 m 0
 342 1403 401 1463 401 1546 c 0
 401 1631 333 1701 253 1701 c 0
 164 1701 105 1641 105 1558 c 0
 105 1473 173 1403 253 1403 c 0
EndSplineSet
EndChar

StartChar: hungarumlaut
Encoding: 733 733 204
Width: 1287
Flags: MW
HStem: 1351 437<405 671 671 854>
VStem: 322 912<1437 1647>
LayerCount: 2
Fore
SplineSet
854 1351 m 1
 771 1437 l 1
 1120 1788 l 1
 1234 1647 l 1
 854 1351 l 1
405 1351 m 1
 322 1437 l 1
 671 1788 l 1
 785 1647 l 1
 405 1351 l 1
EndSplineSet
EndChar

StartChar: oacute
Encoding: 243 243 205
Width: 1365
Flags: MW
HStem: -15 123<578 786 578 805> 1092 117<580 779> 1311 446<624 979>
VStem: 121 215 555 541<1419 1593> 1023 220
LayerCount: 2
Fore
SplineSet
121 595 m 0xd4
 142 978 406 1209 725 1209 c 0
 1071 1209 1261 943 1243 599 c 0
 1223 230 970 -15 640 -15 c 0
 291 -15 103 253 121 595 c 0xd4
693 108 m 0
 879 108 1023 250 1023 566 c 0
 1023 888 888 1092 670 1092 c 0
 490 1092 336 950 336 631 c 0
 336 322 463 108 693 108 c 0
624 1311 m 1x28
 555 1419 l 1
 979 1757 l 1
 1096 1593 l 1
 624 1311 l 1x28
EndSplineSet
EndChar

StartChar: circumflex
Encoding: 710 710 206
Width: 1048
Flags: MW
HStem: 1349 399<270 594 594 905>
VStem: 195 792<1450 1451>
LayerCount: 2
Fore
SplineSet
270 1349 m 1
 195 1451 l 1
 594 1748 l 1
 987 1450 l 1
 905 1349 l 1
 594 1523 l 1
 270 1349 l 1
EndSplineSet
EndChar

StartChar: dotlessj
Encoding: 567 567 225
Width: 683
Flags: MW
HStem: -520 21G<103 103> 1189 20G<511 511>
VStem: 295 180<525.5 805 518.5 915>
LayerCount: 2
Fore
SplineSet
296 254 m 1
 295 209 295 208 295 843 c 0
 295 987 234 1031 87 1031 c 1
 103 1155 l 1
 511 1209 l 1
 484 1139 475 912 475 698 c 0
 475 339 485 283 486 101 c 0
 489 -271 266 -441 103 -520 c 1
 37 -463 l 1
 263 -277 294 -28 296 254 c 1
EndSplineSet
EndChar

StartChar: commaaccent
Encoding: 65539 -1 226
Width: 707
Flags: MW
HStem: -520 21G<342.5 387.5> -340 277
VStem: 238 293<-245 -172 -303.5 -167.5>
LayerCount: 2
Fore
SplineSet
238 -207 m 0
 238 -128 292 -63 381 -63 c 0
 493 -63 531 -127 531 -217 c 0
 531 -390 409 -520 366 -520 c 0
 319 -520 306 -478 306 -478 c 1
 347 -435 361 -390 360 -340 c 1
 278 -333 238 -283 238 -207 c 0
EndSplineSet
EndChar

StartChar: grave.cap
Encoding: 65540 -1 227
Width: 1287
Flags: MW
HStem: 1671 369
VStem: 284 623<1785 1852>
LayerCount: 2
Fore
SplineSet
284 1852 m 1
 354 2040 l 1
 907 1785 l 1
 869 1671 l 1
 284 1852 l 1
EndSplineSet
EndChar

StartChar: acute.cap
Encoding: 65541 -1 228
Width: 1287
Flags: MW
HStem: 1671 369
VStem: 489 623<1785 1852>
LayerCount: 2
Fore
SplineSet
527 1671 m 1
 489 1785 l 1
 1042 2040 l 1
 1112 1852 l 1
 527 1671 l 1
EndSplineSet
EndChar

StartChar: circumflex.cap
Encoding: 65542 -1 229
Width: 687
Flags: MW
HStem: 1673 367<3 340 340 664>
VStem: -51 776<1771 1779>
LayerCount: 2
Fore
SplineSet
3 1673 m 1
 -51 1771 l 1
 340 2040 l 1
 725 1779 l 1
 664 1673 l 1
 340 1829 l 1
 3 1673 l 1
EndSplineSet
EndChar

StartChar: dieresis.cap
Encoding: 65543 -1 230
Width: 1025
Flags: MW
HStem: 1742 290<250 330.5 708.5 789>
VStem: 144 285<1843.5 1924.5> 604 285<1843.5 1924.5>
LayerCount: 2
Fore
SplineSet
750 1742 m 0
 667 1742 604 1805 604 1882 c 0
 604 1967 667 2032 750 2032 c 0
 828 2032 889 1967 889 1882 c 0
 889 1805 828 1742 750 1742 c 0
292 1742 m 0
 208 1742 144 1805 144 1882 c 0
 144 1967 208 2032 292 2032 c 0
 369 2032 429 1967 429 1882 c 0
 429 1805 369 1742 292 1742 c 0
EndSplineSet
EndChar

StartChar: caron.cap
Encoding: 65544 -1 231
Width: 1229
Flags: MW
HStem: 1673 367<258 595>
VStem: 204 776<1934 1934>
LayerCount: 2
Fore
SplineSet
595 1673 m 1
 204 1934 l 1
 258 2040 l 1
 595 1884 l 1
 919 2040 l 1
 980 1934 l 1
 595 1673 l 1
EndSplineSet
EndChar

StartChar: ring.cap
Encoding: 65545 -1 232
Width: 681
Flags: MW
HStem: 1507 118<300 384.5 300 411.5> 1923 117<295.5 380>
VStem: 44 148<1737.5 1821.5 1737.5 1864.5> 488 148<1726.5 1810.5>
LayerCount: 2
Fore
SplineSet
340 1507 m 0
 168 1507 44 1611 44 1780 c 0
 44 1949 197 2040 340 2040 c 0
 512 2040 636 1937 636 1768 c 0
 636 1599 483 1507 340 1507 c 0
340 1625 m 0
 429 1625 488 1685 488 1768 c 0
 488 1853 420 1923 340 1923 c 0
 251 1923 192 1863 192 1780 c 0
 192 1695 260 1625 340 1625 c 0
EndSplineSet
EndChar

StartChar: tilde.cap
Encoding: 65546 -1 233
Width: 1020
Flags: MW
HStem: 1669 180<630 706 630 734.5> 1793 180<316 390.5>
VStem: 103 806<1785 1857>
LayerCount: 2
Fore
SplineSet
195 1695 m 1x60
 103 1785 l 1
 111 1820 217 1973 377 1973 c 0x60
 504 1973 586 1849 674 1849 c 0
 738 1849 773 1880 827 1947 c 1
 909 1857 l 1
 901 1822 815 1669 654 1669 c 0xa0
 545 1669 433 1793 348 1793 c 0
 284 1793 249 1762 195 1695 c 1x60
EndSplineSet
EndChar

StartChar: caron
Encoding: 711 711 235
Width: 1229
Flags: MW
HStem: 1546 20G<597 597>
VStem: 206 776<1639 1639>
LayerCount: 2
Fore
SplineSet
597 1341 m 1
 206 1639 l 1
 279 1740 l 1
 597 1566 l 1
 902 1740 l 1
 982 1639 l 1
 597 1341 l 1
EndSplineSet
EndChar

StartChar: Aring
Encoding: 197 197 236
Width: 1533
Flags: MW
HStem: 0 106<942 957 957 957 1466 1477.5> 558 120<506 968 506 1013 464 968> 1923 117<727.5 812>
VStem: 476 39 530 94 920 37 942 126
LayerCount: 2
Fore
SplineSet
2 0 m 1xf2
 15 105 l 1
 116 105 146 132 186 230 c 1
 683 1517 l 1
 559 1547 476 1642 476 1780 c 0
 476 1949 629 2040 772 2040 c 0
 944 2040 1068 1937 1068 1768 c 0
 1068 1636 975 1552 867 1521 c 1
 1310 333 l 2
 1358 202 1421 105 1466 106 c 0
 1489 106 1523 103 1545 117 c 1
 1525 0 l 1
 942 0 l 1xf2
 957 106 l 1
 1126 104 1155 150 1141 218 c 1
 1013 558 l 1
 464 558 l 1
 335 190 l 2
 320 148 348 109 387 106 c 1
 418 105 497 105 530 117 c 1xfc
 515 0 l 1
 2 0 l 1xf2
772 1625 m 0xfc
 861 1625 920 1685 920 1768 c 0
 920 1853 852 1923 772 1923 c 0
 683 1923 624 1863 624 1780 c 0
 624 1695 692 1625 772 1625 c 0xfc
506 678 m 1
 968 678 l 1
 729 1312 l 1
 506 678 l 1
EndSplineSet
EndChar

StartChar: omacron
Encoding: 333 333 237
Width: 1365
Flags: MW
HStem: -15 123<578 786 578 805> 1092 117<580 779> 1463 158<288 1062 308 1042>
VStem: 121 215 288 774<1463 1621> 1023 220
LayerCount: 2
Fore
SplineSet
121 595 m 0xd4
 142 978 406 1209 725 1209 c 0
 1071 1209 1261 943 1243 599 c 0
 1223 230 970 -15 640 -15 c 0
 291 -15 103 253 121 595 c 0xd4
693 108 m 0
 879 108 1023 250 1023 566 c 0
 1023 888 888 1092 670 1092 c 0
 490 1092 336 950 336 631 c 0
 336 322 463 108 693 108 c 0
288 1463 m 1x28
 308 1621 l 1
 1062 1621 l 1
 1042 1463 l 1
 288 1463 l 1x28
EndSplineSet
EndChar

StartChar: macron.cap
Encoding: 65547 -1 238
Width: 687
Flags: MW
HStem: 1820 153<-36 722 -17 703>
VStem: -36 758<1820 1973>
LayerCount: 2
Fore
SplineSet
-36 1820 m 1
 -17 1973 l 1
 722 1973 l 1
 703 1820 l 1
 -36 1820 l 1
EndSplineSet
EndChar

StartChar: Omacron
Encoding: 332 332 239
Width: 1709
Flags: MW
HStem: -15 123<688 994.5 688 1055> 1422 124<715 1021> 1820 153<504 1262 523 1243>
VStem: 125 227 504 758<1820 1973> 1356 228
LayerCount: 2
Fore
SplineSet
125 736 m 0
 132 1176 408 1546 903 1546 c 0
 1305 1546 1592 1278 1584 797 c 0
 1577 357 1302 -15 808 -15 c 0
 405 -15 118 255 125 736 c 0
858 108 m 0
 1131 108 1350 313 1356 733 c 1
 1363 1139 1191 1422 851 1422 c 0
 579 1422 359 1221 352 801 c 0
 345 395 518 108 858 108 c 0
504 1820 m 1x28
 523 1973 l 1
 1262 1973 l 1
 1243 1820 l 1
 504 1820 l 1x28
EndSplineSet
EndChar

StartChar: dotaccent.cap
Encoding: 65548 -1 240
Width: 687
Flags: MW
HStem: 1735 305<304 389>
VStem: 192 302<1841 1929>
LayerCount: 2
Fore
SplineSet
348 1735 m 0
 260 1735 192 1799 192 1883 c 0
 192 1975 260 2040 348 2040 c 0
 430 2040 494 1975 494 1883 c 0
 494 1799 430 1735 348 1735 c 0
EndSplineSet
EndChar

StartChar: zero
Encoding: 48 48 241
Width: 1368
Flags: MW
HStem: -14 106<573.5 794 573.5 847> 1255 106<573.5 794>
VStem: 115 244 1008 244<506.5 857>
LayerCount: 2
Fore
SplineSet
115 652 m 0
 115 1021 339 1361 692 1361 c 0
 1044 1361 1252 1060 1252 691 c 0
 1252 322 1018 -14 676 -14 c 0
 323 -14 115 283 115 652 c 0
684 92 m 0
 904 92 1008 330 1008 681 c 0
 1008 1033 904 1255 684 1255 c 0
 463 1255 358 1033 359 681 c 1
 358 330 463 92 684 92 c 0
EndSplineSet
EndChar

StartChar: one
Encoding: 49 49 242
Width: 855
Flags: MW
HStem: 0 102<96 184 110 184 184 262.5 605.5 668.5>
VStem: 361 198<250 539>
LayerCount: 2
Fore
SplineSet
96 0 m 1
 110 102 l 1
 184 102 l 2
 341 102 361 130 361 370 c 0
 361 708 360 1015 360 1026 c 0
 360 1128 326 1156 278 1156 c 0
 224 1156 167 1130 137 1116 c 1
 102 1241 l 1
 586 1380 l 1
 564 1312 560 1180 560 1105 c 0
 560 1038 559 874 559 291 c 0
 559 159 548 102 663 102 c 0
 674 102 769 110 803 118 c 1
 790 0 l 1
 96 0 l 1
EndSplineSet
EndChar

StartChar: two
Encoding: 50 50 243
Width: 1364
Flags: MW
HStem: 0 150<425 868 868 924 425 1143> 1275 106<564.5 705>
VStem: 179 149 895 227<805.5 1072>
LayerCount: 2
Fore
SplineSet
154 77 m 1
 360 229 895 628 895 983 c 0
 895 1161 775 1275 635 1275 c 0
 430 1275 325 1169 328 951 c 1
 198 951 l 1
 180 1125 178 1138 179 1317 c 1
 353 1309 474 1381 655 1381 c 0
 940 1381 1122 1235 1122 988 c 0
 1122 611 509 207 425 150 c 1
 868 150 l 2
 980 150 1043 237 1061 340 c 1
 1185 340 l 1
 1184 276 1165 87 1143 0 c 1
 194 0 l 1
 175 5 154 48 154 77 c 1
EndSplineSet
EndChar

StartChar: three
Encoding: 51 51 244
Width: 1365
Flags: MW
HStem: -170 100<557.5 738.5 557.5 828> 626 90 1274 106<588 719>
VStem: 192 146 240 142 896 218<997.5 1093.5> 962 225<239 396.5>
LayerCount: 2
Fore
SplineSet
203 -100 m 1xf2
 186 61 191 141 205 253 c 1
 338 253 l 1
 338 26 467 -70 648 -70 c 0
 829 -70 962 84 962 311 c 0xf2
 962 482 851 626 667 626 c 0
 630 626 573 619 535 600 c 1
 532 608 511 675 511 700 c 0
 511 709 512 717 516 716 c 0
 706 714 896 840 896 1020 c 0
 896 1167 807 1274 631 1274 c 0
 465 1274 382 1174 382 951 c 1
 336 951 299 947 249 947 c 1
 240 1100 236 1230 243 1312 c 1
 341 1302 505 1380 671 1380 c 0
 879 1380 1114 1306 1114 1066 c 0xec
 1114 929 989 805 846 727 c 1
 1014 704 1187 578 1187 348 c 0
 1187 130 1015 -170 641 -170 c 0
 435 -170 343 -101 203 -100 c 1xf2
EndSplineSet
EndChar

StartChar: four
Encoding: 52 52 245
Width: 1365
Flags: MW
HStem: 170 149<302 822 302 822>
VStem: 822 195<76.5 99 99 170 319 1085 1085 1085>
LayerCount: 2
Fore
SplineSet
101 170 m 1
 61 260 l 1
 229 479 628 990 875 1360 c 1
 912 1365 976 1372 1017 1388 c 1
 1017 319 l 1
 1298 319 l 1
 1265 174 l 1
 1017 175 l 1
 1017 99 l 2
 1017 -38 1020 -164 1020 -164 c 1
 1020 -164 896 -218 832 -236 c 1
 802 -200 l 1
 802 -200 822 -17 822 170 c 1
 101 170 l 1
302 319 m 1
 822 319 l 1
 822 1085 l 1
 650 813 475 578 302 319 c 1
EndSplineSet
EndChar

StartChar: five
Encoding: 53 53 246
Width: 1365
Flags: MW
HStem: -170 121<554 738.5 523.5 775> 638 148<668 726> 1190 170<486 871 871 911.5 324 1105 486 486>
VStem: 983 226<227.5 429>
LayerCount: 2
Fore
SplineSet
223 -72 m 1
 242 36 l 1
 293 -2 443 -49 604 -49 c 0
 873 -49 983 127 983 328 c 0
 983 530 822 638 630 638 c 0
 550 638 444 625 355 595 c 1
 266 626 l 1
 324 1360 l 1
 871 1360 l 2
 952 1360 1015 1371 1060 1490 c 1
 1163 1490 l 1
 1163 1401 1142 1252 1105 1190 c 1
 486 1190 l 1
 405 714 l 1
 405 714 595 786 741 786 c 0
 1010 786 1209 658 1209 350 c 0
 1209 11 922 -170 628 -170 c 0
 480 -170 320 -139 223 -72 c 1
EndSplineSet
EndChar

StartChar: six
Encoding: 54 54 247
Width: 1365
Flags: MW
HStem: -15 123<589 830 589 843> 885 146<703 797>
VStem: 127 223 1023 214<406.5 630>
LayerCount: 2
Fore
SplineSet
127 595 m 0
 122 1388 801 1608 1073 1615 c 1
 1073 1614 l 1
 1097 1530 l 1
 766 1491 472 1234 380 888 c 1
 479 968 629 1031 777 1031 c 0
 1070 1031 1237 837 1237 555 c 0
 1237 258 1004 -15 682 -15 c 0
 304 -15 129 306 127 595 c 0
689 108 m 0
 971 108 1023 283 1023 523 c 0
 1023 737 912 885 682 885 c 0
 600 885 447 839 355 755 c 1
 351 724 350 692 350 660 c 0
 350 282 489 108 689 108 c 0
EndSplineSet
EndChar

StartChar: seven
Encoding: 55 55 248
Width: 1365
Flags: MW
HStem: 1183 177<380 506.5>
VStem: 138 1079<976 1299>
LayerCount: 2
Fore
SplineSet
417 -277 m 1
 1041 1188 l 1
 1041 1188 563 1183 450 1183 c 0
 310 1183 277 1111 233 976 c 1
 138 976 l 1
 154 1141 166 1222 187 1360 c 1
 1164 1360 l 1
 1217 1299 l 1
 659 -339 l 1
 463 -339 l 1
 417 -277 l 1
EndSplineSet
EndChar

StartChar: eight
Encoding: 56 56 249
Width: 1365
Flags: MW
HStem: -16 117<603 773 603 835.5> 1445 100<619 770.5>
VStem: 159 219<308.5 458.5 308.5 465> 210 185<1135.5 1297.5> 946 202<1105 1248.5> 1018 190<276 434.5>
LayerCount: 2
Fore
SplineSet
159 360 m 0xe4
 159 570 354 719 508 764 c 1
 347 856 210 971 210 1172 c 0
 210 1423 443 1545 698 1545 c 0
 949 1545 1148 1399 1148 1184 c 0xd8
 1148 1001 993 864 853 824 c 1
 1038 726 1208 611 1208 410 c 0
 1208 142 1002 -16 669 -16 c 0
 476 -16 159 92 159 360 c 0xe4
766 869 m 1xd8
 881 927 946 1052 946 1158 c 0
 946 1339 848 1445 693 1445 c 0
 545 1445 395 1385 395 1215 c 0
 395 1056 575 966 766 869 c 1xd8
378 393 m 0xe4
 378 224 518 101 688 101 c 0
 858 101 1018 160 1018 346 c 0
 1018 523 814 607 611 710 c 1
 458 659 378 524 378 393 c 0xe4
EndSplineSet
EndChar

StartChar: nine
Encoding: 57 57 250
Width: 1365
Flags: MW
HStem: 334 146<572 666> 1257 123<562.5 785.5>
VStem: 122 214<765 988.5> 1008 224
LayerCount: 2
Fore
SplineSet
262 -165 m 1
 595 -126 891 128 980 476 c 1
 884 397 740 334 592 334 c 0
 299 334 122 558 122 840 c 0
 122 1137 368 1380 697 1380 c 0
 1075 1380 1230 1059 1232 770 c 0
 1237 -23 558 -243 286 -250 c 1
 286 -249 l 1
 262 -165 l 1
687 480 m 0
 768 480 913 518 1003 598 c 1
 1006 630 1008 662 1008 695 c 0
 1008 1073 880 1257 691 1257 c 0
 434 1257 336 1112 336 872 c 0
 336 658 457 480 687 480 c 0
EndSplineSet
EndChar

StartChar: kcommaaccent
Encoding: 311 311 251
Width: 1193
Flags: MW
HStem: -520 21G<659.5 704.5> -340 277 0 102<63 140.5 79 140.5 455.5 496.5 1136.5 1172.5> 1083 107<682 727.5 1117.5 1160 1160 1183>
VStem: 224 184<312 596 661 1197> 555 293<-245 -172 -303.5 -167.5>
LayerCount: 2
Fore
SplineSet
63 0 m 1
 79 102 l 1
 202 102 224 157 224 312 c 2
 224 1368 l 2
 224 1448 216 1481 195 1505 c 0
 163 1542 89 1537 32 1537 c 1
 44 1649 l 1
 431 1706 l 1
 417 1645 408 1470 408 1197 c 2
 408 661 l 1
 533 754 801 982 801 1035 c 0
 801 1070 785 1083 670 1083 c 1
 682 1190 l 1
 1193 1190 l 1
 1183 1083 l 1
 1160 1083 l 2
 1075 1083 1001 1010 960 973 c 1
 800 850 629 691 586 648 c 1
 586 648 784 410 967 234 c 1
 1039 158 1108 102 1165 102 c 0
 1180 102 1209 106 1220 111 c 1
 1211 0 l 1
 1010 0 l 2
 800 0 533 461 408 596 c 1
 408 235 l 2
 408 116 424 102 487 102 c 0
 506 102 543 106 554 111 c 1
 540 0 l 1
 63 0 l 1
555 -207 m 0xc4
 555 -128 609 -63 698 -63 c 0
 810 -63 848 -127 848 -217 c 0
 848 -390 726 -520 683 -520 c 0
 636 -520 623 -478 623 -478 c 1
 664 -435 678 -390 677 -340 c 1
 595 -333 555 -283 555 -207 c 0xc4
EndSplineSet
EndChar

StartChar: Aogonek
Encoding: 260 260 252
Width: 1522
Flags: MW
HStem: -510 131<1129.5 1135.5> 0 106<366.5 403 366.5 503 1434.5 1468> 493 112<465 991 465 1032 425 991> 1548 20G<840 840>
VStem: 684 325 840 472
LayerCount: 2
Fore
SplineSet
6 0 m 1xf8
 19 105 l 1
 120 105 147 132 187 230 c 1
 684 1539 l 1
 712 1539 776 1547 840 1568 c 1
 1299 333 l 2
 1347 203 1412 106 1457 106 c 0
 1479 106 1507 107 1529 121 c 1
 1509 0 l 1
 1330 0 l 2
 1240 0 1009 -95 1009 -247 c 0xf8
 1009 -337 1089 -379 1170 -379 c 0
 1227 -379 1302 -359 1312 -356 c 1
 1312 -444 l 1xf4
 1266 -479 1174 -510 1097 -510 c 0
 970 -510 828 -430 828 -289 c 0
 828 -126 968 -50 1033 -5 c 1
 1134 54 1137 121 1137 181 c 0
 1137 194 1136 206 1134 218 c 1
 1032 493 l 1
 425 493 l 1
 314 182 l 2
 311 175 310 168 310 162 c 0
 310 124 348 106 385 106 c 0
 421 106 489 109 518 120 c 1
 503 0 l 1
 6 0 l 1xf8
465 605 m 1
 991 605 l 1
 724 1329 l 1
 465 605 l 1
EndSplineSet
EndChar

StartChar: Eogonek
Encoding: 280 280 253
Width: 1368
Flags: MW
HStem: -510 131<949 1133.5> 0 106<93 179.5 110 179.5 110 977> 0 111<673 864 864 956 673 977> 763 109<473 682 473 688> 1413 117<473 849 473 473> 1413 132
VStem: 112 832 270 203<306 763 872 1222 1222 1293.5> 763 481 838 110<569 569>
LayerCount: 2
Fore
SplineSet
93 0 m 1xb980
 110 106 l 1
 249 106 270 157 270 306 c 2
 270 1222 l 2
 270 1365 237 1418 176 1418 c 0xd980
 166 1418 134 1417 106 1411 c 1
 118 1530 l 1xba
 889 1530 l 2xb980
 1160 1530 1244 1545 1244 1545 c 1
 1245 1382 1214 1225 1199 1171 c 1xb580
 1111 1171 l 1
 1097 1397 1042 1413 849 1413 c 2
 473 1413 l 1
 473 872 l 1
 688 872 l 2
 841 872 846 930 858 1042 c 1
 967 1043 l 1
 970 886 957 706 948 569 c 1
 838 569 l 1
 830 706 816 763 682 763 c 2
 473 763 l 1
 473 278 l 2xb940
 473 144 508 116 673 111 c 0
 721 110 809 111 864 111 c 0
 1048 111 1159 226 1180 407 c 1
 1290 407 l 1
 1291 298 1259 114 1237 0 c 1
 1221 0 l 1
 1148 -9 944 -83 944 -247 c 0xba
 944 -337 1024 -379 1105 -379 c 0
 1162 -379 1201 -366 1223 -356 c 1
 1223 -444 l 1
 1174 -484 1089 -510 1013 -510 c 0
 885 -510 763 -430 763 -289 c 0
 763 -120 949 -19 977 0 c 1
 93 0 l 1xb980
EndSplineSet
EndChar

StartChar: eogonek
Encoding: 281 281 254
Width: 1195
Flags: MW
HStem: -510 128<732 909.5> -17 170<556.5 635.5> 588 112 1092 117<533.5 707.5>
VStem: 116 196<445.5 588 688 757.5> 549 191<-304.5 -231> 867 214<705 882.5>
LayerCount: 2
Fore
SplineSet
116 560 m 0
 116 955 382 1209 661 1209 c 0
 951 1209 1080 1034 1081 723 c 0
 1081 687 1084 588 1058 588 c 2
 312 588 l 1
 312 303 438 153 675 153 c 1
 797 160 918 191 1021 245 c 1
 1063 166 l 1
 1039 146 1014 127 986 110 c 1
 895 29 740 -123 740 -256 c 0
 740 -353 809 -382 878 -382 c 0
 941 -382 1004 -363 1015 -360 c 1
 1015 -448 l 1
 954 -486 870 -510 790 -510 c 0
 674 -510 549 -433 549 -299 c 0
 549 -163 656 -59 736 0 c 1
 693 -11 653 -17 618 -17 c 0
 282 -17 116 195 116 560 c 0
312 688 m 1
 866 712 l 1
 867 741 867 752 867 780 c 0
 867 985 801 1092 614 1092 c 0
 453 1092 312 887 312 688 c 1
EndSplineSet
EndChar

StartChar: Kcommaaccent
Encoding: 310 310 255
Width: 1536
Flags: MW
HStem: -520 21G<793.5 838.5> -340 277 0 106<137 214 149 214 566 620.5> 739 111<506 582 582 598 506 611 506 582> 1418 112<201 250 600.5 657 1358.5 1388.5 1381 1432>
VStem: 303 203<330 739 850 1223 1223 1233> 689 293<-245 -172 -303.5 -167.5>
LayerCount: 2
Fore
SplineSet
137 0 m 1
 149 106 l 1
 279 106 303 137 303 330 c 2
 303 1223 l 2
 303 1365 286 1418 214 1418 c 0
 188 1418 148 1415 125 1413 c 1
 143 1530 l 1
 672 1530 l 1
 657 1418 l 1
 544 1418 506 1389 506 1233 c 2
 506 850 l 1
 582 850 l 2
 614 850 637 863 643 868 c 1
 856 1114 960 1228 980 1262 c 1
 1009 1305 1051 1349 1051 1373 c 0
 1051 1406 1036 1425 990 1425 c 0
 955 1425 935 1424 906 1418 c 1
 922 1530 l 1
 1449 1530 l 1
 1432 1418 l 1
 1415 1422 1396 1418 1381 1418 c 0
 1336 1418 1259 1385 1120 1223 c 1
 758 806 l 1
 894 710 1130 425 1231 282 c 0
 1332 139 1370 108 1446 108 c 0
 1466 108 1483 109 1506 115 c 1
 1502 0 l 1
 1273 0 l 2
 1172 0 1104 57 1015 208 c 0
 926 359 738 647 611 739 c 1
 506 739 l 1
 506 299 l 2
 506 180 517 106 615 106 c 0
 626 106 680 111 710 118 c 1
 697 0 l 1
 137 0 l 1
689 -207 m 0xc2
 689 -128 743 -63 832 -63 c 0
 944 -63 982 -127 982 -217 c 0
 982 -390 860 -520 817 -520 c 0
 770 -520 757 -478 757 -478 c 1
 798 -435 812 -390 811 -340 c 1
 729 -333 689 -283 689 -207 c 0xc2
EndSplineSet
EndChar

StartChar: Rcommaaccent
Encoding: 342 342 256
Width: 1535
Flags: MW
HStem: -520 21G<788.5 833.5> -340 277 0 106<147 159 159 159 578.5 650> 0 115 686 116<511 603 511 756> 1418 112<200.5 266.5> 1433 112<780 860.5>
VStem: 315 196<258.5 279 279 349> 684 293<-245 -172 -303.5 -167.5> 1092 221<1022.5 1220.5>
LayerCount: 2
Fore
SplineSet
147 0 m 1x2b40
 159 106 l 1
 305 108 315 168 315 349 c 2
 314 1252 l 2
 314 1365 317 1418 216 1418 c 0
 185 1418 142 1413 118 1408 c 1
 134 1530 l 1
 416 1530 l 2x2d40
 491 1530 737 1545 823 1545 c 0
 1155 1545 1313 1394 1313 1155 c 0
 1313 890 1085 730 916 712 c 1
 1143 656 1295 118 1431 115 c 0
 1462 114 1486 118 1509 125 c 1x1b40
 1504 0 l 1
 1358 0 l 2
 1236 0 1169 47 1119 102 c 1
 1043 199 1017 355 939 483 c 1
 843 643 794 686 603 686 c 2
 511 686 l 1
 511 279 l 2
 511 162 526 106 631 106 c 0
 669 106 704 112 736 120 c 1
 725 0 l 1
 147 0 l 1x2b40
511 802 m 1
 756 802 l 1
 933 801 1092 914 1092 1123 c 0
 1092 1318 979 1433 742 1433 c 0
 707 1433 570 1434 511 1415 c 1x2b40
 511 802 l 1
684 -207 m 0xc080
 684 -128 738 -63 827 -63 c 0
 939 -63 977 -127 977 -217 c 0
 977 -390 855 -520 812 -520 c 0
 765 -520 752 -478 752 -478 c 1
 793 -435 807 -390 806 -340 c 1
 724 -333 684 -283 684 -207 c 0xc080
EndSplineSet
EndChar

StartChar: rcommaaccent
Encoding: 343 343 257
Width: 1024
Flags: MW
HStem: -520 21G<311.5 356.5> -340 277 0 102<81 148.5 95 148.5 509.5 580> 1041 168<726 744.5>
VStem: 207 293<-245 -172 -303.5 -167.5> 254 187<334 818 818 856.5> 800 174<911.5 1082.5>
LayerCount: 2
Fore
SplineSet
81 0 m 1x36
 95 102 l 1
 202 102 254 128 254 334 c 2
 254 818 l 2
 254 895 244 963 224 986 c 0
 189 1026 89 1029 89 1029 c 1
 103 1155 l 1
 454 1209 l 1
 454 1209 440 1125 440 1029 c 1
 494 1088 663 1209 789 1209 c 0
 936 1209 974 1126 974 1039 c 0
 974 922 942 810 942 810 c 1
 788 810 l 1
 788 810 800 896 800 927 c 0
 800 1005 785 1041 704 1041 c 0
 612 1041 485 962 441 918 c 1
 441 245 l 2
 441 117 448 102 571 102 c 0
 589 102 695 106 721 112 c 1
 714 0 l 1
 81 0 l 1x36
207 -207 m 0xc8
 207 -128 261 -63 350 -63 c 0
 462 -63 500 -127 500 -217 c 0
 500 -390 378 -520 335 -520 c 0
 288 -520 275 -478 275 -478 c 1
 316 -435 330 -390 329 -340 c 1
 247 -333 207 -283 207 -207 c 0xc8
EndSplineSet
EndChar

StartChar: Scaron
Encoding: 352 352 258
Width: 1364
Flags: MW
HStem: -16 105<599 778.5 542 841.5> 1439 106<572 767 560.5 799> 1673 367<357 694>
VStem: 198 201 303 776<1934 1934> 1016 218
LayerCount: 2
Fore
SplineSet
177 30 m 1xd4
 172 206 183 366 199 457 c 1
 298 457 l 1
 310 211 412 89 672 89 c 0
 885 89 1022 194 1016 347 c 0
 1009 531 805 606 591 698 c 0
 390 785 203 928 198 1160 c 0
 193 1393 408 1545 713 1545 c 0
 821 1545 1009 1491 1167 1524 c 1
 1175 1348 1153 1207 1137 1116 c 1
 1041 1116 l 1
 1035 1359 899 1439 699 1439 c 0
 445 1439 394 1306 399 1197 c 0
 406 1039 566 953 759 868 c 0
 984 769 1230 650 1234 403 c 0
 1239 115 997 -16 686 -16 c 0
 512 -16 348 57 177 30 c 1xd4
694 1673 m 1x28
 303 1934 l 1
 357 2040 l 1
 694 1884 l 1
 1018 2040 l 1
 1079 1934 l 1
 694 1673 l 1x28
EndSplineSet
EndChar

StartChar: scaron
Encoding: 353 353 259
Width: 1031
Flags: MW
HStem: -15 117<457.5 604 445.5 632> 33 307<170.5 217> 882 304<747 796 747 846 736 796> 1096 113<451 587.5> 1179 20G 1546 20G<535 535>
VStem: 139 173 144 776<1639 1639> 751 183
LayerCount: 2
Fore
SplineSet
133 29 m 1x5280
 136 152 138 230 152 340 c 1x5280
 268 340 l 1
 275 176 353 102 538 102 c 0
 670 102 752 144 751 267 c 0
 750 406 607 455 479 511 c 0
 323 580 141 668 139 880 c 0
 137 1099 352 1209 550 1209 c 0x9280
 633 1209 711 1186 783 1186 c 0xa280
 809 1186 840 1190 876 1199 c 1x8a80
 878 1187 880 1126 870 1038 c 1
 863 948 853 926 846 882 c 1xa280
 736 882 l 1
 734 1038 667 1096 508 1096 c 0
 392 1096 311 1044 312 930 c 0
 313 823 424 769 546 712 c 1
 711 642 932 540 934 340 c 0
 936 111 735 -15 529 -15 c 0x9280
 386 -15 257 33 177 33 c 0
 164 33 148 32 133 29 c 1x5280
535 1341 m 1x05
 144 1639 l 1
 217 1740 l 1
 535 1566 l 1
 840 1740 l 1
 920 1639 l 1
 535 1341 l 1x05
EndSplineSet
EndChar

StartChar: Ydieresis
Encoding: 376 376 260
Width: 1364
Flags: MW
HStem: 0 105<360 368 368 368 870 954> 1418 112<-35 -2.5 471.5 535 951 1010 1351.5 1410> 1742 290<462 542.5 920.5 1001>
VStem: 356 285<1843.5 1924.5> 613 200<279 347 347 533 249.5 533> 816 285<1843.5 1924.5>
LayerCount: 2
Fore
SplineSet
360 0 m 1xc8
 368 105 l 1
 576 102 613 120 613 279 c 2
 613 533 l 1
 131 1331 l 1
 90 1393 45 1418 -50 1418 c 1
 -35 1530 l 1
 561 1530 l 1
 535 1418 l 1
 408 1418 367 1415 367 1347 c 0
 367 1242 553 1000 670 788 c 1
 734 651 l 1
 845 852 1043 1225 1055 1313 c 0
 1062 1358 1058 1418 962 1418 c 0
 940 1418 902 1415 868 1408 c 1
 883 1530 l 1
 1429 1530 l 1
 1410 1418 l 1
 1293 1418 1259 1390 1192 1250 c 1
 813 533 l 1
 813 347 l 2
 813 152 817 105 923 105 c 0
 985 105 1034 112 1055 118 c 1
 1046 0 l 1
 360 0 l 1xc8
962 1742 m 0x34
 879 1742 816 1805 816 1882 c 0
 816 1967 879 2032 962 2032 c 0
 1040 2032 1101 1967 1101 1882 c 0
 1101 1805 1040 1742 962 1742 c 0x34
504 1742 m 0
 420 1742 356 1805 356 1882 c 0
 356 1967 420 2032 504 2032 c 0
 581 2032 641 1967 641 1882 c 0
 641 1805 581 1742 504 1742 c 0
EndSplineSet
EndChar

StartChar: Zacute
Encoding: 377 377 261
Width: 1365
Flags: MW
HStem: 0 111<381 818 818 904 381 1225> 1418 112<527 531 531 989> 1671 369
VStem: 100 1179<66 417> 477 623<1785 1852>
LayerCount: 2
Fore
SplineSet
100 66 m 1xd0
 989 1418 l 1
 531 1418 l 2
 345 1418 311 1295 261 1129 c 1
 134 1129 l 1
 159 1222 176 1416 176 1537 c 1
 176 1537 411 1530 527 1530 c 2
 1234 1530 l 1
 1268 1462 l 1
 381 111 l 1
 818 111 l 2
 990 111 1109 196 1167 418 c 1
 1279 417 l 1
 1280 317 1250 155 1225 0 c 1
 143 0 l 1
 100 66 l 1xd0
515 1671 m 1x28
 477 1785 l 1
 1030 2040 l 1
 1100 1852 l 1
 515 1671 l 1x28
EndSplineSet
EndChar

StartChar: Zdotaccent
Encoding: 379 379 262
Width: 1365
Flags: MW
HStem: 0 111<381 818 818 904 381 1225> 1418 112<527 531 531 989> 1735 305<671 756>
VStem: 100 1179<66 417> 559 302<1841 1929>
LayerCount: 2
Fore
SplineSet
100 66 m 1xd0
 989 1418 l 1
 531 1418 l 2
 345 1418 311 1295 261 1129 c 1
 134 1129 l 1
 159 1222 176 1416 176 1537 c 1
 176 1537 411 1530 527 1530 c 2
 1234 1530 l 1
 1268 1462 l 1
 381 111 l 1
 818 111 l 2
 990 111 1109 196 1167 418 c 1
 1279 417 l 1
 1280 317 1250 155 1225 0 c 1
 143 0 l 1
 100 66 l 1xd0
715 1735 m 0x28
 627 1735 559 1799 559 1883 c 0
 559 1975 627 2040 715 2040 c 0
 797 2040 861 1975 861 1883 c 0
 861 1799 797 1735 715 1735 c 0x28
EndSplineSet
EndChar

StartChar: zdotaccent
Encoding: 380 380 263
Width: 1195
Flags: MW
HStem: 0 112 1073 117<766.5 809> 1090 100<188 1071> 1400 305<589.5 672>
VStem: 124 983<86 384> 482 292<1506 1594>
LayerCount: 2
Fore
SplineSet
124 86 m 1xc8
 273 302 666 838 809 1073 c 1
 724 1073 559 1080 448 1062 c 0
 335 1044 283 999 269 850 c 1
 153 850 l 1
 188 1190 l 1
 1053 1190 l 1xc8
 1071 1090 l 1xa8
 1071 1090 1036 1049 993 989 c 0
 840 773 537 365 388 112 c 1
 529 113 665 111 794 129 c 0
 883 142 955 190 995 384 c 1
 1107 384 l 1
 1060 0 l 1
 163 0 l 1
 124 86 l 1xc8
632 1400 m 0x14
 547 1400 482 1464 482 1548 c 0
 482 1640 547 1705 632 1705 c 0
 712 1705 774 1640 774 1548 c 0
 774 1464 712 1400 632 1400 c 0x14
EndSplineSet
EndChar

StartChar: Zcaron
Encoding: 381 381 264
Width: 1365
Flags: MW
HStem: 0 111<381 818 818 904 381 1225> 1418 112<527 531 531 989> 1673 367<371 708>
VStem: 100 1179<66 417> 317 776<1934 1934>
LayerCount: 2
Fore
SplineSet
100 66 m 1xd0
 989 1418 l 1
 531 1418 l 2
 345 1418 311 1295 261 1129 c 1
 134 1129 l 1
 159 1222 176 1416 176 1537 c 1
 176 1537 411 1530 527 1530 c 2
 1234 1530 l 1
 1268 1462 l 1
 381 111 l 1
 818 111 l 2
 990 111 1109 196 1167 418 c 1
 1279 417 l 1
 1280 317 1250 155 1225 0 c 1
 143 0 l 1
 100 66 l 1xd0
708 1673 m 1x28
 317 1934 l 1
 371 2040 l 1
 708 1884 l 1
 1032 2040 l 1
 1093 1934 l 1
 708 1673 l 1x28
EndSplineSet
EndChar

StartChar: zcaron
Encoding: 382 382 265
Width: 1195
Flags: MW
HStem: 0 112 1073 117<766.5 809> 1090 100<188 1071> 1546 20G<634 634>
VStem: 124 983<86 384> 243 776<1639 1639>
LayerCount: 2
Fore
SplineSet
124 86 m 1xc8
 273 302 666 838 809 1073 c 1
 724 1073 559 1080 448 1062 c 0
 335 1044 283 999 269 850 c 1
 153 850 l 1
 188 1190 l 1
 1053 1190 l 1xc8
 1071 1090 l 1xa8
 1071 1090 1036 1049 993 989 c 0
 840 773 537 365 388 112 c 1
 529 113 665 111 794 129 c 0
 883 142 955 190 995 384 c 1
 1107 384 l 1
 1060 0 l 1
 163 0 l 1
 124 86 l 1xc8
634 1341 m 1x14
 243 1639 l 1
 316 1740 l 1
 634 1566 l 1
 939 1740 l 1
 1019 1639 l 1
 634 1341 l 1x14
EndSplineSet
EndChar

StartChar: breve
Encoding: 728 728 266
Width: 1019
Flags: MW
HStem: 1380 163<418 601 418 655.5>
VStem: 161 709<1657.5 1699 1657.5 1699>
LayerCount: 2
Fore
SplineSet
510 1380 m 0
 219 1380 161 1598 161 1699 c 1
 269 1715 l 1
 269 1715 326 1543 510 1543 c 0
 692 1543 753 1713 753 1713 c 1
 870 1699 l 1
 870 1616 801 1380 510 1380 c 0
EndSplineSet
EndChar

StartChar: ogonek
Encoding: 731 731 267
Width: 684
Flags: MW
HStem: -510 128<304.5 482.5>
VStem: 142 171<-304.5 -209>
LayerCount: 2
Fore
SplineSet
142 -318 m 0
 142 -100 395 55 395 55 c 1
 487 41 l 1
 403 -43 313 -155 313 -256 c 0
 313 -353 382 -382 451 -382 c 0
 514 -382 577 -363 587 -360 c 1
 587 -448 l 1
 527 -486 442 -510 363 -510 c 0
 246 -510 142 -452 142 -318 c 0
EndSplineSet
EndChar

StartChar: Omega
Encoding: 937 937 268
AltUni2: 002126.ffffffff.0
Width: 1881
Flags: MW
HStem: 0 164<571 728 571 849 1187 1334 1334 1427.5> 1440 105<794 1148>
VStem: 258 214<781.5 1016.5 781.5 1076.5> 728 121<164 219 219 219> 1066 121<164 223 164 282 164 282> 1430 214<781.5 1016.5>
LayerCount: 2
Fore
SplineSet
194 0 m 1
 171 114 140 298 140 407 c 1
 249 407 l 1
 270 226 384 164 571 164 c 2
 728 164 l 1
 728 219 l 1
 455 294 258 602 258 891 c 0
 258 1262 566 1545 971 1545 c 0
 1423 1545 1644 1262 1644 891 c 0
 1644 604 1443 304 1187 223 c 1
 1187 164 l 1
 1334 164 l 2
 1521 164 1618 226 1639 407 c 1
 1748 407 l 1
 1748 298 1707 114 1684 0 c 1
 1066 0 l 1
 1066 282 l 1
 1307 351 1430 672 1430 891 c 0
 1430 1142 1325 1440 971 1440 c 0
 617 1440 472 1142 472 891 c 0
 472 672 607 341 849 272 c 1
 849 0 l 1
 194 0 l 1
EndSplineSet
EndChar

StartChar: pi
Encoding: 960 960 269
Width: 1537
Flags: MW
HStem: -13 21G<337.5 451> -8 21G<1034.5 1182.5> -8 347<1034.5 1423> 916 175 1185 20G<1344 1425 1425 1425>
VStem: 902 167 1304 119<339 339>
LayerCount: 2
Fore
SplineSet
248 99 m 0x5c
 248 119 397 237 434 479 c 1
 509 914 l 1
 467 914 l 1
 281 913 293 885 251 778 c 1
 146 778 l 1
 162 827 167 1091 495 1091 c 2
 1075 1091 l 2
 1317 1091 1344 1205 1344 1205 c 1
 1425 1205 l 1
 1371 1037 l 1
 1351 967 1292 918 1204 919 c 1
 1107 918 l 1
 1096 790 1077 551 1072 479 c 0
 1056 243 1093 157 1199 175 c 0
 1257 185 1294 256 1304 339 c 1
 1423 339 l 1x3e
 1413 105 1243 -8 1122 -8 c 0x5c
 947 -8 885 83 906 320 c 0
 917 447 955 765 973 917 c 1
 633 915 l 1
 586 479 l 2
 552 163 519 -13 383 -13 c 0x9c
 292 -13 248 34 248 99 c 0x5c
EndSplineSet
EndChar

StartChar: quotedblbase
Encoding: 8222 8222 270
Width: 1026
Flags: MW
HStem: -348 685
VStem: 138 335
LayerCount: 2
Fore
SplineSet
308 337 m 0
 425 331 479 236 473 134 c 0
 459 -103 195 -350 142 -348 c 0
 95 -346 82 -312 82 -312 c 1
 134 -261 266 -87 271 17 c 1
 189 29 133 96 138 182 c 1
 142 273 219 342 308 337 c 0
778 337 m 0x00
 895 331 949 236 943 134 c 0
 929 -103 665 -350 612 -348 c 0
 565 -346 552 -312 552 -312 c 1
 604 -261 736 -87 741 17 c 1
 659 29 603 96 608 182 c 1
 612 273 689 342 778 337 c 0x00
EndSplineSet
EndChar

StartChar: perthousand
Encoding: 8240 8240 271
Width: 3233
Flags: MW
HStem: -15 91 0 76 663 204 1457 88<527.5 644.5>
VStem: 156 195 777 193<992 1189.5> 1247 195 1867 194<314 511.5> 2245 195 2866 193<314 511.5>
LayerCount: 2
Fore
SplineSet
675 0 m 1x7fc0
 1432 1670 l 1
 1577 1670 l 1
 820 0 l 1
 675 0 l 1x7fc0
516 663 m 1
 316 666 152 814 156 1073 c 1
 162 1328 351 1545 608 1545 c 0
 811 1545 970 1339 970 1136 c 0
 970 824 762 656 516 663 c 1
563 754 m 0
 692 754 777 891 777 1093 c 0
 777 1286 707 1457 582 1457 c 0
 473 1457 356 1362 351 1124 c 0
 347 896 436 754 563 754 c 0
2245 395 m 1
 2251 650 2440 867 2697 867 c 0
 2900 867 3059 661 3059 458 c 0
 3059 146 2851 -22 2605 -15 c 1xa0c0
 2405 -12 2240 136 2245 395 c 1
1247 395 m 1
 1253 650 1442 867 1699 867 c 0
 1902 867 2061 661 2061 458 c 0
 2061 146 1853 -22 1607 -15 c 1xa3
 1407 -12 1242 136 1247 395 c 1
2440 446 m 0
 2435 218 2525 76 2652 76 c 0
 2781 76 2866 213 2866 415 c 0
 2866 608 2796 779 2671 779 c 0
 2562 779 2445 684 2440 446 c 0
1442 446 m 0
 1437 218 1526 76 1654 76 c 0
 1783 76 1867 213 1867 415 c 0
 1867 608 1798 779 1672 779 c 0
 1564 779 1447 684 1442 446 c 0
EndSplineSet
EndChar

StartChar: fraction
Encoding: 8260 8260 272
Width: 1196
Flags: MW
HStem: -230 1951<134 1061>
VStem: 37 1121
LayerCount: 2
Fore
SplineSet
37 -176 m 1
 1061 1721 l 1
 1158 1667 l 1
 134 -230 l 1
 37 -176 l 1
EndSplineSet
EndChar

StartChar: partialdiff
Encoding: 8706 8706 273
Width: 1364
Flags: MW
HStem: -12 107<568.5 735.5 568.5 865> 905 131<567 754 538 766> 1455 105<300.5 374.5>
VStem: 142 203<470 623 409 681> 1027 192<527 747>
LayerCount: 2
Fore
SplineSet
142 532 m 0
 142 830 375 1036 701 1036 c 0
 807 1036 913 1010 1003 956 c 1
 897 1417 462 1455 287 1455 c 0
 253 1455 229 1454 219 1454 c 1
 219 1454 247 1549 247 1558 c 2
 247 1559 l 1
 255 1559 281 1560 320 1560 c 0
 556 1560 1219 1549 1219 725 c 0
 1219 329 1050 -12 680 -12 c 0
 186 -12 142 408 142 532 c 0
345 516 m 0
 345 302 466 95 671 95 c 0
 800 95 1027 153 1027 733 c 0
 1027 761 1026 788 1024 814 c 1
 956 852 837 905 695 905 c 0
 439 905 345 730 345 516 c 0
EndSplineSet
EndChar

StartChar: product
Encoding: 8719 8719 274
Width: 1535
Flags: MW
HStem: -171 106<93 144 488.5 544.5 76 144 901 970 1328 1368> 1418 112<145.5 182 537.5 600 600 949 1377.5 1434>
VStem: 246 200<135 1209> 1064 201<155 1214>
LayerCount: 2
Fore
SplineSet
93 -65 m 1
 195 -65 246 -14 246 135 c 2
 246 1222 l 2
 246 1365 213 1418 151 1418 c 0
 140 1418 98 1417 69 1411 c 1
 81 1530 l 1
 1448 1530 l 1
 1434 1418 l 1
 1321 1418 1265 1386 1265 1214 c 2
 1265 86 l 2
 1265 -32 1298 -65 1358 -65 c 0
 1378 -65 1443 -59 1466 -53 c 1
 1454 -171 l 1
 882 -171 l 1
 901 -65 l 1
 1039 -65 1064 4 1064 155 c 2
 1064 1215 l 2
 1064 1382 1052 1418 949 1418 c 2
 600 1418 l 2
 475 1418 446 1407 446 1209 c 2
 446 97 l 2
 446 -51 458 -65 519 -65 c 0
 570 -65 613 -56 636 -51 c 1
 621 -171 l 1
 76 -171 l 1
 93 -65 l 1
EndSplineSet
EndChar

StartChar: summation
Encoding: 8721 8721 275
Width: 1533
Flags: MW
HStem: -173 115 1418 113<437 1066.5> 1418 128
VStem: 188 1174<-111 234>
LayerCount: 2
Fore
SplineSet
188 -111 m 1xd0
 699 683 l 1
 208 1449 l 1
 224 1530 l 1xd0
 928 1531 l 2
 1205 1531 1287 1546 1287 1546 c 1xb0
 1288 1383 1257 1226 1241 1172 c 1
 1155 1172 l 1
 1140 1398 1084 1418 887 1418 c 2
 437 1418 l 1
 913 686 l 1
 451 -63 l 1
 955 -53 l 2
 1142 -49 1232 53 1253 234 c 1
 1362 234 l 1
 1363 125 1331 -59 1308 -173 c 1
 207 -173 l 1
 188 -111 l 1xd0
EndSplineSet
EndChar

StartChar: minus
Encoding: 8722 8722 276
Width: 1366
Flags: MW
HStem: 720 155<187 1082 187 1082>
VStem: 187 895<720 875 720 875>
LayerCount: 2
Fore
SplineSet
187 720 m 1
 187 875 l 1
 1082 875 l 1
 1082 720 l 1
 187 720 l 1
EndSplineSet
EndChar

StartChar: radical
Encoding: 8730 8730 277
Width: 1702
Flags: MW
HStem: -354 2224<793 1669 793 1669>
VStem: 170 1499<589 1870>
LayerCount: 2
Fore
SplineSet
259 473 m 1
 170 589 l 1
 341 708 l 1
 540 708 l 1
 862 -147 l 1
 1446 1870 l 1
 1669 1870 l 1
 950 -354 l 1
 793 -354 l 1
 385 555 l 1
 259 473 l 1
EndSplineSet
EndChar

StartChar: infinity
Encoding: 8734 8734 278
Width: 1877
Flags: MW
HStem: 134 175 141 183 909 183 923 176
VStem: 156 95 1624 96
LayerCount: 2
Fore
SplineSet
542 141 m 0x6c
 285 135 162 343 156 566 c 0
 147 883 337 1094 586 1099 c 0x5c
 742 1102 901 998 979 773 c 1
 1011 864 1135 1088 1334 1092 c 0
 1591 1097 1714 890 1720 667 c 0
 1729 350 1538 139 1289 134 c 0xac
 1133 131 974 235 896 460 c 1
 865 368 741 145 542 141 c 0x6c
551 324 m 0
 674 326 799 395 857 530 c 1
 760 740 691 927 518 923 c 0x5c
 328 919 248 753 251 615 c 1
 257 417 401 321 551 324 c 0
1018 703 m 1xac
 1115 493 1184 306 1357 309 c 0
 1547 313 1628 480 1624 618 c 0
 1619 816 1475 912 1325 909 c 0
 1202 906 1077 838 1018 703 c 1xac
EndSplineSet
EndChar

StartChar: integral
Encoding: 8747 8747 279
Width: 1024
Flags: MW
HStem: -488 137 1350 351<960 1012.5 941 1056 960 960> 1593 120<669 804.5 637.5 849>
VStem: 346 175<1056.5 1338> 514 175<-129.5 185>
LayerCount: 2
Fore
SplineSet
20 -101 m 1xa8
 115 -101 l 1
 125 -154 125 -351 295 -351 c 0xa8
 433 -351 514 -240 514 -19 c 0
 514 389 346 793 346 1199 c 0
 346 1477 507 1713 768 1713 c 0xb0
 841 1713 913 1701 969 1701 c 0
 1056 1701 1090 1703 1090 1703 c 1
 1090 1578 1075 1486 1056 1350 c 1xc8
 960 1350 l 1
 927 1464 937 1593 761 1593 c 0xb0
 577 1593 521 1489 521 1260 c 0
 521 853 689 449 689 42 c 0
 689 -377 393 -546 0 -472 c 1
 -13 -462 -13 -266 20 -101 c 1xa8
EndSplineSet
EndChar

StartChar: approxequal
Encoding: 8776 8776 280
Width: 1193
Flags: MW
HStem: 295 139<729 844 729 858.5> 420 138<365.5 476.5> 687 139<719 834 719 848.5> 812 138<355.5 466.5>
VStem: 121 951<464 779>
LayerCount: 2
Fore
SplineSet
190 686 m 1xa8
 121 779 l 1x58
 121 779 257 950 436 950 c 0
 566 950 665 826 773 826 c 0
 895 826 992 949 992 949 c 1
 1062 856 l 1xa8
 1062 856 945 687 752 687 c 0
 611 687 529 812 404 812 c 0x98
 307 812 190 686 190 686 c 1xa8
200 294 m 1
 131 387 l 1x68
 131 387 267 558 446 558 c 0
 576 558 675 434 783 434 c 0
 905 434 1002 557 1002 557 c 1
 1072 464 l 1xa8
 1072 464 955 295 762 295 c 0
 621 295 539 420 414 420 c 0
 317 420 200 294 200 294 c 1
EndSplineSet
EndChar

StartChar: notequal
Encoding: 8800 8800 281
Width: 1364
Flags: MW
HStem: 0 21G<380 380 380 524> 340 159<211 511 191 572 211 655 717 1148> 681 159<215 642 195 704 215 787 849 1152>
VStem: 191 981<340 840>
LayerCount: 2
Fore
SplineSet
380 0 m 1
 511 340 l 1
 191 340 l 1
 211 499 l 1
 572 499 l 1
 642 681 l 1
 195 681 l 1
 215 840 l 1
 704 840 l 1
 838 1187 l 1
 983 1187 l 1
 849 840 l 1
 1172 840 l 1
 1152 681 l 1
 787 681 l 1
 717 499 l 1
 1168 499 l 1
 1148 340 l 1
 655 340 l 1
 524 0 l 1
 380 0 l 1
EndSplineSet
EndChar

StartChar: lessequal
Encoding: 8804 8804 282
Width: 1364
Flags: MW
HStem: 177 147<179 1127 179 1127>
VStem: 179 948<177 324 177 324 177 1020 177 1020>
LayerCount: 2
Fore
SplineSet
179 937 m 1
 179 1020 l 1
 1127 1443 l 1
 1127 1271 l 1
 412 977 l 1
 1127 680 l 1
 1127 508 l 1
 179 937 l 1
179 177 m 1
 179 324 l 1
 1127 324 l 1
 1127 177 l 1
 179 177 l 1
EndSplineSet
EndChar

StartChar: greaterequal
Encoding: 8805 8805 283
Width: 1364
Flags: MW
HStem: 177 147<237 1185 237 1185>
VStem: 237 948<177 324 177 324 177 680 177 680 177 1443>
LayerCount: 2
Fore
SplineSet
237 508 m 1
 237 680 l 1
 952 977 l 1
 237 1271 l 1
 237 1443 l 1
 1185 1020 l 1
 1185 937 l 1
 237 508 l 1
237 177 m 1
 237 324 l 1
 1185 324 l 1
 1185 177 l 1
 237 177 l 1
EndSplineSet
EndChar

StartChar: lozenge
Encoding: 9674 9674 284
Width: 1415
Flags: MW
HStem: 0 21G<609 609 609 796> 0 126<609 715 715 715 715 796>
VStem: 188 1039<691 725 671 745 671 745>
LayerCount: 2
Fore
SplineSet
609 0 m 1xa0
 188 691 l 1
 188 745 l 1
 619 1416 l 1
 806 1416 l 1
 1227 725 l 1
 1227 671 l 1
 796 0 l 1
 609 0 l 1xa0
715 126 m 1x60
 1056 679 l 1
 699 1290 l 1
 359 736 l 1
 715 126 l 1x60
EndSplineSet
EndChar

StartChar: breve.cap
Encoding: 65549 -1 285
Width: 1022
Flags: MW
HStem: 1710 163<413 596 413 650.5>
VStem: 156 709<1982.5 2024 1982.5 2024>
LayerCount: 2
Fore
SplineSet
505 1710 m 0
 214 1710 156 1923 156 2024 c 1
 264 2040 l 1
 264 2040 321 1873 505 1873 c 0
 687 1873 748 2040 748 2040 c 1
 865 2024 l 1
 865 1941 796 1710 505 1710 c 0
EndSplineSet
EndChar

StartChar: hungarumlaut.cap
Encoding: 65550 -1 286
Width: 1022
Flags: MW
HStem: 1679 343<178 411 411 578>
VStem: 102 826<1774 1872>
LayerCount: 2
Fore
SplineSet
578 1679 m 1
 502 1774 l 1
 841 2022 l 1
 928 1872 l 1
 578 1679 l 1
178 1679 m 1
 102 1774 l 1
 411 2022 l 1
 508 1892 l 1
 178 1679 l 1
EndSplineSet
EndChar

StartChar: Delta
Encoding: 916 916 287
AltUni2: 002206.ffffffff.0
Width: 1877
Flags: MW
HStem: 1 139<379 1397 379 1657> 1546 20G<898 930 930 930>
VStem: 200 1473<22 27>
LayerCount: 2
Fore
SplineSet
200 22 m 1
 898 1566 l 1
 930 1566 l 1
 1673 27 l 1
 1657 1 l 1
 214 1 l 1
 200 22 l 1
379 140 m 1
 1397 140 l 1
 877 1263 l 1
 379 140 l 1
EndSplineSet
EndChar

StartChar: dcaron
Encoding: 271 271 288
Width: 1535
Flags: MW
HStem: -15 179<540.5 621 540.5 629.5> 1086 123<575 733.5> 1128 594<1369.5 1384.5>
VStem: 115 199<451 722.5> 934 184<253 301 301 982 982 982 1179 1216> 1138 162 1253 317<1515 1584 1423 1603.5>
LayerCount: 2
Fore
SplineSet
1280 1160 m 1x22
 1327 1209 1397 1299 1397 1395 c 1
 1316 1403 1253 1472 1253 1558 c 0
 1253 1649 1325 1722 1414 1722 c 0
 1516 1722 1570 1640 1570 1528 c 0
 1570 1318 1408 1128 1361 1128 c 0
 1314 1128 1280 1160 1280 1160 c 1x22
115 545 m 0x00
 115 900 374 1209 705 1209 c 0
 805 1209 879 1195 934 1179 c 1
 934 1404 935 1475 902 1504 c 1
 869 1539 794 1537 719 1537 c 1
 734 1649 l 1
 1138 1705 l 1
 1138 1689 1118 1677 1118 1216 c 2
 1118 301 l 2
 1118 197 1141 157 1204 157 c 0xdc
 1240 157 1274 171 1309 182 c 1
 1305 150 1300 59 1300 59 c 1xd8
 993 -17 l 1
 987 -14 955 61 939 130 c 1
 852 65 690 -15 569 -15 c 0
 313 -15 115 178 115 545 c 0x00
621 164 m 1
 763 172 914 232 934 253 c 1
 934 982 l 1
 898 1040 779 1086 688 1086 c 0
 462 1086 314 951 314 577 c 0
 314 325 460 164 621 164 c 1
EndSplineSet
EndChar

StartChar: lcaron
Encoding: 318 318 289
Width: 855
Flags: MW
HStem: 0 102<64 151.5 81 151.5 502 555> 1128 594<697.5 712.5>
VStem: 261 189<236 237 180.5 1368> 581 317<1515 1584 1423 1603.5>
LayerCount: 2
Fore
SplineSet
608 1160 m 1
 655 1209 725 1299 725 1395 c 1
 644 1403 581 1472 581 1558 c 0
 581 1649 653 1722 742 1722 c 0
 844 1722 898 1640 898 1528 c 0
 898 1318 736 1128 689 1128 c 0
 642 1128 608 1160 608 1160 c 1
64 0 m 1xa0
 81 102 l 1
 222 102 261 139 261 236 c 2
 261 1368 l 2
 261 1448 253 1481 231 1505 c 1
 200 1542 116 1537 59 1537 c 1
 71 1649 l 1
 468 1706 l 1
 453 1620 447 1559 448 1197 c 2
 450 237 l 2
 450 124 468 102 536 102 c 0
 574 102 626 106 646 111 c 1
 631 0 l 1
 64 0 l 1xa0
EndSplineSet
EndChar

StartChar: Lcaron
Encoding: 317 317 290
Width: 1367
Flags: MW
HStem: 0 106<634 799 799 946.5> 1128 594<984.5 999.5> 1417 113<598 682>
VStem: 260 206<238 279 279 330> 868 317<1515 1584 1423 1603.5>
LayerCount: 2
Fore
SplineSet
895 1160 m 1x48
 942 1209 1012 1299 1012 1395 c 1
 931 1403 868 1472 868 1558 c 0
 868 1649 940 1722 1029 1722 c 0
 1131 1722 1185 1640 1185 1528 c 0
 1185 1318 1023 1128 976 1128 c 0
 929 1128 895 1160 895 1160 c 1x48
68 0 m 1xb0
 80 111 l 1
 201 108 260 146 260 330 c 2
 259 1249 l 2
 259 1401 236 1418 171 1418 c 0
 139 1418 117 1413 92 1408 c 1
 108 1530 l 1
 696 1530 l 1
 682 1417 l 1
 514 1417 458 1403 466 1224 c 1
 466 279 l 2
 466 124 542 106 634 106 c 2
 799 106 l 2
 1094 106 1119 272 1138 446 c 1
 1192 446 1234 441 1268 441 c 1
 1289 256 1234 65 1229 0 c 1
 68 0 l 1xb0
EndSplineSet
EndChar

StartChar: tcaron
Encoding: 357 357 291
Width: 1026
Flags: MW
HStem: -15 167<517 524> 1040 150<412 680 420 680 420 680>
VStem: 223 189<263.5 352 352 1040> 753 317<1515 1584 1423 1603.5>
LayerCount: 2
Fore
SplineSet
780 1160 m 1
 827 1209 897 1299 897 1395 c 1
 816 1403 753 1472 753 1558 c 0
 753 1649 825 1722 914 1722 c 0
 1016 1722 1070 1640 1070 1528 c 0
 1070 1318 908 1128 861 1128 c 0
 814 1128 780 1160 780 1160 c 1
223 236 m 1
 223 1040 l 1
 48 1040 l 1
 56 1140 l 1
 254 1174 288 1267 324 1498 c 1
 420 1498 l 1
 420 1190 l 1
 680 1190 l 1
 680 1040 l 1
 412 1040 l 1
 412 352 l 2
 412 175 456 152 578 152 c 0
 655 152 727 180 766 205 c 1
 807 126 l 1
 734 57 584 -15 464 -15 c 0
 302 -15 230 43 223 236 c 1
EndSplineSet
EndChar

StartChar: iogonek
Encoding: 303 303 292
Width: 683
Flags: MW
HStem: -510 131<292 476.5> 0 102<104 191.5 122 191.5 122 288 532 532 532 577.5> 1189 20G<502 502> 1400 305<330.5 415>
VStem: 106 413 221 66 284 181<190 837>
LayerCount: 2
Fore
SplineSet
374 1400 m 0xf4
 287 1400 221 1464 221 1548 c 0xf4
 221 1640 287 1705 374 1705 c 0
 456 1705 519 1640 519 1548 c 0xf8
 519 1464 456 1400 374 1400 c 0xf4
104 0 m 1xf8
 122 102 l 1
 261 102 284 181 284 312 c 2
 284 837 l 2
 284 1017 233 1031 86 1031 c 1
 102 1155 l 1
 502 1209 l 1
 476 1134 457 912 458 698 c 1
 465 231 l 1xf2
 465 149 485 102 567 102 c 0
 588 102 623 105 642 111 c 1
 629 0 l 1
 532 0 l 1
 458 -9 287 -83 287 -247 c 0
 287 -337 367 -379 448 -379 c 0
 505 -379 544 -366 566 -356 c 1
 566 -444 l 1xf4
 517 -484 432 -510 356 -510 c 0
 228 -510 106 -430 106 -289 c 0
 106 -120 260 -19 288 0 c 1
 104 0 l 1xf8
EndSplineSet
EndChar

StartChar: uogonek
Encoding: 371 371 293
Width: 1365
Flags: MW
HStem: -510 131<865 1049.5> -17 165<533 626> -5 21G<884 884> 1189 20G<443 443 1146 1146>
VStem: 224 178<332.5 973> 679 181<-292 -200> 941 186<264 304 304 782>
LayerCount: 2
Fore
SplineSet
216 333 m 0xde
 216 518 224 701 224 900 c 0
 224 1046 182 1050 97 1059 c 1
 112 1155 l 1
 443 1209 l 1
 430 1067 402 945 402 439 c 0
 402 226 455 148 611 148 c 0xde
 762 148 907 221 941 264 c 1
 941 890 l 2
 941 1039 893 1053 756 1055 c 1
 771 1155 l 1
 1146 1209 l 1
 1132 974 1127 989 1127 782 c 2
 1127 304 l 2
 1127 151 1168 160 1222 160 c 0
 1255 160 1296 180 1297 180 c 2
 1294 58 l 1
 1078 1 l 1
 996 -30 860 -105 860 -247 c 0
 860 -337 940 -379 1021 -379 c 0
 1078 -379 1117 -366 1139 -356 c 1
 1139 -444 l 1
 1090 -484 1005 -510 929 -510 c 0
 801 -510 679 -430 679 -289 c 0
 679 -111 884 -5 884 -5 c 1
 960 32 l 1
 960 32 971 31 987 30 c 1xbe
 974 61 961 102 954 149 c 1
 907 99 699 -17 553 -17 c 0
 357 -17 216 92 216 333 c 0xde
EndSplineSet
EndChar

StartChar: Uogonek
Encoding: 370 370 294
Width: 1537
Flags: MW
HStem: -510 131<858 1042.5> -15 123<677.5 796> 1418 112<106 143 508.5 592 1098.5 1149.5 1429.5 1495>
VStem: 201 206<445 646 646 924> 672 181<-292 -215> 1036 95 1218 138<636 1194>
LayerCount: 2
Fore
SplineSet
201 617 m 0
 201 1231 200 1268 200 1264 c 1
 199 1417 174 1418 112 1418 c 0
 100 1418 66 1413 42 1408 c 1
 56 1530 l 1
 607 1530 l 1
 592 1418 l 1
 425 1418 407 1395 407 1222 c 2
 407 646 l 2
 407 244 566 108 789 108 c 0
 1025 108 1218 187 1218 636 c 2
 1218 1197 l 2
 1218 1366 1190 1418 1109 1418 c 0
 1088 1418 1056 1414 1031 1408 c 1
 1042 1530 l 1
 1510 1530 l 1
 1495 1418 l 1
 1364 1418 1356 1374 1356 1194 c 2
 1356 610 l 2
 1356 310 1259 115 1058 31 c 1
 1065 31 l 1
 1047 19 853 -65 853 -247 c 0
 853 -337 933 -379 1014 -379 c 0
 1071 -379 1110 -366 1132 -356 c 1
 1132 -444 l 1
 1083 -484 998 -510 922 -510 c 0
 794 -510 672 -430 672 -289 c 0
 672 -141 786 -44 825 -14 c 1
 813 -15 802 -15 790 -15 c 0
 369 -15 201 239 201 617 c 0
EndSplineSet
EndChar

StartChar: Dcroat
Encoding: 272 272 295
Width: 1539
Flags: MW
HStem: -15 126<670.5 896 611 944> -1 107 702 147<-14 279 -14 279 482 747> 1419 111<151 200.5> 1433 112<643.5 837>
VStem: 279 203<285 702 849 1230 1230 1303.5> 1264 226<560.5 1025>
LayerCount: 2
Fore
SplineSet
98 0 m 1x6e
 105 106 l 1
 217 106 279 135 279 285 c 2
 279 702 l 1
 -14 702 l 1
 -14 849 l 1
 279 849 l 1
 279 1230 l 2
 279 1377 239 1419 162 1419 c 0
 140 1419 119 1417 97 1410 c 1
 107 1530 l 1
 353 1530 l 2x76
 483 1530 568 1545 719 1545 c 0
 1229 1545 1490 1299 1490 809 c 0
 1490 312 1180 -15 708 -15 c 0xae
 633 -15 446 -1 373 -1 c 2
 98 0 l 1x6e
482 207 m 2xae
 482 116 477 111 745 111 c 0
 1047 111 1264 302 1264 763 c 0
 1264 1287 1016 1433 658 1433 c 0
 601 1433 537 1425 482 1412 c 1
 482 849 l 1
 747 849 l 1
 747 702 l 1
 482 702 l 1
 482 207 l 2xae
EndSplineSet
EndChar

StartChar: dcroat
Encoding: 273 273 296
Width: 1362
Flags: MW
HStem: -15 179<540.5 621 540.5 629.5> 1086 123<575 733.5> 1286 128<604 930 604 934 586 930 1119 1269>
VStem: 115 199<451 722.5> 934 184<253 301 301 982 982 982 1179 1216 1216 1286> 1138 162
LayerCount: 2
Fore
SplineSet
115 545 m 0
 115 900 374 1209 705 1209 c 0
 805 1209 879 1195 934 1179 c 1
 934 1286 l 1xf8
 586 1286 l 1
 604 1414 l 1
 930 1414 l 1
 926 1464 918 1489 902 1504 c 1
 869 1539 794 1537 719 1537 c 1
 734 1649 l 1
 1138 1705 l 1
 1138 1691 1124 1681 1119 1414 c 1xfc
 1287 1414 l 1
 1269 1286 l 1
 1118 1286 l 1
 1118 1216 l 1
 1118 301 l 2
 1118 197 1141 157 1204 157 c 0xf8
 1240 157 1274 171 1309 182 c 1
 1305 150 1300 59 1300 59 c 1xfc
 993 -17 l 1
 987 -14 955 61 939 130 c 1
 852 65 690 -15 569 -15 c 0
 313 -15 115 178 115 545 c 0
621 164 m 1
 763 172 914 232 934 253 c 1
 934 982 l 1
 898 1040 779 1086 688 1086 c 0
 462 1086 314 951 314 577 c 0
 314 325 460 164 621 164 c 1
EndSplineSet
EndChar

StartChar: lacute
Encoding: 314 314 297
Width: 683
Flags: MW
HStem: 0 102<64 151.5 81 151.5 502 555> 1671 369
VStem: 42 623<1785 1852> 261 189<236 237 180.5 1298>
LayerCount: 2
Fore
SplineSet
64 0 m 1x90
 81 102 l 1
 222 102 261 139 261 236 c 2
 261 1298 l 2
 261 1378 253 1411 231 1435 c 1
 200 1472 116 1467 59 1467 c 1
 71 1579 l 1
 468 1636 l 1
 453 1550 447 1489 448 1127 c 2
 450 237 l 2
 450 124 468 102 536 102 c 0
 574 102 626 106 646 111 c 1
 631 0 l 1
 64 0 l 1x90
80 1671 m 1x60
 42 1785 l 1
 595 2040 l 1
 665 1852 l 1
 80 1671 l 1x60
EndSplineSet
EndChar

StartChar: tbar
Encoding: 359 359 298
Width: 852
Flags: MW
HStem: -15 167<517 524> 537 128<81 223 81 223 63 223 412 746> 1040 150<412 790 420 790 420 790>
VStem: 223 189<263.5 352 352 537 263.5 537 665 1040>
LayerCount: 2
Fore
SplineSet
223 236 m 1
 223 537 l 1
 63 537 l 1
 81 665 l 1
 223 665 l 1
 223 1040 l 1
 48 1040 l 1
 56 1140 l 1
 254 1174 288 1267 324 1498 c 1
 420 1498 l 1
 420 1190 l 1
 790 1190 l 1
 790 1040 l 1
 412 1040 l 1
 412 665 l 1
 764 665 l 1
 746 537 l 1
 412 537 l 1
 412 352 l 2
 412 175 456 152 578 152 c 0
 655 152 727 180 766 205 c 1
 807 126 l 1
 734 57 584 -15 464 -15 c 0
 302 -15 230 43 223 236 c 1
EndSplineSet
EndChar

StartChar: Tbar
Encoding: 358 358 299
Width: 1535
Flags: MW
HStem: 0 108 714 125<389 665 389 665 369 665 872 1135> 1411 118
VStem: 665 207<311 714 839 1411> 1302 128<1131 1248.5>
LayerCount: 2
Fore
SplineSet
384 1 m 1
 392 108 l 1
 654 108 665 127 665 311 c 2
 665 714 l 1
 369 714 l 1
 389 839 l 1
 665 839 l 1
 665 1411 l 1
 500 1412 l 1
 272 1408 218 1346 198 1131 c 1
 71 1131 l 1
 84 1236 109 1385 129 1530 c 1
 1440 1530 l 1
 1448 1459 1432 1293 1430 1131 c 1
 1302 1131 l 1
 1302 1366 1298 1408 1069 1412 c 1
 872 1411 l 1
 872 839 l 1
 1155 839 l 1
 1135 714 l 1
 872 714 l 1
 872 289 l 2
 872 133 890 108 1002 108 c 0
 1023 108 1129 116 1152 122 c 1
 1140 0 l 1
 384 1 l 1
EndSplineSet
EndChar

StartChar: Hbar
Encoding: 294 294 300
Width: 1706
Flags: MW
HStem: 0 106<96 182.5 113 182.5 517.5 572 1069 1137 1494.5 1534> 728 122<476 1230 476 1230> 1079 104<72 273 72 273 43 273 476 1230 1433 1623> 1418 112<174.5 210 565.5 627 1115 1174.5 1533.5 1589>
VStem: 273 203<306 728 850 1079 1183 1209> 1230 203<326 728 728 728 850 1079 1183 1214>
LayerCount: 2
Fore
SplineSet
96 0 m 1
 113 106 l 1
 252 106 273 157 273 306 c 2
 273 1079 l 1
 43 1079 l 1
 72 1183 l 1
 273 1183 l 1
 273 1222 l 2
 273 1365 240 1418 180 1418 c 0
 169 1418 138 1417 109 1411 c 1
 121 1530 l 1
 642 1530 l 1
 627 1418 l 1
 504 1418 476 1407 476 1209 c 2
 476 1183 l 1
 1230 1183 l 1
 1230 1215 l 2
 1230 1391 1210 1418 1139 1418 c 0
 1091 1418 1066 1413 1042 1408 c 1
 1060 1530 l 1
 1603 1530 l 1
 1589 1418 l 1
 1478 1418 1433 1386 1433 1214 c 2
 1433 1183 l 1
 1652 1183 l 1
 1623 1079 l 1
 1433 1079 l 1
 1433 257 l 2
 1433 139 1465 106 1524 106 c 0
 1544 106 1578 112 1601 118 c 1
 1589 0 l 1
 1051 0 l 1
 1069 106 l 1
 1205 106 1230 175 1230 326 c 2
 1230 728 l 1
 476 728 l 1
 476 268 l 2
 476 120 488 106 547 106 c 0
 597 106 639 115 662 120 c 1
 647 0 l 1
 96 0 l 1
476 850 m 1
 1230 850 l 1
 1230 1079 l 1
 476 1079 l 1
 476 850 l 1
EndSplineSet
EndChar

StartChar: Lacute
Encoding: 313 313 301
Width: 1367
Flags: MW
HStem: 0 106<634 799 799 946.5> 1417 113<598 682> 1671 369
VStem: 260 206<238 279 279 330> 400 623<1785 1852>
LayerCount: 2
Fore
SplineSet
68 0 m 1xd0
 80 111 l 1
 201 108 260 146 260 330 c 2
 259 1249 l 2
 259 1401 236 1418 171 1418 c 0
 139 1418 117 1413 92 1408 c 1
 108 1530 l 1
 696 1530 l 1
 682 1417 l 1
 514 1417 458 1403 466 1224 c 1
 466 279 l 2
 466 124 542 106 634 106 c 2
 799 106 l 2
 1094 106 1119 272 1138 446 c 1
 1192 446 1234 441 1268 441 c 1
 1289 256 1234 65 1229 0 c 1
 68 0 l 1xd0
438 1671 m 1x28
 400 1785 l 1
 953 2040 l 1
 1023 1852 l 1
 438 1671 l 1x28
EndSplineSet
EndChar

StartChar: Eng
Encoding: 330 330 302
Width: 1705
Flags: MW
HStem: -520 21G<1144 1144> 0 106<91 157 104 157 481 544.5> 1419 111<1259 1309 1588 1664>
VStem: 276 131<283 300 300 1222 1222 1266> 1361 132<368 1245 1245 1270>
LayerCount: 2
Fore
SplineSet
91 0 m 1
 104 106 l 1
 210 106 276 114 276 283 c 2
 276 1222 l 2
 276 1371 261 1410 179 1410 c 0
 150 1410 117 1405 87 1400 c 1
 102 1530 l 1
 497 1530 l 1
 497 1530 515 1450 587 1359 c 0
 846 1028 1105 681 1361 368 c 1
 1361 1245 l 2
 1361 1407 1349 1419 1269 1419 c 0
 1249 1419 1198 1414 1166 1409 c 1
 1177 1530 l 1
 1678 1530 l 1
 1664 1419 l 1
 1512 1419 1493 1423 1493 1270 c 2
 1493 252 l 2
 1493 125 1498 16 1498 16 c 1
 1498 -139 1290 -439 1144 -520 c 1
 1073 -448 l 1
 1200 -274 1295 -154 1308 105 c 1
 1091 417 725 866 407 1266 c 1
 407 300 l 2
 407 157 442 106 520 106 c 0
 569 106 625 115 649 119 c 1
 637 0 l 1
 91 0 l 1
EndSplineSet
EndChar

StartChar: eng
Encoding: 331 331 303
Width: 1365
Flags: MW
HStem: -520 21G<798 798> 0 102<95 163.5 111 163.5 497 547.5> 1031 178<748.5 862.5>
VStem: 255 183<345 830 830 868.5> 981 182<261 982.5 697.5 801>
LayerCount: 2
Fore
SplineSet
95 0 m 1
 111 102 l 1
 216 102 255 132 255 345 c 2
 255 830 l 2
 255 907 245 964 224 990 c 1
 206 1015 166 1031 91 1031 c 1
 107 1155 l 1
 453 1209 l 1
 453 1209 438 1128 438 1025 c 1
 472 1054 659 1209 838 1209 c 0
 1014 1209 1163 1113 1163 852 c 0
 1163 543 1162 265 1167 87 c 0
 1172 -106 1112 -304 798 -520 c 1
 730 -466 l 1
 829 -341 922 -215 953 -45 c 0
 968 36 981 135 981 261 c 2
 981 670 l 2
 981 932 963 1031 762 1031 c 0
 621 1031 484 944 438 914 c 1
 438 240 l 2
 438 112 456 102 538 102 c 0
 557 102 597 106 618 111 c 1
 603 0 l 1
 95 0 l 1
EndSplineSet
EndChar

StartChar: hcircumflex
Encoding: 293 293 304
Width: 1365
Flags: MW
HStem: 0 102<64 147 80 147 465.5 502 795 826 1187 1219> 1031 178<740 863> 1673 367<343 680 680 1004>
VStem: 222 186<356 906 1017 1197> 289 776<1771 1779> 968 188<513.5 974.5>
LayerCount: 2
Fore
SplineSet
64 0 m 1xd4
 80 102 l 1
 214 102 222 171 222 356 c 2
 222 1298 l 2
 222 1378 214 1411 193 1435 c 0
 161 1472 87 1467 30 1467 c 1
 42 1579 l 1
 429 1636 l 1
 415 1575 408 1410 408 1197 c 2
 408 1017 l 1
 472 1071 637 1209 843 1209 c 0
 1020 1209 1156 1095 1156 854 c 0
 1156 681 1137 506 1135 321 c 1
 1133 295 1135 272 1135 198 c 0
 1135 110 1165 102 1209 102 c 0
 1229 102 1266 106 1293 111 c 1
 1281 0 l 1
 780 0 l 1
 795 102 l 1
 857 102 918 118 938 188 c 0
 960 265 968 375 968 652 c 0
 968 791 963 1031 763 1031 c 0
 595 1031 470 945 408 906 c 1
 408 207 l 2
 408 118 439 102 492 102 c 0
 512 102 559 104 588 111 c 1
 573 0 l 1
 64 0 l 1xd4
343 1673 m 1x28
 289 1771 l 1
 680 2040 l 1
 1065 1779 l 1
 1004 1673 l 1
 680 1829 l 1
 343 1673 l 1x28
EndSplineSet
EndChar

